<?xml version="1.0" encoding="UTF-8" standalone="no"?>
<svg
   xmlns:dc="http://purl.org/dc/elements/1.1/"
   xmlns:cc="http://creativecommons.org/ns#"
   xmlns:rdf="http://www.w3.org/1999/02/22-rdf-syntax-ns#"
   xmlns:svg="http://www.w3.org/2000/svg"
   xmlns="http://www.w3.org/2000/svg"
   xmlns:sodipodi="http://sodipodi.sourceforge.net/DTD/sodipodi-0.dtd"
   xmlns:inkscape="http://www.inkscape.org/namespaces/inkscape"
   viewBox="0 0 74.37948 64.414522"
   height="64.41452"
   width="74.379478"
   id="svg2"
   version="1.1"
   sodipodi:docname="SENSIeinstellungen2.svg"
   inkscape:version="0.92.4 (5da689c313, 2019-01-14)">
  <sodipodi:namedview
     pagecolor="#ffffff"
     bordercolor="#666666"
     borderopacity="1"
     objecttolerance="10"
     gridtolerance="10"
     guidetolerance="10"
     inkscape:pageopacity="0"
     inkscape:pageshadow="2"
     inkscape:window-width="1920"
     inkscape:window-height="1001"
     id="namedview9"
     showgrid="false"
     inkscape:zoom="5.1813535"
     inkscape:cx="-65.374281"
     inkscape:cy="55.145847"
     inkscape:window-x="-9"
     inkscape:window-y="1071"
     inkscape:window-maximized="1"
     inkscape:current-layer="svg2" />
  <metadata
     id="metadata8">
    <rdf:RDF>
      <cc:Work
         rdf:about="">
        <dc:format>image/svg+xml</dc:format>
        <dc:type
           rdf:resource="http://purl.org/dc/dcmitype/StillImage" />
        <dc:title></dc:title>
      </cc:Work>
    </rdf:RDF>
  </metadata>
  <defs
     id="defs6">
    <clipPath
       id="clipPath143"
       clipPathUnits="userSpaceOnUse">
      <rect
         style="stroke-width:1.71212864"
         transform="rotate(-43.315315)"
         y="67.804993"
         x="-715.1568"
         height="203.14427"
         width="203.14427"
         id="rect145" />
    </clipPath>
    <clipPath
       clipPathUnits="userSpaceOnUse"
       id="clipPath4552">
      <path
         style="fill:none;stroke:#000000;stroke-width:1px;stroke-linecap:butt;stroke-linejoin:miter;stroke-opacity:1"
         d="m -128.73083,-8.1533909 23.73896,-23.7389721 -19.10698,-8.491988 -18.52798,7.333991 13.896,24.8969691"
         id="path4554"
         inkscape:connector-curvature="0" />
    </clipPath>
    <clipPath
       clipPathUnits="userSpaceOnUse"
       id="clipPath4699">
      <rect
         ry="2.8949964"
         y="-27.416504"
         x="-110.9439"
         height="27.955021"
         width="28.098379"
         id="rect4701"
         style="fill:none;stroke:#000000;stroke-width:0.30673707;stroke-miterlimit:4;stroke-dasharray:none;stroke-dashoffset:0;stroke-opacity:1" />
    </clipPath>
    <clipPath
       clipPathUnits="userSpaceOnUse"
       id="clipPath4937">
      <path
         style="fill:none;stroke:#000000;stroke-width:0.33466932;stroke-linecap:butt;stroke-linejoin:miter;stroke-miterlimit:4;stroke-dasharray:none;stroke-opacity:1"
         d="m -106.60726,-13.805544 3.31029,2.502905 9.527187,2.5029055 1.937734,3.7139881 -15.178911,2.7451217 -9.28497,-6.2976321 z"
         id="path4939"
         inkscape:connector-curvature="0" />
    </clipPath>
    <clipPath
       clipPathUnits="userSpaceOnUse"
       id="clipPath4913">
      <circle
         transform="rotate(-38.419141)"
         r="24.283579"
         cy="-54.134789"
         cx="-88.579475"
         id="circle4915"
         style="fill:none;stroke:#4d4d4d;stroke-width:1.33852994" />
    </clipPath>
    <clipPath
       clipPathUnits="userSpaceOnUse"
       id="clipPath4719">
      <rect
         style="fill:#000000;fill-opacity:1;stroke:#000000"
         id="rect4721"
         width="8.8779888"
         height="42.942448"
         x="-34.546959"
         y="25.718069"
         rx="2.47085"
         ry="0.40744901" />
    </clipPath>
    <clipPath
       clipPathUnits="userSpaceOnUse"
       id="clipPath896">
      <rect
         style="fill:#000000;fill-opacity:1;stroke:#000000"
         id="rect894"
         width="8.8779888"
         height="42.942448"
         x="-34.546959"
         y="25.718069"
         rx="2.47085"
         ry="0.40744901" />
    </clipPath>
    <clipPath
       clipPathUnits="userSpaceOnUse"
       id="clipPath4897">
      <circle
         transform="rotate(-38.419141)"
         r="10.929907"
         cy="-28.001387"
         cx="-52.648228"
         id="circle4899"
         style="fill:none;stroke:#4d4d4d;stroke-width:0.60246503" />
    </clipPath>
    <clipPath
       clipPathUnits="userSpaceOnUse"
       id="clipPath4893">
      <circle
         transform="rotate(-38.419141)"
         r="10.929907"
         cy="-28.001387"
         cx="-52.648228"
         id="circle4895"
         style="fill:none;stroke:#4d4d4d;stroke-width:0.60246503" />
    </clipPath>
    <clipPath
       clipPathUnits="userSpaceOnUse"
       id="clipPath4889">
      <circle
         transform="rotate(-38.419141)"
         r="10.929907"
         cy="-28.001387"
         cx="-52.648228"
         id="circle4891"
         style="fill:none;stroke:#4d4d4d;stroke-width:0.60246503" />
    </clipPath>
    <clipPath
       clipPathUnits="userSpaceOnUse"
       id="clipPath4885">
      <circle
         transform="rotate(-38.419141)"
         r="10.929907"
         cy="-28.001387"
         cx="-52.648228"
         id="circle4887"
         style="fill:none;stroke:#4d4d4d;stroke-width:0.60246503" />
    </clipPath>
    <clipPath
       clipPathUnits="userSpaceOnUse"
       id="clipPath4719-5">
      <rect
         style="fill:#000000;fill-opacity:1;stroke:#000000"
         id="rect4721-2"
         width="8.8779888"
         height="42.942448"
         x="-34.546959"
         y="25.718069"
         rx="2.47085"
         ry="0.40744901" />
    </clipPath>
    <clipPath
       clipPathUnits="userSpaceOnUse"
       id="clipPath932">
      <rect
         style="fill:#000000;fill-opacity:1;stroke:#000000"
         id="rect930"
         width="8.8779888"
         height="42.942448"
         x="-34.546959"
         y="25.718069"
         rx="2.47085"
         ry="0.40744901" />
    </clipPath>
    <clipPath
       clipPathUnits="userSpaceOnUse"
       id="clipPath4719-4">
      <rect
         style="fill:#000000;fill-opacity:1;stroke:#000000"
         id="rect4721-0"
         width="8.8779888"
         height="42.942448"
         x="-34.546959"
         y="25.718069"
         rx="2.47085"
         ry="0.40744901" />
    </clipPath>
    <clipPath
       clipPathUnits="userSpaceOnUse"
       id="clipPath1979">
      <rect
         style="fill:#000000;fill-opacity:1;stroke:#000000"
         id="rect1977"
         width="8.8779888"
         height="42.942448"
         x="-34.546959"
         y="25.718069"
         rx="2.47085"
         ry="0.40744901" />
    </clipPath>
  </defs>
  <path
     d="m 257.98303,137.45625 -4.90194,8.49041 h -9.80387 l -4.90194,-8.49041 4.90194,-8.4904 h 9.80387 z"
     id="path2038"
     style="fill:#00ffcc;fill-opacity:1;stroke:#333333;stroke-width:0.98378992;stroke-miterlimit:4;stroke-dasharray:none;stroke-dashoffset:0;stroke-opacity:1"
     transform="matrix(1.7928181,-3.1052519,3.1052519,1.7928181,-834.58663,556.43199)" />
  <g
     transform="matrix(1.8536528,0,0,1.8536528,7.5313035,2.5488065)"
     id="surface1"
     style="fill:#333333;fill-opacity:1">
    <path
       inkscape:connector-curvature="0"
       d="M 13.1875,3 13.03125,3.8125 12.4375,6.78125 C 11.484375,7.15625 10.625,7.683594 9.84375,8.3125 l -2.90625,-1 -0.78125,-0.25 -0.40625,0.71875 -2,3.4375 -0.40625,0.71875 0.59375,0.53125 2.25,1.96875 C 6.105469,14.949219 6,15.460938 6,16 c 0,0.539063 0.105469,1.050781 0.1875,1.5625 l -2.25,1.96875 -0.59375,0.53125 0.40625,0.71875 2,3.4375 0.40625,0.71875 0.78125,-0.25 2.90625,-1 c 0.78125,0.628906 1.640625,1.15625 2.59375,1.53125 L 13.03125,28.1875 13.1875,29 h 5.625 l 0.15625,-0.8125 0.59375,-2.96875 c 0.953125,-0.375 1.8125,-0.902344 2.59375,-1.53125 l 2.90625,1 0.78125,0.25 0.40625,-0.71875 2,-3.4375 0.40625,-0.71875 -0.59375,-0.53125 -2.25,-1.96875 C 25.894531,17.050781 26,16.539063 26,16 26,15.460938 25.894531,14.949219 25.8125,14.4375 l 2.25,-1.96875 0.59375,-0.53125 -0.40625,-0.71875 -2,-3.4375 -0.40625,-0.71875 -0.78125,0.25 -2.90625,1 C 21.375,7.683594 20.515625,7.15625 19.5625,6.78125 L 18.96875,3.8125 18.8125,3 Z m 1.625,2 h 2.375 l 0.5,2.59375 0.125,0.59375 0.5625,0.1875 c 1.136719,0.355469 2.167969,0.957031 3.03125,1.75 l 0.4375,0.40625 0.5625,-0.1875 2.53125,-0.875 1.1875,2.03125 -2,1.78125 -0.46875,0.375 L 23.8125,14.25 C 23.941406,14.820313 24,15.402344 24,16 c 0,0.597656 -0.05859,1.179688 -0.1875,1.75 l -0.125,0.59375 0.4375,0.375 2,1.78125 -1.1875,2.03125 -2.53125,-0.875 -0.5625,-0.1875 -0.4375,0.40625 c -0.863281,0.792969 -1.894531,1.394531 -3.03125,1.75 l -0.5625,0.1875 -0.125,0.59375 -0.5,2.59375 h -2.375 l -0.5,-2.59375 -0.125,-0.59375 -0.5625,-0.1875 c -1.136719,-0.355469 -2.167969,-0.957031 -3.03125,-1.75 l -0.4375,-0.40625 -0.5625,0.1875 -2.53125,0.875 L 5.875,20.5 l 2,-1.78125 0.46875,-0.375 L 8.1875,17.75 C 8.058594,17.179688 8,16.597656 8,16 8,15.402344 8.058594,14.820313 8.1875,14.25 L 8.34375,13.65625 7.875,13.28125 5.875,11.5 7.0625,9.46875 l 2.53125,0.875 0.5625,0.1875 0.4375,-0.40625 C 11.457031,9.332031 12.488281,8.730469 13.625,8.375 l 0.5625,-0.1875 0.125,-0.59375 z M 16,11 c -2.75,0 -5,2.25 -5,5 0,2.75 2.25,5 5,5 2.75,0 5,-2.25 5,-5 0,-2.75 -2.25,-5 -5,-5 z m 0,2 c 1.667969,0 3,1.332031 3,3 0,1.667969 -1.332031,3 -3,3 -1.667969,0 -3,-1.332031 -3,-3 0,-1.667969 1.332031,-3 3,-3 z"
       id="path2"
       style="fill:#333333;fill-opacity:1" />
  </g>
</svg>
