<?xml version="1.0" encoding="UTF-8" standalone="no"?>
<svg
   xmlns:dc="http://purl.org/dc/elements/1.1/"
   xmlns:cc="http://creativecommons.org/ns#"
   xmlns:rdf="http://www.w3.org/1999/02/22-rdf-syntax-ns#"
   xmlns:svg="http://www.w3.org/2000/svg"
   xmlns="http://www.w3.org/2000/svg"
   xmlns:sodipodi="http://sodipodi.sourceforge.net/DTD/sodipodi-0.dtd"
   xmlns:inkscape="http://www.inkscape.org/namespaces/inkscape"
   width="192"
   height="192"
   viewBox="0 0 50.799999 50.800001"
   version="1.1"
   id="svg8"
   inkscape:version="1.0.1 (3bc2e813f5, 2020-09-07)"
   sodipodi:docname="icon_raw.svg">
  <defs
     id="defs2" />
  <sodipodi:namedview
     id="base"
     pagecolor="#ffffff"
     bordercolor="#666666"
     borderopacity="1.0"
     inkscape:pageopacity="0.0"
     inkscape:pageshadow="2"
     inkscape:zoom="0.98994949"
     inkscape:cx="70.735419"
     inkscape:cy="104.67363"
     inkscape:document-units="mm"
     inkscape:current-layer="layer1"
     inkscape:document-rotation="0"
     showgrid="false"
     units="px"
     inkscape:window-width="1294"
     inkscape:window-height="1040"
     inkscape:window-x="182"
     inkscape:window-y="0"
     inkscape:window-maximized="0" />
  <metadata
     id="metadata5">
    <rdf:RDF>
      <cc:Work
         rdf:about="">
        <dc:format>image/svg+xml</dc:format>
        <dc:type
           rdf:resource="http://purl.org/dc/dcmitype/StillImage" />
        <dc:title></dc:title>
      </cc:Work>
    </rdf:RDF>
  </metadata>
  <g
     inkscape:label="Ebene 1"
     inkscape:groupmode="layer"
     id="layer1">
    <g
       id="g66"
       transform="translate(-3.7797619,-82.587798)">
      <path
         style="fill:#a7cf8c;stroke-width:0.169333"
         d="m 40.156191,131.83662 c -0.2794,-0.0259 -1.9177,-0.13151 -3.640667,-0.23471 -1.722966,-0.1032 -3.332133,-0.22606 -3.575924,-0.27303 -0.353337,-0.0681 -0.941046,-0.81541 -2.897078,-3.68396 -2.937827,-4.30837 -2.941586,-4.31481 -2.597122,-4.44699 0.141799,-0.0544 2.28671,0.0521 4.76647,0.23672 3.914176,0.29139 4.548101,0.37733 4.807817,0.65177 0.548015,0.5791 5.083838,7.37202 5.083838,7.61364 0,0.23322 -0.514613,0.26931 -1.947334,0.13656 z m -22.944668,-6.42518 c -4.701613,-0.91588 -4.572,-0.88319 -4.572,-1.15308 0,-0.12233 1.561189,-1.56867 3.469312,-3.21411 2.991427,-2.5796 3.545394,-2.99065 4.021666,-2.9841 0.303795,0.004 2.418287,0.36613 4.69887,0.80434 3.211809,0.61713 4.15803,0.85672 4.1976,1.06286 0.03239,0.16871 -1.224694,1.36197 -3.433979,3.25967 -2.998668,2.57574 -3.560877,2.99166 -4.028266,2.98007 -0.298762,-0.007 -2.257703,-0.34745 -4.353203,-0.75565 z m 12.361334,-3.95566 c 0,-0.32176 4.595484,-13.65164 4.90723,-14.23414 0.180629,-0.33751 0.09595,-0.30524 8.455388,-3.2223 3.205007,-1.1184 5.967258,-2.03345 6.138333,-2.03345 0.176353,0 0.31105,0.12117 0.31105,0.27981 0,0.32612 -4.872995,14.30935 -5.048577,14.48706 -0.17223,0.17432 -14.157723,5.04513 -14.486024,5.04513 -0.159757,0 -0.2774,-0.13661 -0.2774,-0.32211 z M 20.09019,115.7399 c -3.865034,-1.35202 -7.113922,-2.54683 -7.219752,-2.65512 -0.368566,-0.37714 -5.2007242,-14.514153 -5.0221168,-14.69276 0.1130043,-0.113004 2.3063088,0.57288 6.5866448,2.05976 8.17594,2.84011 8.141588,2.82696 8.282344,3.1714 0.715666,1.75128 4.978641,14.22224 4.916752,14.38352 -0.04542,0.11835 -0.180217,0.20984 -0.299558,0.20331 -0.119339,-0.007 -3.37928,-1.11808 -7.244314,-2.47011 z m 7.031874,-6.34811 c -0.04564,-0.12608 -0.238605,-2.66764 -0.42881,-5.6479 -0.190204,-2.98027 -0.409219,-6.333071 -0.4867,-7.450671 -0.07748,-1.117601 -0.105518,-2.127475 -0.06231,-2.244167 0.07565,-0.204312 9.82671,-9.116196 11.030928,-10.08161 0.439948,-0.352703 0.619633,-0.417079 0.708968,-0.254 0.133133,0.243035 0.786101,9.559986 0.92911,13.25711 l 0.0917,2.370667 -5.597866,5.043171 c -3.078826,2.77374 -5.711304,5.08669 -5.849952,5.1399 -0.138649,0.0532 -0.28943,-0.006 -0.33507,-0.1325 z"
         id="path76" />
      <path
         style="fill:#f19d01;stroke-width:0.169333"
         d="m 41.750747,131.86817 c -0.03881,-0.0383 -1.975556,-0.19669 -4.303889,-0.35187 -2.328334,-0.15519 -4.391525,-0.34474 -4.584868,-0.42123 -0.344424,-0.13626 -5.321133,-7.25554 -5.321133,-7.61198 0,-0.2309 -0.02568,-0.23166 4.972433,0.14769 2.315739,0.17577 4.268308,0.38322 4.339043,0.46101 0.404341,0.44466 4.970467,7.26909 5.039009,7.53119 0.07762,0.2968 0.01758,0.40149 -0.140595,0.24519 z m -24.748202,-6.6887 c -2.210436,-0.43987 -4.063287,-0.84407 -4.117447,-0.89823 -0.224275,-0.22427 6.663574,-6.05837 7.153295,-6.05893 0.619765,-6.7e-4 8.592719,1.53647 8.745713,1.68616 0.163373,0.15986 0.02455,0.29028 -3.865664,3.63194 -2.383671,2.04755 -2.963821,2.46807 -3.386666,2.45481 -0.280638,-0.009 -2.318792,-0.37589 -4.529231,-0.81575 z M 29.742191,121.401 c 0,-0.46577 4.801787,-13.9525 5.057394,-14.20464 0.152134,-0.15007 3.253432,-1.30715 6.891774,-2.57129 7.303723,-2.53766 7.524166,-2.60647 7.524166,-2.3488 0,0.28747 -4.748224,13.79881 -4.969889,14.1421 -0.135916,0.21049 -2.498302,1.11259 -7.206025,2.75167 -3.8521,1.34118 -7.069879,2.43851 -7.15062,2.43851 -0.08074,0 -0.1468,-0.0934 -0.1468,-0.20755 z m -9.565235,-5.82333 c -3.81731,-1.34402 -7.033606,-2.53715 -7.147323,-2.6514 -0.113716,-0.11424 -1.286566,-3.29382 -2.606333,-7.06572 -1.3197656,-3.7719 -2.4359736,-6.953248 -2.48046,-7.069665 -0.047588,-0.124534 0.054778,-0.211666 0.248673,-0.211666 0.4584366,0 13.968642,4.716861 14.217827,4.963911 0.195161,0.19349 4.981296,13.6726 5.025255,14.15253 0.01187,0.12968 -0.05461,0.25601 -0.147738,0.28074 -0.09313,0.0247 -3.292589,-1.0547 -7.109901,-2.39873 z m 6.960717,-7.98145 c -0.05948,-0.90805 -0.263927,-3.98988 -0.454325,-6.84851 -0.1904,-2.858631 -0.323002,-5.574188 -0.294669,-6.034572 l 0.05151,-0.837061 5.54783,-5.023086 c 3.051307,-2.762698 5.612003,-4.983426 5.690437,-4.934951 0.07843,0.04847 0.193526,0.83342 0.255759,1.744323 0.380346,5.566953 0.779855,12.098692 0.78114,12.771175 l 0.0015,0.785652 -5.538294,5.01401 c -3.046062,2.75771 -5.627046,5.01402 -5.735521,5.01402 -0.129198,0 -0.234526,-0.56946 -0.30537,-1.651 z m 5.991184,-4.07944 4.995334,-4.538029 -0.04881,-1.596766 c -0.02685,-0.878222 -0.198279,-3.844667 -0.380957,-6.5921 -0.182681,-2.747433 -0.332165,-5.174936 -0.332188,-5.39445 -2.9e-5,-0.285934 -0.07237,-0.371361 -0.255106,-0.301239 -0.140286,0.05383 -2.509224,2.138435 -5.264305,4.63245 l -5.009235,4.534572 0.103423,1.439334 c 0.168199,2.340799 0.769294,11.743168 0.771319,12.064998 0.001,0.16299 0.09711,0.29475 0.213529,0.2928 0.116417,-0.002 2.459567,-2.04565 5.207,-4.54157 z"
         id="path74" />
      <path
         style="fill:#6a7074;stroke-width:0.169333"
         d="m 41.750747,131.86817 c -0.03881,-0.0383 -1.975556,-0.19669 -4.303889,-0.35187 -2.328334,-0.15519 -4.391525,-0.34474 -4.584868,-0.42123 -0.344424,-0.13626 -5.321133,-7.25554 -5.321133,-7.61198 0,-0.2309 -0.02568,-0.23166 4.972433,0.14769 2.315739,0.17577 4.268308,0.38322 4.339043,0.46101 0.404341,0.44466 4.970467,7.26909 5.039009,7.53119 0.07762,0.2968 0.01758,0.40149 -0.140595,0.24519 z m -24.748202,-6.6887 c -2.210436,-0.43987 -4.063287,-0.84407 -4.117447,-0.89823 -0.224275,-0.22427 6.663574,-6.05837 7.153295,-6.05893 0.619765,-6.7e-4 8.592719,1.53647 8.745713,1.68616 0.163373,0.15986 0.02455,0.29028 -3.865664,3.63194 -2.383671,2.04755 -2.963821,2.46807 -3.386666,2.45481 -0.280638,-0.009 -2.318792,-0.37589 -4.529231,-0.81575 z M 29.742191,121.401 c 0,-0.46577 4.801787,-13.9525 5.057394,-14.20464 0.152134,-0.15007 3.253432,-1.30715 6.891774,-2.57129 7.303723,-2.53766 7.524166,-2.60647 7.524166,-2.3488 0,0.28747 -4.748224,13.79881 -4.969889,14.1421 -0.135916,0.21049 -2.498302,1.11259 -7.206025,2.75167 -3.8521,1.34118 -7.069879,2.43851 -7.15062,2.43851 -0.08074,0 -0.1468,-0.0934 -0.1468,-0.20755 z m 6.554423,-2.51108 c 7.452695,-2.59142 7.333586,-2.54525 7.582935,-2.93964 0.241538,-0.38204 4.489309,-12.47723 4.489309,-12.78296 0,-0.10199 -0.100057,-0.18543 -0.22235,-0.18543 -0.281323,0 -12.857949,4.39331 -13.023767,4.5495 -0.162047,0.15265 -4.533884,12.67793 -4.533884,12.98955 0,0.13252 0.07294,0.24095 0.16209,0.24095 0.08915,0 2.584697,-0.84239 5.545667,-1.87197 z m -16.119658,-3.31225 c -3.81731,-1.34402 -7.033606,-2.53715 -7.147323,-2.6514 -0.113716,-0.11424 -1.286566,-3.29382 -2.606333,-7.06572 -1.3197656,-3.7719 -2.4359736,-6.953248 -2.48046,-7.069665 -0.047588,-0.124534 0.054778,-0.211666 0.248673,-0.211666 0.4584366,0 13.968642,4.716861 14.217827,4.963911 0.195161,0.19349 4.981296,13.6726 5.025255,14.15253 0.01187,0.12968 -0.05461,0.25601 -0.147738,0.28074 -0.09313,0.0247 -3.292589,-1.0547 -7.109901,-2.39873 z m 6.960717,-7.98145 c -0.05948,-0.90805 -0.263927,-3.98988 -0.454325,-6.84851 -0.1904,-2.858631 -0.323002,-5.574188 -0.294669,-6.034572 l 0.05151,-0.837061 5.54783,-5.023086 c 3.051307,-2.762698 5.612003,-4.983426 5.690437,-4.934951 0.07843,0.04847 0.193526,0.83342 0.255759,1.744323 0.380346,5.566953 0.779855,12.098692 0.78114,12.771175 l 0.0015,0.785652 -5.538294,5.01401 c -3.046062,2.75771 -5.627046,5.01402 -5.735521,5.01402 -0.129198,0 -0.234526,-0.56946 -0.30537,-1.651 z m 5.991184,-4.07944 4.995334,-4.538029 -0.04881,-1.596766 c -0.02685,-0.878222 -0.198279,-3.844667 -0.380957,-6.5921 -0.182681,-2.747433 -0.332165,-5.174936 -0.332188,-5.39445 -2.9e-5,-0.285934 -0.07237,-0.371361 -0.255106,-0.301239 -0.140286,0.05383 -2.509224,2.138435 -5.264305,4.63245 l -5.009235,4.534572 0.103423,1.439334 c 0.168199,2.340799 0.769294,11.743168 0.771319,12.064998 0.001,0.16299 0.09711,0.29475 0.213529,0.2928 0.116417,-0.002 2.459567,-2.04565 5.207,-4.54157 z"
         id="path72" />
      <path
         style="fill:#23318a;stroke-width:0.169333"
         d="m 36.621447,131.25597 c -2.130376,-0.1637 -3.921076,-0.36742 -3.979333,-0.45271 -3.891981,-5.69789 -4.76259,-7.00639 -4.76259,-7.15807 0,-0.1223 0.352606,-0.15151 1.058333,-0.0877 0.582084,0.0526 2.540112,0.20577 4.351175,0.34027 2.154136,0.15997 3.363171,0.31881 3.49622,0.45932 0.307083,0.32429 4.636254,6.6942 4.748673,6.98716 0.117927,0.30731 0.272067,0.31008 -4.912478,-0.0883 z m -23.304591,-7.20619 c 0,-0.14747 0.09049,-0.23795 0.201084,-0.20109 0.313981,0.10466 0.366058,0.4692 0.06703,0.4692 -0.147461,0 -0.268111,-0.12065 -0.268111,-0.26811 z m 14.66389,-3.75112 c -0.1817,-0.1817 -0.106575,-0.38344 0.142784,-0.38344 0.134203,0 0.286166,0.0682 0.337694,0.15159 0.107732,0.17431 -0.327836,0.3845 -0.480478,0.23185 z m -7.789247,-4.95082 c -3.623048,-1.27925 -6.714697,-2.40544 -6.870332,-2.50263 -0.165132,-0.10313 -0.832586,-1.75293 -1.60277,-3.96169 -0.725888,-2.08173 -1.80984,-5.18467 -2.4087822,-6.89541 -0.598942,-1.71074 -1.0572548,-3.142173 -1.018473,-3.180955 0.038782,-0.03878 0.4805822,0.08045 0.9817801,0.26496 0.5011963,0.18451 3.5782671,1.261265 6.8379341,2.392775 3.259667,1.13152 6.016307,2.14529 6.125868,2.25282 0.155957,0.15307 4.965466,13.64154 4.965466,13.92586 0,0.16115 -0.722343,-0.0754 -7.010691,-2.29573 z"
         id="path70" />
      <path
         style="fill:#00673a;stroke-width:0.169333"
         d="m 19.881165,115.1177 c -3.514332,-1.23014 -6.495476,-2.34939 -6.624768,-2.48722 -0.244632,-0.26078 -4.6808744,-12.862057 -4.6808744,-13.29616 0,-0.135906 0.1000914,-0.247101 0.2224261,-0.247101 0.183559,0 10.1259743,3.418891 12.6065063,4.334991 0.396881,0.14657 0.799178,0.41145 0.893992,0.58861 0.253603,0.47386 4.565077,12.88956 4.565077,13.14599 0,0.12013 -0.13335,0.21371 -0.296334,0.20796 -0.162983,-0.006 -3.171694,-1.01692 -6.686025,-2.24707 z"
         id="path68" />
    </g>
  </g>
</svg>
