<?xml version='1.0' encoding='UTF-8' standalone='no'?>
<svg width="90.894058mm" xmlns:sodipodi="http://sodipodi.sourceforge.net/DTD/sodipodi-0.dtd" sodipodi:docname="Stopschild.svg" version="1.1" inkscape:export-ydpi="500" viewBox="0 0 90.89406 100" xmlns:dc="http://purl.org/dc/elements/1.1/" xmlns:svg="http://www.w3.org/2000/svg" height="100mm" xmlns:rdf="http://www.w3.org/1999/02/22-rdf-syntax-ns#" inkscape:export-xdpi="500" xmlns:inkscape="http://www.inkscape.org/namespaces/inkscape" xmlns:cc="http://creativecommons.org/ns#" inkscape:version="1.1 (c68e22c387, 2021-05-23)" id="svg8" inkscape:export-filename="C:\#PHILLIP\SENSO-Trail\Logos\SENSO-Trail_Verslassen.png" xmlns="http://www.w3.org/2000/svg">
 <defs id="defs2">
  <pattern width="6" x="0" height="6" patternUnits="userSpaceOnUse" y="0" id="WMFhbasepattern"/>
  <clipPath clipPathUnits="userSpaceOnUse" id="clipPath1742">
   <rect width="50.387119" x="703.46558" style="opacity:0.431;fill:#203864;fill-opacity:1;stroke:#203864;stroke-width:0.44680217;stroke-miterlimit:4;stroke-dasharray:none;stroke-opacity:1" height="48.358841" y="-38.351192" id="rect1744"/>
  </clipPath>
  <clipPath clipPathUnits="userSpaceOnUse" id="clipPath1781">
   <rect width="104.21924" x="623.88123" style="opacity:0.431;fill:#203864;fill-opacity:1;stroke:#203864;stroke-width:0.46499997;stroke-miterlimit:4;stroke-dasharray:none;stroke-opacity:1" height="104.21924" y="210.94745" id="rect1783"/>
  </clipPath>
  <clipPath clipPathUnits="userSpaceOnUse" id="clipPath1802">
   <rect width="175.41483" x="666.9259" style="opacity:0.431;fill:#203864;fill-opacity:1;stroke:#203864;stroke-width:0.5018211;stroke-miterlimit:4;stroke-dasharray:none;stroke-opacity:1" height="175.41483" y="-39.064716" id="rect1804"/>
  </clipPath>
  <clipPath clipPathUnits="userSpaceOnUse" id="clipPath1806">
   <rect width="201.63367" x="677.48096" style="opacity:0.431;fill:#203864;fill-opacity:1;stroke:#203864;stroke-width:0.57682711;stroke-miterlimit:4;stroke-dasharray:none;stroke-opacity:1" height="201.63367" y="-290.01392" id="rect1808"/>
  </clipPath>
  <pattern width="6" x="0" height="6" patternUnits="userSpaceOnUse" y="0" id="WMFhbasepattern-7"/>
  <clipPath clipPathUnits="userSpaceOnUse" id="clipPath1742-0">
   <rect width="50.387119" x="703.46558" style="opacity:0.431;fill:#203864;fill-opacity:1;stroke:#203864;stroke-width:0.44680217;stroke-miterlimit:4;stroke-dasharray:none;stroke-opacity:1" height="48.358841" y="-38.351192" id="rect1744-6"/>
  </clipPath>
  <clipPath clipPathUnits="userSpaceOnUse" id="clipPath1781-7">
   <rect width="104.21924" x="623.88123" style="opacity:0.431;fill:#203864;fill-opacity:1;stroke:#203864;stroke-width:0.46499997;stroke-miterlimit:4;stroke-dasharray:none;stroke-opacity:1" height="104.21924" y="210.94745" id="rect1783-2"/>
  </clipPath>
  <clipPath clipPathUnits="userSpaceOnUse" id="clipPath1802-7">
   <rect width="175.41483" x="666.9259" style="opacity:0.431;fill:#203864;fill-opacity:1;stroke:#203864;stroke-width:0.5018211;stroke-miterlimit:4;stroke-dasharray:none;stroke-opacity:1" height="175.41483" y="-39.064716" id="rect1804-2"/>
  </clipPath>
  <clipPath clipPathUnits="userSpaceOnUse" id="clipPath1806-0">
   <rect width="201.63367" x="677.48096" style="opacity:0.431;fill:#203864;fill-opacity:1;stroke:#203864;stroke-width:0.57682711;stroke-miterlimit:4;stroke-dasharray:none;stroke-opacity:1" height="201.63367" y="-290.01392" id="rect1808-3"/>
  </clipPath>
 </defs>
 <sodipodi:namedview inkscape:window-height="1346" inkscape:snap-page="false" fit-margin-right="0" units="mm" inkscape:snap-grids="false" fit-margin-top="0" inkscape:cy="126.48793" inkscape:snap-global="true" inkscape:document-units="mm" bordercolor="#666666" inkscape:snap-text-baseline="false" inkscape:window-x="2869" inkscape:snap-others="false" inkscape:snap-nodes="false" inkscape:zoom="1.5653667" inkscape:window-width="2560" inkscape:snap-to-guides="false" id="base" showguides="false" fit-margin-bottom="0" inkscape:pagecheckerboard="0" pagecolor="#ffffff" inkscape:pageopacity="0.0" inkscape:current-layer="layer1" inkscape:pageshadow="2" borderopacity="1.0" inkscape:window-maximized="1" inkscape:window-y="-11" inkscape:cx="72.506972" inkscape:document-rotation="0" showgrid="false" fit-margin-left="0"/>
 <metadata id="metadata5">
  <rdf:RDF>
   <cc:Work rdf:about="">
    <dc:format>image/svg+xml</dc:format>
    <dc:type rdf:resource="http://purl.org/dc/dcmitype/StillImage"/>
   </cc:Work>
  </rdf:RDF>
 </metadata>
 <g inkscape:groupmode="layer" transform="translate(506.16129,133.28624)" inkscape:label="Ebene 1" id="layer1">
  <g transform="matrix(0.35277777,0,0,0.35277777,0,79.327084)" id="surface954865"/>
  <flowRoot xml:space="preserve" style="font-style:normal;font-weight:normal;font-size:40px;line-height:1.25;font-family:sans-serif;letter-spacing:0px;word-spacing:0px;fill:#000000;fill-opacity:1;stroke:none" id="flowRoot5013">
   <flowRegion id="flowRegion5015">
    <rect width="685.34662" x="9.375001" height="988.47095" y="356.15161" id="rect5017"/>
   </flowRegion>
   <flowPara id="flowPara5019"/>
  </flowRoot>
  <flowRoot xml:space="preserve" style="font-style:normal;font-weight:normal;font-size:40px;line-height:1.25;font-family:sans-serif;letter-spacing:0px;word-spacing:0px;fill:#000000;fill-opacity:1;stroke:none" id="flowRoot5021">
   <flowRegion id="flowRegion5023">
    <rect width="662.93628" x="9.375001" height="932.44501" y="356.15161" id="rect5025"/>
   </flowRegion>
   <flowPara id="flowPara5027"/>
  </flowRoot>
  <flowRoot xml:space="preserve" style="font-style:normal;font-variant:normal;font-weight:normal;font-stretch:normal;font-size:27.5907px;line-height:1.25;font-family:Arial;-inkscape-font-specification:'Arial, Normal';font-variant-ligatures:normal;font-variant-caps:normal;font-variant-numeric:normal;font-feature-settings:normal;text-align:justify;letter-spacing:0px;word-spacing:0px;writing-mode:lr-tb;text-anchor:start;fill:#000000;fill-opacity:1;stroke:none" transform="matrix(0.28132582,0,0,0.28126314,-15.738327,-154.22208)" id="flowRoot5040">
   <flowRegion style="font-style:normal;font-variant:normal;font-weight:normal;font-stretch:normal;font-size:27.5907px;font-family:Arial;-inkscape-font-specification:'Arial, Normal';font-variant-ligatures:normal;font-variant-caps:normal;font-variant-numeric:normal;font-feature-settings:normal;text-align:justify;writing-mode:lr-tb;text-anchor:start" id="flowRegion5042">
    <rect width="590.13989" x="82.171379" style="font-style:normal;font-variant:normal;font-weight:normal;font-stretch:normal;font-size:27.59069824px;font-family:Arial;-inkscape-font-specification:'Arial, Normal';font-variant-ligatures:normal;font-variant-caps:normal;font-variant-numeric:normal;font-feature-settings:normal;text-align:justify;writing-mode:lr-tb;text-anchor:start" height="903.88513" y="377.24136" id="rect5044"/>
   </flowRegion>
   <flowPara id="flowPara1212"/>
  </flowRoot>
  <flowRoot xml:space="preserve" style="font-style:normal;font-variant:normal;font-weight:normal;font-stretch:normal;font-size:26.6667px;line-height:1.25;font-family:sans-serif;-inkscape-font-specification:'sans-serif, Normal';font-variant-ligatures:normal;font-variant-caps:normal;font-variant-numeric:normal;font-feature-settings:normal;text-align:start;letter-spacing:0px;word-spacing:0px;writing-mode:lr-tb;text-anchor:start;fill:#000000;fill-opacity:1;stroke:none" transform="matrix(0.26458333,0,0,0.26458333,358.2384,-159.72574)" id="flowRoot5054">
   <flowRegion style="font-style:normal;font-variant:normal;font-weight:normal;font-stretch:normal;font-size:26.6667px;font-family:sans-serif;-inkscape-font-specification:'sans-serif, Normal';font-variant-ligatures:normal;font-variant-caps:normal;font-variant-numeric:normal;font-feature-settings:normal;text-align:start;writing-mode:lr-tb;text-anchor:start" id="flowRegion5056">
    <rect width="625.0166" x="59.761002" style="font-style:normal;font-variant:normal;font-weight:normal;font-stretch:normal;font-size:26.66666794px;font-family:sans-serif;-inkscape-font-specification:'sans-serif, Normal';font-variant-ligatures:normal;font-variant-caps:normal;font-variant-numeric:normal;font-feature-settings:normal;text-align:start;writing-mode:lr-tb;text-anchor:start" height="140.53827" y="1292.3317" id="rect5058"/>
   </flowRegion>
   <flowPara id="flowPara5270"/>
  </flowRoot>
  <flowRoot xml:space="preserve" style="font-style:normal;font-weight:normal;font-size:40px;line-height:1.25;font-family:sans-serif;letter-spacing:0px;word-spacing:0px;fill:#000000;fill-opacity:1;stroke:none" id="flowRoot5106">
   <flowRegion id="flowRegion5108">
    <rect width="218.05064" x="723.18512" height="364.08939" y="984.26825" id="rect5110"/>
   </flowRegion>
   <flowPara id="flowPara5112"/>
  </flowRoot>
  <flowRoot xml:space="preserve" style="font-style:normal;font-weight:normal;font-size:40px;line-height:1.25;font-family:sans-serif;letter-spacing:0px;word-spacing:0px;fill:#000000;fill-opacity:1;stroke:none" id="flowRoot5114">
   <flowRegion id="flowRegion5116">
    <rect width="218.05064" x="723.18512" height="323.00369" y="984.26825" id="rect5118"/>
   </flowRegion>
   <flowPara id="flowPara5120"/>
  </flowRoot>
  <flowRoot xml:space="preserve" style="font-style:normal;font-variant:normal;font-weight:normal;font-stretch:normal;font-size:40px;line-height:1.25;font-family:sans-serif;-inkscape-font-specification:'sans-serif, Normal';font-variant-ligatures:normal;font-variant-caps:normal;font-variant-numeric:normal;font-feature-settings:normal;text-align:start;letter-spacing:0px;word-spacing:0px;writing-mode:lr-tb;text-anchor:start;fill:#000000;fill-opacity:1;stroke:none" id="flowRoot5133">
   <flowRegion style="font-style:normal;font-variant:normal;font-weight:normal;font-stretch:normal;font-size:40px;font-family:sans-serif;-inkscape-font-specification:'sans-serif, Normal';font-variant-ligatures:normal;font-variant-caps:normal;font-variant-numeric:normal;font-feature-settings:normal;text-align:start;writing-mode:lr-tb;text-anchor:start" id="flowRegion5135">
    <rect width="154.55458" x="723.18512" style="font-style:normal;font-variant:normal;font-weight:normal;font-stretch:normal;font-size:40px;font-family:sans-serif;-inkscape-font-specification:'sans-serif, Normal';font-variant-ligatures:normal;font-variant-caps:normal;font-variant-numeric:normal;font-feature-settings:normal;text-align:start;writing-mode:lr-tb;text-anchor:start" height="240.83232" y="984.26825" id="rect5137"/>
   </flowRegion>
   <flowPara id="flowPara5141">Autonome Drohnen fahren in regelmäßigen Abständen in die Baumkrone, um Video- und Audioaufnahmen zu erfassen. </flowPara>
   <flowPara id="flowPara5143"/>
  </flowRoot>
  <flowRoot xml:space="preserve" style="font-style:normal;font-variant:normal;font-weight:normal;font-stretch:normal;font-size:40px;line-height:1.25;font-family:sans-serif;-inkscape-font-specification:'sans-serif, Normal';font-variant-ligatures:normal;font-variant-caps:normal;font-variant-numeric:normal;font-feature-settings:normal;text-align:start;letter-spacing:0px;word-spacing:0px;writing-mode:lr-tb;text-anchor:start;fill:#000000;fill-opacity:1;stroke:none" id="flowRoot5145">
   <flowRegion style="font-style:normal;font-variant:normal;font-weight:normal;font-stretch:normal;font-size:40px;font-family:sans-serif;-inkscape-font-specification:'sans-serif, Normal';font-variant-ligatures:normal;font-variant-caps:normal;font-variant-numeric:normal;font-feature-settings:normal;text-align:start;writing-mode:lr-tb;text-anchor:start" id="flowRegion5147">
    <rect width="140.92822" x="773.15796" style="font-style:normal;font-variant:normal;font-weight:normal;font-stretch:normal;font-size:40px;font-family:sans-serif;-inkscape-font-specification:'sans-serif, Normal';font-variant-ligatures:normal;font-variant-caps:normal;font-variant-numeric:normal;font-feature-settings:normal;text-align:start;writing-mode:lr-tb;text-anchor:start" height="333.99677" y="1090.6383" id="rect5149"/>
   </flowRegion>
   <flowPara id="flowPara5153">Autonome Drohnen fahren in regelmäßigen Abständen in die Baumkrone, um Video- und Audioaufnahmen zu erfassen. </flowPara>
   <flowPara id="flowPara5155"/>
  </flowRoot>
  <flowRoot xml:space="preserve" style="font-style:normal;font-weight:normal;font-size:40px;line-height:1.25;font-family:sans-serif;letter-spacing:0px;word-spacing:0px;fill:#000000;fill-opacity:1;stroke:none" id="flowRoot1214">
   <flowRegion id="flowRegion1216">
    <rect width="699.88824" x="5.2822514" height="1077.564" y="293.26843" id="rect1218"/>
   </flowRegion>
   <flowPara id="flowPara1220"/>
  </flowRoot>
  <flowRoot xml:space="preserve" style="font-style:normal;font-weight:normal;font-size:40px;line-height:1.25;font-family:sans-serif;letter-spacing:0px;word-spacing:0px;fill:#000000;fill-opacity:1;stroke:none" id="flowRoot1222">
   <flowRegion id="flowRegion1224">
    <rect width="318.1199" x="9.375001" height="254.04738" y="356.15161" id="rect1226"/>
   </flowRegion>
   <flowPara id="flowPara1228"/>
  </flowRoot>
  <flowRoot xml:space="preserve" style="font-style:normal;font-weight:normal;font-size:40px;line-height:1.25;font-family:sans-serif;letter-spacing:0px;word-spacing:0px;fill:#000000;fill-opacity:1;stroke:none" id="flowRoot1230">
   <flowRegion id="flowRegion1232">
    <rect width="320.76102" x="9.375001" height="219.71324" y="356.15161" id="rect1234"/>
   </flowRegion>
   <flowPara id="flowPara1236"/>
  </flowRoot>
  <flowRoot xml:space="preserve" style="font-style:normal;font-weight:normal;font-size:40px;line-height:1.25;font-family:sans-serif;letter-spacing:0px;word-spacing:0px;fill:#000000;fill-opacity:1;stroke:none" id="flowRoot1238">
   <flowRegion id="flowRegion1240">
    <rect width="283.78577" x="9.375001" height="359.69092" y="356.15161" id="rect1242"/>
   </flowRegion>
   <flowPara id="flowPara1244"/>
  </flowRoot>
  <flowRoot xml:space="preserve" style="font-style:normal;font-variant:normal;font-weight:normal;font-stretch:normal;font-size:39.9994px;line-height:1.25;font-family:sans-serif;-inkscape-font-specification:'sans-serif, Normal';font-variant-ligatures:normal;font-variant-caps:normal;font-variant-numeric:normal;font-feature-settings:normal;text-align:start;letter-spacing:0px;word-spacing:0px;writing-mode:lr-tb;text-anchor:start;fill:#000000;fill-opacity:1;stroke:none" transform="matrix(0.27833157,0,0,0.31415783,-9.5498046,-150.56984)" id="flowRoot1246">
   <flowRegion style="font-style:normal;font-variant:normal;font-weight:normal;font-stretch:normal;font-size:39.9994px;font-family:sans-serif;-inkscape-font-specification:'sans-serif, Normal';font-variant-ligatures:normal;font-variant-caps:normal;font-variant-numeric:normal;font-feature-settings:normal;text-align:start;writing-mode:lr-tb;text-anchor:start" id="flowRegion1248">
    <rect width="618.01459" x="66.027199" style="font-style:normal;font-variant:normal;font-weight:normal;font-stretch:normal;font-size:39.99942017px;font-family:sans-serif;-inkscape-font-specification:'sans-serif, Normal';font-variant-ligatures:normal;font-variant-caps:normal;font-variant-numeric:normal;font-feature-settings:normal;text-align:start;writing-mode:lr-tb;text-anchor:start" height="934.94519" y="322.3204" id="rect1250"/>
   </flowRegion>
   <flowPara id="flowPara1266"/>
   <flowPara id="flowPara1268"/>
   <flowPara id="flowPara1270"/>
  </flowRoot>
  <flowRoot xml:space="preserve" style="font-style:normal;font-weight:normal;font-size:40px;line-height:1.25;font-family:sans-serif;letter-spacing:0px;word-spacing:0px;fill:#000000;fill-opacity:1;stroke:none" id="flowRoot1272">
   <flowRegion id="flowRegion1274">
    <rect width="666.74353" x="9.375001" height="993.55206" y="356.15161" id="rect1276"/>
   </flowRegion>
   <flowPara id="flowPara1278"/>
  </flowRoot>
  <flowRoot xml:space="preserve" style="font-style:normal;font-weight:normal;font-size:40px;line-height:1.25;font-family:sans-serif;letter-spacing:0px;word-spacing:0px;fill:#000000;fill-opacity:1;stroke:none" id="flowRoot1280">
   <flowRegion id="flowRegion1282">
    <rect width="642.97375" x="9.375001" height="1016.316" y="298.5506" id="rect1284"/>
   </flowRegion>
   <flowPara id="flowPara1286"/>
  </flowRoot>
  <flowRoot xml:space="preserve" style="font-style:normal;font-weight:normal;font-size:40px;line-height:1.25;font-family:sans-serif;letter-spacing:0px;word-spacing:0px;fill:#000000;fill-opacity:1;stroke:none" id="flowRoot5071">
   <flowRegion id="flowRegion5073">
    <rect width="475.39584" x="1732.5537" height="155.82419" y="359.29562" id="rect5075"/>
   </flowRegion>
   <flowPara id="flowPara5077"/>
  </flowRoot>
  <flowRoot xml:space="preserve" style="font-style:normal;font-weight:normal;font-size:40px;line-height:1.25;font-family:sans-serif;letter-spacing:0px;word-spacing:0px;fill:#000000;fill-opacity:1;stroke:none" id="flowRoot5121">
   <flowRegion id="flowRegion5123">
    <rect width="631.22003" x="76.591553" height="221.85139" y="309.11496" id="rect5125"/>
   </flowRegion>
   <flowPara id="flowPara5127"/>
  </flowRoot>
  <path d="m 137.48714,58.090969 c -1.63039,2.823914 -24.97836,16.303875 -28.23914,16.303875 -3.26077,0 -26.608751,-13.479961 -28.239139,-16.303875 -1.630387,-2.823914 -1.630387,-29.783836 0,-32.60775 C 82.639249,22.659305 105.98723,9.1793442 109.248,9.1793442 c 3.26078,0 26.60875,13.4799608 28.23914,16.3038748 1.63039,2.823914 1.63039,29.783836 0,32.60775 z" inkscape:randomized="0" sodipodi:sides="6" sodipodi:cx="109.248" style="opacity:1;fill:#f50008;fill-opacity:1;fill-rule:evenodd;stroke:#333333;stroke-width:2.06622;stroke-miterlimit:4;stroke-dasharray:none;stroke-dashoffset:0;stroke-opacity:1" sodipodi:type="star" transform="matrix(-1.4521482,0,0,-1.4517062,-302.06997,-22.623651)" sodipodi:r2="28.23914" sodipodi:cy="41.787094" sodipodi:arg2="1.0471976" sodipodi:r1="32.60775" inkscape:flatsided="true" sodipodi:arg1="0.52359878" inkscape:rounded="0.1" id="path816"/>
  <g transform="matrix(1.0917587,0,0,1.0917587,42.011495,25.543669)" id="g1641">
   <g style="fill:#333333;fill-opacity:1;stroke-width:6.13395" transform="matrix(0.1032363,0,0,0.1032363,-496.69556,-79.407424)" id="use5541-1">
    <path inkscape:connector-curvature="0" d="M 69.234375,-11.734375 C 69.234375,-3.910156 65.351563,0 57.59375,0 H 18.953125 c -7.710937,0 -11.5625,-3.910156 -11.5625,-11.734375 v -30.59375 h 19.1875 v 26.171875 h 23.46875 v -25.1875 L 11.5625,-77.765625 c -2.78125,-2.675781 -4.171875,-6.09375 -4.171875,-10.25 V -116.5625 c 0,-7.875 3.851563,-11.8125 11.5625,-11.8125 H 57.59375 c 7.757813,0 11.640625,3.88281 11.640625,11.64062 v 28.718755 h -19.1875 V -112.21875 H 26.578125 V -89 l 38.46875,36.25 c 2.789063,2.625 4.1875,6.101562 4.1875,10.421875 z m 0,0" style="fill:#333333;fill-opacity:1;stroke:none;stroke-width:6.13395" id="path368-7"/>
   </g>
   <g style="fill:#333333;fill-opacity:1;stroke-width:6.13395" transform="matrix(0.1032363,0,0,0.1032363,-488.76949,-79.407424)" id="use5543-7">
    <path inkscape:connector-curvature="0" d="M 60.953125,0 H 7.71875 v -128.375 h 52.734375 v 16.96875 H 26.90625 v 37.5 h 28.875 v 16.640625 h -28.875 v 40.28125 h 34.046875 z m 0,0" style="fill:#333333;fill-opacity:1;stroke:none;stroke-width:6.13395" id="path408-5"/>
   </g>
   <g style="fill:#333333;fill-opacity:1;stroke-width:6.13395" transform="matrix(0.1032363,0,0,0.1032363,-481.91873,-79.407424)" id="use5545-7">
    <path inkscape:connector-curvature="0" d="m 72.765625,0 h -16.8125 L 25.1875,-80.796875 c 0.820313,3.9375 1.234375,7.027344 1.234375,9.265625 V 0 H 7.71875 v -128.375 h 16.8125 l 30.765625,79.15625 C 54.472656,-53.15625 54.0625,-56.242188 54.0625,-58.484375 V -128.375 h 18.703125 z m 0,0" style="fill:#333333;fill-opacity:1;stroke:none;stroke-width:6.13395" id="path420-4"/>
   </g>
   <g style="fill:#333333;fill-opacity:1;stroke-width:6.13395" transform="matrix(0.1032363,0,0,0.1032363,-473.6111,-79.407424)" id="use5547-6">
    <path inkscape:connector-curvature="0" d="M 69.234375,-11.734375 C 69.234375,-3.910156 65.351563,0 57.59375,0 H 18.953125 c -7.710937,0 -11.5625,-3.910156 -11.5625,-11.734375 v -30.59375 h 19.1875 v 26.171875 h 23.46875 v -25.1875 L 11.5625,-77.765625 c -2.78125,-2.675781 -4.171875,-6.09375 -4.171875,-10.25 V -116.5625 c 0,-7.875 3.851563,-11.8125 11.5625,-11.8125 H 57.59375 c 7.757813,0 11.640625,3.88281 11.640625,11.64062 v 28.718755 h -19.1875 V -112.21875 H 26.578125 V -89 l 38.46875,36.25 c 2.789063,2.625 4.1875,6.101562 4.1875,10.421875 z m 0,0" style="fill:#333333;fill-opacity:1;stroke:none;stroke-width:6.13395" id="path372-1"/>
   </g>
   <g style="fill:#333333;fill-opacity:1;stroke-width:6.13395" transform="matrix(0.1032363,0,0,0.1032363,-457.39701,-79.407424)" id="use5553-8">
    <path inkscape:connector-curvature="0" d="m 45.359375,-40.859375 h -39.125 V -58 h 39.125 z m 0,0" style="fill:#333333;fill-opacity:1;stroke:none;stroke-width:6.13395" id="path284-9"/>
   </g>
   <g style="fill:#333333;fill-opacity:1;stroke-width:6.13395" transform="matrix(0.1032363,0,0,0.1032363,-452.05763,-79.407424)" id="use5557-8">
    <path inkscape:connector-curvature="0" d="M 63.5,-111.40625 H 42.328125 V 0 H 23.21875 V -111.40625 H 2.046875 V -128.375 H 63.5 Z m 0,0" style="fill:#333333;fill-opacity:1;stroke:none;stroke-width:6.13395" id="path376-3"/>
   </g>
   <g style="fill:#333333;fill-opacity:1;stroke-width:6.13395" transform="matrix(0.1032363,0,0,0.1032363,-445.29359,-79.407424)" id="use5559-3">
    <path inkscape:connector-curvature="0" d="m 58.984375,-48.234375 h -18.625 V -67.1875 l -14.84375,0.328125 V 0 H 6.734375 v -82.859375 h 18.78125 v 3.046875 c 3.882813,-0.71875 7.738281,-1.429688 11.5625,-2.140625 4.644531,-0.820313 8.53125,-1.234375 11.65625,-1.234375 6.832031,0 10.25,3.367187 10.25,10.09375 z m 0,0" style="fill:#333333;fill-opacity:1;stroke:none;stroke-width:6.13395" id="path324-0"/>
   </g>
   <g style="fill:#333333;fill-opacity:1;stroke-width:6.13395" transform="matrix(0.1032363,0,0,0.1032363,-439.08723,-79.407424)" id="use5561-5">
    <path inkscape:connector-curvature="0" d="M 60.125,0 H 42.171875 v -2.875 c -4.273437,0.65625 -8.539062,1.3125 -12.796875,1.96875 -5.585937,0.8242187 -9.824219,1.234375 -12.71875,1.234375 -6.835937,0 -10.25,-3.363281 -10.25,-10.09375 V -39.625 c 0,-6.832031 3.523438,-10.25 10.578125,-10.25 h 25.34375 v -19.03125 h -17.96875 v 11.8125 H 7.390625 v -15.5 c 0,-6.84375 3.523438,-10.265625 10.578125,-10.265625 h 31.75 c 6.9375,0 10.40625,3.421875 10.40625,10.265625 z M 42.328125,-14.9375 v -22.21875 h -17.96875 v 22.875 z m 0,0" style="fill:#333333;fill-opacity:1;stroke:none;stroke-width:6.13395" id="path380-4"/>
   </g>
   <g style="fill:#333333;fill-opacity:1;stroke-width:6.13395" transform="matrix(0.1032363,0,0,0.1032363,-427.66433,-79.407424)" id="use5565-4">
    <path inkscape:connector-curvature="0" d="M 25.671875,0 H 7.21875 v -128.375 h 18.453125 z m 0,0" style="fill:#333333;fill-opacity:1;stroke:none;stroke-width:6.13395" id="path280-6"/>
   </g>
   <path inkscape:connector-curvature="0" d="m -429.41852,-79.457605 c 0.10512,-0.03752 0.18022,-0.105135 0.22528,-0.21027 0.03,-0.06009 0.0376,-0.255333 0.0376,-1.554523 0,-0.818566 0,-1.494445 0.008,-1.50946 0.015,-0.03004 0.12767,-0.03004 0.62331,-0.0225 0.41304,0 0.60076,0 0.60076,-0.02257 0,-0.0075 -0.0451,-0.165219 -0.11262,-0.337943 -0.0601,-0.180234 -0.17273,-0.510666 -0.25534,-0.735956 -0.0751,-0.232802 -0.24031,-0.698411 -0.36047,-1.036347 -0.21028,-0.600779 -0.52569,-1.50946 -0.66839,-1.930012 l -0.0676,-0.202759 0.0525,-0.06009 c 0.12768,-0.135177 0.18024,-0.06009 0.41306,0.585759 0.11263,0.292878 0.29288,0.796034 0.40554,1.111445 0.11262,0.315411 0.23278,0.638333 0.26282,0.713431 0.12016,0.345447 0.32291,0.465603 0.56325,0.337936 0.10514,-0.06009 0.19523,-0.202765 0.19523,-0.315411 0,-0.03004 -0.0976,-0.337935 -0.22528,-0.675878 -0.12768,-0.337943 -0.24032,-0.653347 -0.25534,-0.69841 -0.0601,-0.187745 -0.57073,-1.554517 -0.61579,-1.659658 -0.0601,-0.127667 -0.2178,-0.270348 -0.34545,-0.330426 -0.25534,-0.105135 -0.37551,-0.120155 -1.36678,-0.105135 -0.86361,0.0075 -0.94623,0.0075 -1.10394,0.05254 -0.40553,0.112646 -0.6083,0.307901 -0.69839,0.660858 -0.0224,0.09762 -0.0301,0.420546 -0.0301,1.644637 0,1.501955 0,1.516977 0.0451,1.584565 0.17275,0.225291 0.50316,0.21778 0.62332,-0.0225 0.0376,-0.06756 0.0376,-0.180233 0.0376,-1.411842 0,-1.028829 0.007,-1.351751 0.03,-1.389304 0.0375,-0.0826 0.15771,-0.09011 0.21779,-0.03004 l 0.0451,0.04507 v 3.612202 3.612195 l 0.0525,0.09763 c 0.0901,0.187745 0.38302,0.285369 0.56323,0.187745 0.15021,-0.0751 0.15021,-0.120156 0.15021,-1.794835 0,-1.689701 -0.0224,-1.516977 0.22528,-1.50946 0.0976,0.0075 0.13519,0.01502 0.15021,0.04506 0.007,0.01502 0.007,0.698403 0.007,1.51697 -0.007,1.314211 0,1.494445 0.03,1.554523 0.0976,0.195256 0.32294,0.277865 0.54071,0.202766 z m -0.49565,-8.981679 c 0.23279,-0.0751 0.47312,-0.30039 0.55571,-0.51817 0.0676,-0.17273 0.0676,-0.413034 0,-0.593276 -0.0676,-0.180235 -0.25532,-0.375489 -0.45059,-0.465603 -0.12764,-0.06756 -0.17271,-0.07509 -0.35295,-0.08261 -0.1652,-0.0075 -0.21026,0 -0.2403,0.03004 -0.015,0.01502 -0.0376,0.03752 -0.0525,0.03752 -0.0451,0 -0.30038,0.187745 -0.36797,0.277866 -0.21029,0.30039 -0.21029,0.720936 0.015,1.021325 0.0451,0.06009 0.0901,0.112652 0.0976,0.112652 0.015,0 0.0676,0.03752 0.12767,0.0826 0.0525,0.03759 0.11266,0.0751 0.13519,0.0751 0.015,0 0.03,0.01502 0.0375,0.03004 0.015,0.04507 0.34545,0.04507 0.49566,-0.0075 z" style="display:inline;fill:#333333;fill-opacity:1;fill-rule:nonzero;stroke:none;stroke-width:0.575811" id="path10864-1-0"/>
   <path inkscape:connector-curvature="0" d="m -465.14483,-85.958517 c 0,-3.339116 0.0217,-6.155066 0.0482,-6.253914 0.0241,-0.09885 0.17118,-0.243499 0.32547,-0.323057 0.42915,-0.216985 5.89469,-0.130188 6.30455,0.09885 0.42673,0.238681 0.40021,-0.262789 0.38333,7.297832 -0.01,4.235975 -0.0578,5.238914 -0.27002,5.46795 -0.21216,0.229036 -0.72569,0.27726 -2.78702,0.260383 -3.0498,-0.02651 -3.70557,-0.07715 -3.87675,-0.301368 -0.0699,-0.09643 -0.12777,-2.905146 -0.12777,-6.246673 z m 3.50306,4.894154 c 1.57915,0.01448 2.3496,-0.0047 2.393,-0.04343 0.082,-0.06992 0.094,-0.995707 0.0916,-7.206221 v -2.873806 l -2.35684,-0.03378 c -1.60566,-0.0193 -2.40264,0.0047 -2.45809,0.05302 -0.10608,0.0892 -0.14465,9.855811 -0.041,9.995643 0.0338,0.04337 0.79215,0.09162 2.3713,0.108493 z m 0.0627,-10.709279 c 0.56415,-0.0028 0.98847,-0.05547 0.94267,-0.115725 -0.094,-0.125362 -1.79613,-0.154296 -1.93597,-0.03378 -0.16394,0.139834 -0.0458,0.15671 0.9933,0.149478 z" style="fill:#333333;fill-opacity:1;fill-rule:nonzero;stroke:none;stroke-width:0.184857" sodipodi:nodetypes="sccccsccscccccccccccc" id="path10848-7-8"/>
   <ellipse cy="-80.212349" ry="0.52038908" style="opacity:1;fill:#333333;fill-opacity:1;fill-rule:evenodd;stroke:none;stroke-width:0.204368;stroke-miterlimit:4;stroke-dasharray:0.817472, 0.204368;stroke-dashoffset:0;stroke-opacity:1" rx="0.52529842" cx="-461.6319" id="path2414"/>
   <circle cy="-80.245026" style="opacity:1;fill:#333333;fill-opacity:1;fill-rule:evenodd;stroke:#f50008;stroke-width:0.149658;stroke-miterlimit:4;stroke-dasharray:none;stroke-dashoffset:0;stroke-opacity:1" r="0.58079875" cx="-461.57291" id="path1361-7"/>
  </g>
  <text xml:space="preserve" x="-500.8176" style="font-style:normal;font-variant:normal;font-weight:normal;font-stretch:normal;font-size:11.2889px;line-height:1.25;font-family:'Franklin Gothic Heavy';-inkscape-font-specification:'Franklin Gothic Heavy, Normal';font-variant-ligatures:normal;font-variant-caps:normal;font-variant-numeric:normal;font-variant-east-asian:normal;letter-spacing:0px;word-spacing:0px;fill:#333333;fill-opacity:1;stroke:none;stroke-width:0.264583" y="-78.552567" id="text1000">
   <tspan x="-500.8176" sodipodi:role="line" style="font-style:normal;font-variant:normal;font-weight:normal;font-stretch:normal;font-size:11.2889px;font-family:'Franklin Gothic Heavy';-inkscape-font-specification:'Franklin Gothic Heavy, Normal';font-variant-ligatures:normal;font-variant-caps:normal;font-variant-numeric:normal;font-variant-east-asian:normal;fill:#333333;fill-opacity:1;stroke-width:0.264583" y="-78.552567" id="tspan1027">du verlässt den</tspan>
  </text>
  <text xml:space="preserve" x="-650.17767" style="font-style:normal;font-variant:normal;font-weight:bold;font-stretch:normal;font-size:19.2192px;line-height:1.25;font-family:sans-serif;-inkscape-font-specification:'sans-serif, Bold';font-variant-ligatures:normal;font-variant-caps:normal;font-variant-numeric:normal;font-variant-east-asian:normal;letter-spacing:0px;word-spacing:0px;fill:#333333;fill-opacity:1;stroke:none;stroke-width:0.3432" transform="scale(0.77093047,1.2971338)" y="-67.603958" id="text1000-0">
   <tspan x="-650.17767" sodipodi:role="line" style="font-style:normal;font-variant:normal;font-weight:bold;font-stretch:normal;font-size:19.2192px;font-family:sans-serif;-inkscape-font-specification:'sans-serif, Bold';font-variant-ligatures:normal;font-variant-caps:normal;font-variant-numeric:normal;font-variant-east-asian:normal;fill:#333333;fill-opacity:1;stroke-width:0.3432" y="-67.603958" id="tspan998-8">ACHTUNG</tspan>
   <tspan x="-650.17767" sodipodi:role="line" style="font-style:normal;font-variant:normal;font-weight:bold;font-stretch:normal;font-size:19.2192px;font-family:sans-serif;-inkscape-font-specification:'sans-serif, Bold';font-variant-ligatures:normal;font-variant-caps:normal;font-variant-numeric:normal;font-variant-east-asian:normal;fill:#333333;fill-opacity:1;stroke-width:0.3432" y="-43.579956" id="tspan1002-2"/>
  </text>
  <text xml:space="preserve" x="-465.91223" style="font-style:normal;font-variant:normal;font-weight:bold;font-stretch:normal;font-size:20.9655px;line-height:1.25;font-family:sans-serif;-inkscape-font-specification:'sans-serif, Bold';font-variant-ligatures:normal;font-variant-caps:normal;font-variant-numeric:normal;font-variant-east-asian:normal;letter-spacing:0px;word-spacing:0px;fill:#333333;fill-opacity:1;stroke:none;stroke-width:0.374384" transform="scale(0.99858888,1.0014131)" y="-41.44677" id="text1000-0-6">
   <tspan x="-465.91223" sodipodi:role="line" style="font-style:normal;font-variant:normal;font-weight:bold;font-stretch:normal;font-size:20.9655px;font-family:sans-serif;-inkscape-font-specification:'sans-serif, Bold';font-variant-ligatures:normal;font-variant-caps:normal;font-variant-numeric:normal;font-variant-east-asian:normal;fill:#333333;fill-opacity:1;stroke-width:0.374384" y="-41.44677" id="tspan998-8-7">!</tspan>
   <tspan x="-465.91223" sodipodi:role="line" style="font-style:normal;font-variant:normal;font-weight:bold;font-stretch:normal;font-size:20.9655px;font-family:sans-serif;-inkscape-font-specification:'sans-serif, Bold';font-variant-ligatures:normal;font-variant-caps:normal;font-variant-numeric:normal;font-variant-east-asian:normal;fill:#333333;fill-opacity:1;stroke-width:0.374384" y="-15.239895" id="tspan1002-2-0"/>
  </text>
 </g>
</svg>
