<?xml version='1.0' encoding='UTF-8' standalone='no'?>
<!-- Created with Inkscape (http://www.inkscape.org/) -->
<svg xmlns:svg="http://www.w3.org/2000/svg" width="298.74887mm" viewBox="0 0 298.74888 456.05142" xmlns:cc="http://creativecommons.org/ns#" id="svg1643" sodipodi:docname="+TT.svg" inkscape:export-filename="C:\Users\max-k\Desktop\SENSO-Trail\Karten\+Transekten.png" xmlns:inkscape="http://www.inkscape.org/namespaces/inkscape" xmlns:dc="http://purl.org/dc/elements/1.1/" xmlns:rdf="http://www.w3.org/1999/02/22-rdf-syntax-ns#" xmlns:sodipodi="http://sodipodi.sourceforge.net/DTD/sodipodi-0.dtd" inkscape:version="0.92.4 (5da689c313, 2019-01-14)" inkscape:export-ydpi="96" xmlns="http://www.w3.org/2000/svg" height="456.05142mm" version="1.1" inkscape:export-xdpi="96">
 <defs id="defs1637">
  <marker inkscape:stockid="Arrow1Lend" style="overflow:visible" id="Arrow1Lend" inkscape:isstock="true" refY="0" refX="0" orient="auto">
   <path style="fill:#4d4d4d;fill-opacity:1;fill-rule:evenodd;stroke:#4d4d4d;stroke-width:1.00000003pt;stroke-opacity:1" id="path1781" transform="matrix(-0.8,0,0,-0.8,-10,0)" inkscape:connector-curvature="0" d="M 0,0 5,-5 -12.5,0 5,5 Z"/>
  </marker>
  <marker inkscape:stockid="Arrow1Lstart" style="overflow:visible" id="Arrow1Lstart" inkscape:isstock="true" refY="0" refX="0" orient="auto">
   <path style="fill:#000000;fill-opacity:1;fill-rule:evenodd;stroke:#000000;stroke-width:1.00000003pt;stroke-opacity:1" id="path1778" transform="matrix(0.8,0,0,0.8,10,0)" inkscape:connector-curvature="0" d="M 0,0 5,-5 -12.5,0 5,5 Z"/>
  </marker>
  <inkscape:path-effect copytype="single_stretched" fuse_tolerance="0" id="path-effect1370" normal_offset="0" vertical_pattern="false" tang_offset="0" prop_scale="0.26458333" effect="skeletal" scale_y_rel="false" prop_units="false" pattern="M 0,5 C 0,2.24 2.24,0 5,0 7.76,0 10,2.24 10,5 10,7.76 7.76,10 5,10 2.24,10 0,7.76 0,5 Z" is_visible="true" spacing="0"/>
  <clipPath id="clipPath1445" clipPathUnits="userSpaceOnUse">
   <rect width="6.9323034" rx="0" style="fill:#000000;fill-opacity:1;stroke:none;stroke-width:0.33813748;stroke-miterlimit:4;stroke-dasharray:none;stroke-opacity:0.99305558" id="rect1447" y="286.94397" x="-4.4099469" ry="0" height="4.192791"/>
  </clipPath>
  <clipPath id="clipPath3321" clipPathUnits="userSpaceOnUse">
   <rect width="20.003973" style="opacity:0.51099997;fill:none;fill-opacity:1;stroke:#000000;stroke-width:0.42558613;stroke-miterlimit:4;stroke-dasharray:none;stroke-dashoffset:0;stroke-opacity:1" rx="2.6286676" id="rect3323" y="386.0423" x="753.90729" ry="1.5809379" height="20.326616"/>
  </clipPath>
  <clipPath id="clipPath1097" clipPathUnits="userSpaceOnUse">
   <rect width="20.003973" style="opacity:0.51099997;fill:none;fill-opacity:1;stroke:#000000;stroke-width:0.42558613;stroke-miterlimit:4;stroke-dasharray:none;stroke-dashoffset:0;stroke-opacity:1" rx="2.6286676" id="rect1099" y="-122.35031" x="536.27081" ry="1.5809379" height="20.326616"/>
  </clipPath>
  <clipPath id="clipPath1119" clipPathUnits="userSpaceOnUse">
   <rect width="20.003973" rx="2.6286676" style="opacity:0.51099997;fill:none;fill-opacity:1;stroke:#000000;stroke-width:0.42558613;stroke-miterlimit:4;stroke-dasharray:none;stroke-dashoffset:0;stroke-opacity:1" id="rect1121" y="74.346153" x="330.99872" ry="1.5809379" height="20.326616"/>
  </clipPath>
  <clipPath id="clipPath1411" clipPathUnits="userSpaceOnUse">
   <rect width="94.666862" style="opacity:0.99199997;fill:#0088aa;fill-opacity:1;stroke:#447821;stroke-width:3.68700004;stroke-miterlimit:4;stroke-dasharray:1.84350005, 1.84350005;stroke-dashoffset:0;stroke-opacity:0" id="rect1413" y="565.86609" x="799.48285" height="67.351921"/>
  </clipPath>
 </defs>
 <sodipodi:namedview inkscape:window-x="-9" inkscape:window-y="-9" inkscape:window-maximized="1" inkscape:document-units="mm" showguides="true" borderopacity="1.0" inkscape:snap-nodes="true" pagecolor="#ffffff" inkscape:cy="927.44122" inkscape:guide-bbox="true" inkscape:window-width="1920" inkscape:snap-others="true" inkscape:snap-global="false" inkscape:pageshadow="2" inkscape:cx="112.72146" inkscape:pageopacity="0.0" fit-margin-left="0" showgrid="false" fit-margin-right="0" fit-margin-bottom="0" inkscape:snap-bbox="true" inkscape:zoom="0.3535534" fit-margin-top="0" id="base" bordercolor="#666666" inkscape:current-layer="layer1" inkscape:window-height="1001"/>
 <metadata id="metadata1640">
  <rdf:RDF>
   <cc:Work rdf:about="">
    <dc:format>image/svg+xml</dc:format>
    <dc:type rdf:resource="http://purl.org/dc/dcmitype/StillImage"/>
    <dc:title/>
   </cc:Work>
  </rdf:RDF>
 </metadata>
 <g id="layer1" transform="translate(19.319937,75.10423)" inkscape:groupmode="layer" inkscape:label="Ebene 1">
  <flowRoot style="font-style:normal;font-weight:normal;font-size:40px;line-height:1.25;font-family:sans-serif;letter-spacing:0px;word-spacing:0px;fill:#000000;fill-opacity:1;stroke:none" id="flowRoot2344" transform="matrix(0.26458333,0,0,0.26458333,0,149)" xml:space="preserve">
   <flowRegion id="flowRegion2346">
    <rect width="132.85715" id="rect2348" y="335.79861" x="52.142857" height="45.714287"/>
   </flowRegion>
   <flowPara id="flowPara2350"/>
  </flowRoot>
  <flowRoot style="font-style:normal;font-variant:normal;font-weight:normal;font-stretch:normal;font-size:16px;line-height:1.25;font-family:sans-serif;-inkscape-font-specification:'sans-serif, Normal';font-variant-ligatures:normal;font-variant-caps:normal;font-variant-numeric:normal;font-feature-settings:normal;text-align:start;letter-spacing:0px;word-spacing:0px;writing-mode:lr-tb;text-anchor:start;fill:#000000;fill-opacity:1;stroke:none" id="flowRoot2422-4-1-6-1" transform="matrix(0.5290602,0,0,0.5290602,0.90877694,103.34547)" xml:space="preserve">
   <flowRegion style="font-style:normal;font-variant:normal;font-weight:normal;font-stretch:normal;font-size:16px;font-family:sans-serif;-inkscape-font-specification:'sans-serif, Normal';font-variant-ligatures:normal;font-variant-caps:normal;font-variant-numeric:normal;font-feature-settings:normal;text-align:start;writing-mode:lr-tb;text-anchor:start" id="flowRegion2418-7-7-2-8">
    <rect width="172.14285" style="font-style:normal;font-variant:normal;font-weight:normal;font-stretch:normal;font-size:16px;font-family:sans-serif;-inkscape-font-specification:'sans-serif, Normal';font-variant-ligatures:normal;font-variant-caps:normal;font-variant-numeric:normal;font-feature-settings:normal;text-align:start;writing-mode:lr-tb;text-anchor:start" id="rect2416-6-5-1-5" y="27.227198" x="50.714287" height="24.999996"/>
   </flowRegion>
   <flowPara id="flowPara2438-3-9-7-9"/>
  </flowRoot>
  <g id="g1279">
   <g style="font-style:normal;font-weight:normal;font-size:40px;line-height:1.25;font-family:sans-serif;letter-spacing:0px;word-spacing:0px;fill:#000000;fill-opacity:1;stroke:none" aria-label="TT" id="flowRoot924" transform="matrix(0,0.26458333,-0.26458333,0,399.23973,52.93846)">
    <path style="" id="path2082" d="m 143.44141,577.68071 h -10.39063 v 25.64453 h -3.86719 v -25.64453 h -10.39062 v -3.4375 h 24.64844 z"/>
    <path style="" id="path2084" d="m 166.80078,577.68071 h -10.39062 v 25.64453 h -3.86719 v -25.64453 h -10.39063 v -3.4375 h 24.64844 z"/>
   </g>
   <g style="font-style:normal;font-weight:normal;font-size:40px;line-height:1.25;font-family:sans-serif;letter-spacing:0px;word-spacing:0px;fill:#000000;fill-opacity:1;stroke:none" aria-label="TT" id="flowRoot924-2" transform="matrix(0,0.26458333,-0.26458333,0,368.37847,97.475799)">
    <path style="" id="path2087" d="m 143.44141,577.68071 h -10.39063 v 25.64453 h -3.86719 v -25.64453 h -10.39062 v -3.4375 h 24.64844 z"/>
    <path style="" id="path2089" d="m 166.80078,577.68071 h -10.39062 v 25.64453 h -3.86719 v -25.64453 h -10.39063 v -3.4375 h 24.64844 z"/>
   </g>
   <g style="font-style:normal;font-weight:normal;font-size:40px;line-height:1.25;font-family:sans-serif;letter-spacing:0px;word-spacing:0px;fill:#000000;fill-opacity:1;stroke:none" aria-label="TT" id="flowRoot924-0" transform="matrix(0,0.26458333,-0.26458333,0,395.31924,122.1715)">
    <path style="" id="path2092" d="m 143.44141,577.68071 h -10.39063 v 25.64453 h -3.86719 v -25.64453 h -10.39062 v -3.4375 h 24.64844 z"/>
    <path style="" id="path2094" d="m 166.80078,577.68071 h -10.39062 v 25.64453 h -3.86719 v -25.64453 h -10.39063 v -3.4375 h 24.64844 z"/>
   </g>
   <g style="font-style:normal;font-weight:normal;font-size:40px;line-height:1.25;font-family:sans-serif;letter-spacing:0px;word-spacing:0px;fill:#000000;fill-opacity:1;stroke:none" aria-label="TT" id="flowRoot924-06" transform="matrix(0,0.26458333,-0.26458333,0,360.14657,171.56291)">
    <path style="" id="path2097" d="m 143.44141,577.68071 h -10.39063 v 25.64453 h -3.86719 v -25.64453 h -10.39062 v -3.4375 h 24.64844 z"/>
    <path style="" id="path2099" d="m 166.80078,577.68071 h -10.39062 v 25.64453 h -3.86719 v -25.64453 h -10.39063 v -3.4375 h 24.64844 z"/>
   </g>
   <g style="font-style:normal;font-weight:normal;font-size:40px;line-height:1.25;font-family:sans-serif;letter-spacing:0px;word-spacing:0px;fill:#000000;fill-opacity:1;stroke:none" aria-label="TT" id="flowRoot924-5" transform="matrix(0,0.26458333,-0.26458333,0,308.5101,178.2981)">
    <path style="" id="path2102" d="m 143.44141,577.68071 h -10.39063 v 25.64453 h -3.86719 v -25.64453 h -10.39062 v -3.4375 h 24.64844 z"/>
    <path style="" id="path2104" d="m 166.80078,577.68071 h -10.39062 v 25.64453 h -3.86719 v -25.64453 h -10.39063 v -3.4375 h 24.64844 z"/>
   </g>
   <g style="font-style:normal;font-weight:normal;font-size:40px;line-height:1.25;font-family:sans-serif;letter-spacing:0px;word-spacing:0px;fill:#000000;fill-opacity:1;stroke:none" aria-label="TT" id="flowRoot924-3" transform="matrix(0,0.26458333,-0.26458333,0,328.71567,149.11227)">
    <path style="" id="path2107" d="m 143.44141,577.68071 h -10.39063 v 25.64453 h -3.86719 v -25.64453 h -10.39062 v -3.4375 h 24.64844 z"/>
    <path style="" id="path2109" d="m 166.80078,577.68071 h -10.39062 v 25.64453 h -3.86719 v -25.64453 h -10.39063 v -3.4375 h 24.64844 z"/>
   </g>
   <g style="font-style:normal;font-weight:normal;font-size:40px;line-height:1.25;font-family:sans-serif;letter-spacing:0px;word-spacing:0px;fill:#000000;fill-opacity:1;stroke:none" aria-label="TT" id="flowRoot924-02" transform="matrix(0,0.26458333,-0.26458333,0,317.49035,253.88192)">
    <path style="" id="path2112" d="m 143.44141,577.68071 h -10.39063 v 25.64453 h -3.86719 v -25.64453 h -10.39062 v -3.4375 h 24.64844 z"/>
    <path style="" id="path2114" d="m 166.80078,577.68071 h -10.39062 v 25.64453 h -3.86719 v -25.64453 h -10.39063 v -3.4375 h 24.64844 z"/>
   </g>
   <g style="font-style:normal;font-weight:normal;font-size:40px;line-height:1.25;font-family:sans-serif;letter-spacing:0px;word-spacing:0px;fill:#000000;fill-opacity:1;stroke:none" aria-label="TT" id="flowRoot924-9" transform="matrix(0,0.26458333,-0.26458333,0,249.39008,206.73558)">
    <path style="" id="path2117" d="m 143.44141,577.68071 h -10.39063 v 25.64453 h -3.86719 v -25.64453 h -10.39062 v -3.4375 h 24.64844 z"/>
    <path style="" id="path2119" d="m 166.80078,577.68071 h -10.39062 v 25.64453 h -3.86719 v -25.64453 h -10.39063 v -3.4375 h 24.64844 z"/>
   </g>
   <g style="font-style:normal;font-weight:normal;font-size:40px;line-height:1.25;font-family:sans-serif;letter-spacing:0px;word-spacing:0px;fill:#000000;fill-opacity:1;stroke:none" aria-label="TT" id="flowRoot924-8" transform="matrix(0,0.26458333,-0.26458333,0,204.4888,168.56949)">
    <path style="" id="path2122" d="m 143.44141,577.68071 h -10.39063 v 25.64453 h -3.86719 v -25.64453 h -10.39062 v -3.4375 h 24.64844 z"/>
    <path style="" id="path2124" d="m 166.80078,577.68071 h -10.39062 v 25.64453 h -3.86719 v -25.64453 h -10.39063 v -3.4375 h 24.64844 z"/>
   </g>
   <g style="font-style:normal;font-weight:normal;font-size:40px;line-height:1.25;font-family:sans-serif;letter-spacing:0px;word-spacing:0px;fill:#000000;fill-opacity:1;stroke:none" aria-label="TT" id="flowRoot924-7" transform="matrix(0,0.26458333,-0.26458333,0,228.43615,116.18467)">
    <path style="" id="path2127" d="m 143.44141,577.68071 h -10.39063 v 25.64453 h -3.86719 v -25.64453 h -10.39062 v -3.4375 h 24.64844 z"/>
    <path style="" id="path2129" d="m 166.80078,577.68071 h -10.39062 v 25.64453 h -3.86719 v -25.64453 h -10.39063 v -3.4375 h 24.64844 z"/>
   </g>
   <g style="font-style:normal;font-weight:normal;font-size:40px;line-height:1.25;font-family:sans-serif;letter-spacing:0px;word-spacing:0px;fill:#000000;fill-opacity:1;stroke:none" aria-label="TT" id="flowRoot924-89" transform="matrix(0,0.26458333,-0.26458333,0,183.53487,138.6353)">
    <path style="" id="path2132" d="m 143.44141,577.68071 h -10.39063 v 25.64453 h -3.86719 v -25.64453 h -10.39062 v -3.4375 h 24.64844 z"/>
    <path style="" id="path2134" d="m 166.80078,577.68071 h -10.39062 v 25.64453 h -3.86719 v -25.64453 h -10.39063 v -3.4375 h 24.64844 z"/>
   </g>
   <g style="font-style:normal;font-weight:normal;font-size:40px;line-height:1.25;font-family:sans-serif;letter-spacing:0px;word-spacing:0px;fill:#000000;fill-opacity:1;stroke:none" aria-label="TT" id="flowRoot924-25" transform="matrix(0,0.26458333,-0.26458333,0,185.03158,21.891979)">
    <path style="" id="path2137" d="m 143.44141,577.68071 h -10.39063 v 25.64453 h -3.86719 v -25.64453 h -10.39062 v -3.4375 h 24.64844 z"/>
    <path style="" id="path2139" d="m 166.80078,577.68071 h -10.39062 v 25.64453 h -3.86719 v -25.64453 h -10.39063 v -3.4375 h 24.64844 z"/>
   </g>
   <g style="font-style:normal;font-weight:normal;font-size:40px;line-height:1.25;font-family:sans-serif;letter-spacing:0px;word-spacing:0px;fill:#000000;fill-opacity:1;stroke:none" aria-label="TT" id="flowRoot924-1" transform="matrix(0,0.26458333,-0.26458333,0,231.42957,4.679822)">
    <path style="" id="path2142" d="m 143.44141,577.68071 h -10.39063 v 25.64453 h -3.86719 v -25.64453 h -10.39062 v -3.4375 h 24.64844 z"/>
    <path style="" id="path2144" d="m 166.80078,577.68071 h -10.39062 v 25.64453 h -3.86719 v -25.64453 h -10.39063 v -3.4375 h 24.64844 z"/>
   </g>
   <g style="font-style:normal;font-weight:normal;font-size:40px;line-height:1.25;font-family:sans-serif;letter-spacing:0px;word-spacing:0px;fill:#000000;fill-opacity:1;stroke:none" aria-label="TT" id="flowRoot924-91" transform="matrix(0,0.26458333,-0.26458333,0,165.57436,-43.214875)">
    <path style="" id="path2147" d="m 143.44141,577.68071 h -10.39063 v 25.64453 h -3.86719 v -25.64453 h -10.39062 v -3.4375 h 24.64844 z"/>
    <path style="" id="path2149" d="m 166.80078,577.68071 h -10.39062 v 25.64453 h -3.86719 v -25.64453 h -10.39063 v -3.4375 h 24.64844 z"/>
   </g>
  </g>
 </g>
 <style type="text/css" id="style2">
	.st0{fill:#464646;}
	.st1{fill:#D1D1D1;}
</style>
 <style type="text/css" id="style1115">
	.st0{fill:#464646;}
	.st1{fill:#D1D1D1;}
</style>
 <style type="text/css" id="style1133">
	.st0{fill:#D1D1D1;}
	.st1{fill:#454545;}
</style>
</svg>
