<?xml version='1.0' encoding='UTF-8' standalone='no'?>
<!-- Created with Inkscape (http://www.inkscape.org/) -->
<svg inkscape:export-ydpi="96" viewBox="0 0 298.74888 456.05142" inkscape:export-xdpi="96" xmlns:dc="http://purl.org/dc/elements/1.1/" xmlns="http://www.w3.org/2000/svg" xmlns:svg="http://www.w3.org/2000/svg" xmlns:rdf="http://www.w3.org/1999/02/22-rdf-syntax-ns#" sodipodi:docname="+TT.svg" xmlns:cc="http://creativecommons.org/ns#" xmlns:inkscape="http://www.inkscape.org/namespaces/inkscape" xmlns:sodipodi="http://sodipodi.sourceforge.net/DTD/sodipodi-0.dtd" height="456.05142mm" inkscape:version="0.92.4 (5da689c313, 2019-01-14)" version="1.1" width="298.74887mm" id="svg1643" inkscape:export-filename="C:\Users\max-k\Desktop\SENSO-Trail\Karten\+Transekten.png">
 <defs id="defs1637">
  <marker inkscape:isstock="true" refY="0" inkscape:stockid="Arrow1Lend" orient="auto" refX="0" style="overflow:visible" id="Arrow1Lend">
   <path transform="matrix(-0.8,0,0,-0.8,-10,0)" style="fill:#4d4d4d;fill-opacity:1;fill-rule:evenodd;stroke:#4d4d4d;stroke-width:1.00000003pt;stroke-opacity:1" d="M 0,0 5,-5 -12.5,0 5,5 Z" id="path1781" inkscape:connector-curvature="0"/>
  </marker>
  <marker inkscape:isstock="true" refY="0" inkscape:stockid="Arrow1Lstart" orient="auto" refX="0" style="overflow:visible" id="Arrow1Lstart">
   <path transform="matrix(0.8,0,0,0.8,10,0)" style="fill:#000000;fill-opacity:1;fill-rule:evenodd;stroke:#000000;stroke-width:1.00000003pt;stroke-opacity:1" d="M 0,0 5,-5 -12.5,0 5,5 Z" id="path1778" inkscape:connector-curvature="0"/>
  </marker>
  <inkscape:path-effect scale_y_rel="false" pattern="M 0,5 C 0,2.24 2.24,0 5,0 7.76,0 10,2.24 10,5 10,7.76 7.76,10 5,10 2.24,10 0,7.76 0,5 Z" prop_units="false" fuse_tolerance="0" vertical_pattern="false" tang_offset="0" prop_scale="0.26458333" is_visible="true" normal_offset="0" effect="skeletal" copytype="single_stretched" spacing="0" id="path-effect1370"/>
  <clipPath clipPathUnits="userSpaceOnUse" id="clipPath1445">
   <rect ry="0" y="286.94397" rx="0" style="fill:#000000;fill-opacity:1;stroke:none;stroke-width:0.33813748;stroke-miterlimit:4;stroke-dasharray:none;stroke-opacity:0.99305558" height="4.192791" x="-4.4099469" width="6.9323034" id="rect1447"/>
  </clipPath>
  <clipPath clipPathUnits="userSpaceOnUse" id="clipPath3321">
   <rect y="386.0423" ry="1.5809379" rx="2.6286676" style="opacity:0.51099997;fill:none;fill-opacity:1;stroke:#000000;stroke-width:0.42558613;stroke-miterlimit:4;stroke-dasharray:none;stroke-dashoffset:0;stroke-opacity:1" height="20.326616" x="753.90729" id="rect3323" width="20.003973"/>
  </clipPath>
  <clipPath clipPathUnits="userSpaceOnUse" id="clipPath1097">
   <rect y="-122.35031" ry="1.5809379" rx="2.6286676" style="opacity:0.51099997;fill:none;fill-opacity:1;stroke:#000000;stroke-width:0.42558613;stroke-miterlimit:4;stroke-dasharray:none;stroke-dashoffset:0;stroke-opacity:1" height="20.326616" x="536.27081" id="rect1099" width="20.003973"/>
  </clipPath>
  <clipPath clipPathUnits="userSpaceOnUse" id="clipPath1119">
   <rect ry="1.5809379" y="74.346153" rx="2.6286676" style="opacity:0.51099997;fill:none;fill-opacity:1;stroke:#000000;stroke-width:0.42558613;stroke-miterlimit:4;stroke-dasharray:none;stroke-dashoffset:0;stroke-opacity:1" height="20.326616" x="330.99872" width="20.003973" id="rect1121"/>
  </clipPath>
  <clipPath clipPathUnits="userSpaceOnUse" id="clipPath1411">
   <rect y="565.86609" style="opacity:0.99199997;fill:#0088aa;fill-opacity:1;stroke:#447821;stroke-width:3.68700004;stroke-miterlimit:4;stroke-dasharray:1.84350005, 1.84350005;stroke-dashoffset:0;stroke-opacity:0" height="67.351921" x="799.48285" width="94.666862" id="rect1413"/>
  </clipPath>
 </defs>
 <sodipodi:namedview inkscape:window-width="1920" inkscape:pageshadow="2" inkscape:zoom="0.3535534" inkscape:window-x="-9" inkscape:snap-others="true" fit-margin-top="0" fit-margin-left="0" inkscape:window-height="1001" fit-margin-bottom="0" inkscape:guide-bbox="true" fit-margin-right="0" borderopacity="1.0" inkscape:pageopacity="0.0" inkscape:cx="112.72146" inkscape:snap-global="false" bordercolor="#666666" inkscape:window-y="-9" inkscape:current-layer="layer1" showguides="true" inkscape:snap-bbox="true" inkscape:document-units="mm" inkscape:snap-nodes="true" showgrid="false" inkscape:window-maximized="1" inkscape:cy="927.44122" id="base" pagecolor="#ffffff"/>
 <metadata id="metadata1640">
  <rdf:RDF>
   <cc:Work rdf:about="">
    <dc:format>image/svg+xml</dc:format>
    <dc:type rdf:resource="http://purl.org/dc/dcmitype/StillImage"/>
    <dc:title/>
   </cc:Work>
  </rdf:RDF>
 </metadata>
 <g inkscape:groupmode="layer" transform="translate(19.319937,75.10423)" inkscape:label="Ebene 1" id="layer1">
  <flowRoot xml:space="preserve" transform="matrix(0.26458333,0,0,0.26458333,0,149)" style="font-style:normal;font-weight:normal;font-size:40px;line-height:1.25;font-family:sans-serif;letter-spacing:0px;word-spacing:0px;fill:#000000;fill-opacity:1;stroke:none" id="flowRoot2344">
   <flowRegion id="flowRegion2346">
    <rect y="335.79861" height="45.714287" x="52.142857" id="rect2348" width="132.85715"/>
   </flowRegion>
   <flowPara id="flowPara2350"/>
  </flowRoot>
  <flowRoot xml:space="preserve" transform="matrix(0.5290602,0,0,0.5290602,0.90877694,103.34547)" style="font-style:normal;font-variant:normal;font-weight:normal;font-stretch:normal;font-size:16px;line-height:1.25;font-family:sans-serif;-inkscape-font-specification:'sans-serif, Normal';font-variant-ligatures:normal;font-variant-caps:normal;font-variant-numeric:normal;font-feature-settings:normal;text-align:start;letter-spacing:0px;word-spacing:0px;writing-mode:lr-tb;text-anchor:start;fill:#000000;fill-opacity:1;stroke:none" id="flowRoot2422-4-1-6-1">
   <flowRegion style="font-style:normal;font-variant:normal;font-weight:normal;font-stretch:normal;font-size:16px;font-family:sans-serif;-inkscape-font-specification:'sans-serif, Normal';font-variant-ligatures:normal;font-variant-caps:normal;font-variant-numeric:normal;font-feature-settings:normal;text-align:start;writing-mode:lr-tb;text-anchor:start" id="flowRegion2418-7-7-2-8">
    <rect y="27.227198" style="font-style:normal;font-variant:normal;font-weight:normal;font-stretch:normal;font-size:16px;font-family:sans-serif;-inkscape-font-specification:'sans-serif, Normal';font-variant-ligatures:normal;font-variant-caps:normal;font-variant-numeric:normal;font-feature-settings:normal;text-align:start;writing-mode:lr-tb;text-anchor:start" height="24.999996" x="50.714287" width="172.14285" id="rect2416-6-5-1-5"/>
   </flowRegion>
   <flowPara id="flowPara2438-3-9-7-9"/>
  </flowRoot>
  <g id="g1279">
   <g transform="matrix(0,0.26458333,-0.26458333,0,399.23973,52.93846)" style="font-style:normal;font-weight:normal;font-size:40px;line-height:1.25;font-family:sans-serif;letter-spacing:0px;word-spacing:0px;fill:#000000;fill-opacity:1;stroke:none" aria-label="TT" id="flowRoot924">
    <path style="" d="m 143.44141,577.68071 h -10.39063 v 25.64453 h -3.86719 v -25.64453 h -10.39062 v -3.4375 h 24.64844 z" id="path2082"/>
    <path style="" d="m 166.80078,577.68071 h -10.39062 v 25.64453 h -3.86719 v -25.64453 h -10.39063 v -3.4375 h 24.64844 z" id="path2084"/>
   </g>
   <g transform="matrix(0,0.26458333,-0.26458333,0,368.37847,97.475799)" style="font-style:normal;font-weight:normal;font-size:40px;line-height:1.25;font-family:sans-serif;letter-spacing:0px;word-spacing:0px;fill:#000000;fill-opacity:1;stroke:none" aria-label="TT" id="flowRoot924-2">
    <path style="" d="m 143.44141,577.68071 h -10.39063 v 25.64453 h -3.86719 v -25.64453 h -10.39062 v -3.4375 h 24.64844 z" id="path2087"/>
    <path style="" d="m 166.80078,577.68071 h -10.39062 v 25.64453 h -3.86719 v -25.64453 h -10.39063 v -3.4375 h 24.64844 z" id="path2089"/>
   </g>
   <g transform="matrix(0,0.26458333,-0.26458333,0,395.31924,122.1715)" style="font-style:normal;font-weight:normal;font-size:40px;line-height:1.25;font-family:sans-serif;letter-spacing:0px;word-spacing:0px;fill:#000000;fill-opacity:1;stroke:none" aria-label="TT" id="flowRoot924-0">
    <path style="" d="m 143.44141,577.68071 h -10.39063 v 25.64453 h -3.86719 v -25.64453 h -10.39062 v -3.4375 h 24.64844 z" id="path2092"/>
    <path style="" d="m 166.80078,577.68071 h -10.39062 v 25.64453 h -3.86719 v -25.64453 h -10.39063 v -3.4375 h 24.64844 z" id="path2094"/>
   </g>
   <g transform="matrix(0,0.26458333,-0.26458333,0,360.14657,171.56291)" style="font-style:normal;font-weight:normal;font-size:40px;line-height:1.25;font-family:sans-serif;letter-spacing:0px;word-spacing:0px;fill:#000000;fill-opacity:1;stroke:none" aria-label="TT" id="flowRoot924-06">
    <path style="" d="m 143.44141,577.68071 h -10.39063 v 25.64453 h -3.86719 v -25.64453 h -10.39062 v -3.4375 h 24.64844 z" id="path2097"/>
    <path style="" d="m 166.80078,577.68071 h -10.39062 v 25.64453 h -3.86719 v -25.64453 h -10.39063 v -3.4375 h 24.64844 z" id="path2099"/>
   </g>
   <g transform="matrix(0,0.26458333,-0.26458333,0,308.5101,178.2981)" style="font-style:normal;font-weight:normal;font-size:40px;line-height:1.25;font-family:sans-serif;letter-spacing:0px;word-spacing:0px;fill:#000000;fill-opacity:1;stroke:none" aria-label="TT" id="flowRoot924-5">
    <path style="" d="m 143.44141,577.68071 h -10.39063 v 25.64453 h -3.86719 v -25.64453 h -10.39062 v -3.4375 h 24.64844 z" id="path2102"/>
    <path style="" d="m 166.80078,577.68071 h -10.39062 v 25.64453 h -3.86719 v -25.64453 h -10.39063 v -3.4375 h 24.64844 z" id="path2104"/>
   </g>
   <g transform="matrix(0,0.26458333,-0.26458333,0,328.71567,149.11227)" style="font-style:normal;font-weight:normal;font-size:40px;line-height:1.25;font-family:sans-serif;letter-spacing:0px;word-spacing:0px;fill:#000000;fill-opacity:1;stroke:none" aria-label="TT" id="flowRoot924-3">
    <path style="" d="m 143.44141,577.68071 h -10.39063 v 25.64453 h -3.86719 v -25.64453 h -10.39062 v -3.4375 h 24.64844 z" id="path2107"/>
    <path style="" d="m 166.80078,577.68071 h -10.39062 v 25.64453 h -3.86719 v -25.64453 h -10.39063 v -3.4375 h 24.64844 z" id="path2109"/>
   </g>
   <g transform="matrix(0,0.26458333,-0.26458333,0,317.49035,253.88192)" style="font-style:normal;font-weight:normal;font-size:40px;line-height:1.25;font-family:sans-serif;letter-spacing:0px;word-spacing:0px;fill:#000000;fill-opacity:1;stroke:none" aria-label="TT" id="flowRoot924-02">
    <path style="" d="m 143.44141,577.68071 h -10.39063 v 25.64453 h -3.86719 v -25.64453 h -10.39062 v -3.4375 h 24.64844 z" id="path2112"/>
    <path style="" d="m 166.80078,577.68071 h -10.39062 v 25.64453 h -3.86719 v -25.64453 h -10.39063 v -3.4375 h 24.64844 z" id="path2114"/>
   </g>
   <g transform="matrix(0,0.26458333,-0.26458333,0,249.39008,206.73558)" style="font-style:normal;font-weight:normal;font-size:40px;line-height:1.25;font-family:sans-serif;letter-spacing:0px;word-spacing:0px;fill:#000000;fill-opacity:1;stroke:none" aria-label="TT" id="flowRoot924-9">
    <path style="" d="m 143.44141,577.68071 h -10.39063 v 25.64453 h -3.86719 v -25.64453 h -10.39062 v -3.4375 h 24.64844 z" id="path2117"/>
    <path style="" d="m 166.80078,577.68071 h -10.39062 v 25.64453 h -3.86719 v -25.64453 h -10.39063 v -3.4375 h 24.64844 z" id="path2119"/>
   </g>
   <g transform="matrix(0,0.26458333,-0.26458333,0,204.4888,168.56949)" style="font-style:normal;font-weight:normal;font-size:40px;line-height:1.25;font-family:sans-serif;letter-spacing:0px;word-spacing:0px;fill:#000000;fill-opacity:1;stroke:none" aria-label="TT" id="flowRoot924-8">
    <path style="" d="m 143.44141,577.68071 h -10.39063 v 25.64453 h -3.86719 v -25.64453 h -10.39062 v -3.4375 h 24.64844 z" id="path2122"/>
    <path style="" d="m 166.80078,577.68071 h -10.39062 v 25.64453 h -3.86719 v -25.64453 h -10.39063 v -3.4375 h 24.64844 z" id="path2124"/>
   </g>
   <g transform="matrix(0,0.26458333,-0.26458333,0,228.43615,116.18467)" style="font-style:normal;font-weight:normal;font-size:40px;line-height:1.25;font-family:sans-serif;letter-spacing:0px;word-spacing:0px;fill:#000000;fill-opacity:1;stroke:none" aria-label="TT" id="flowRoot924-7">
    <path style="" d="m 143.44141,577.68071 h -10.39063 v 25.64453 h -3.86719 v -25.64453 h -10.39062 v -3.4375 h 24.64844 z" id="path2127"/>
    <path style="" d="m 166.80078,577.68071 h -10.39062 v 25.64453 h -3.86719 v -25.64453 h -10.39063 v -3.4375 h 24.64844 z" id="path2129"/>
   </g>
   <g transform="matrix(0,0.26458333,-0.26458333,0,183.53487,138.6353)" style="font-style:normal;font-weight:normal;font-size:40px;line-height:1.25;font-family:sans-serif;letter-spacing:0px;word-spacing:0px;fill:#000000;fill-opacity:1;stroke:none" aria-label="TT" id="flowRoot924-89">
    <path style="" d="m 143.44141,577.68071 h -10.39063 v 25.64453 h -3.86719 v -25.64453 h -10.39062 v -3.4375 h 24.64844 z" id="path2132"/>
    <path style="" d="m 166.80078,577.68071 h -10.39062 v 25.64453 h -3.86719 v -25.64453 h -10.39063 v -3.4375 h 24.64844 z" id="path2134"/>
   </g>
   <g transform="matrix(0,0.26458333,-0.26458333,0,185.03158,21.891979)" style="font-style:normal;font-weight:normal;font-size:40px;line-height:1.25;font-family:sans-serif;letter-spacing:0px;word-spacing:0px;fill:#000000;fill-opacity:1;stroke:none" aria-label="TT" id="flowRoot924-25">
    <path style="" d="m 143.44141,577.68071 h -10.39063 v 25.64453 h -3.86719 v -25.64453 h -10.39062 v -3.4375 h 24.64844 z" id="path2137"/>
    <path style="" d="m 166.80078,577.68071 h -10.39062 v 25.64453 h -3.86719 v -25.64453 h -10.39063 v -3.4375 h 24.64844 z" id="path2139"/>
   </g>
   <g transform="matrix(0,0.26458333,-0.26458333,0,231.42957,4.679822)" style="font-style:normal;font-weight:normal;font-size:40px;line-height:1.25;font-family:sans-serif;letter-spacing:0px;word-spacing:0px;fill:#000000;fill-opacity:1;stroke:none" aria-label="TT" id="flowRoot924-1">
    <path style="" d="m 143.44141,577.68071 h -10.39063 v 25.64453 h -3.86719 v -25.64453 h -10.39062 v -3.4375 h 24.64844 z" id="path2142"/>
    <path style="" d="m 166.80078,577.68071 h -10.39062 v 25.64453 h -3.86719 v -25.64453 h -10.39063 v -3.4375 h 24.64844 z" id="path2144"/>
   </g>
   <g transform="matrix(0,0.26458333,-0.26458333,0,165.57436,-43.214875)" style="font-style:normal;font-weight:normal;font-size:40px;line-height:1.25;font-family:sans-serif;letter-spacing:0px;word-spacing:0px;fill:#000000;fill-opacity:1;stroke:none" aria-label="TT" id="flowRoot924-91">
    <path style="" d="m 143.44141,577.68071 h -10.39063 v 25.64453 h -3.86719 v -25.64453 h -10.39062 v -3.4375 h 24.64844 z" id="path2147"/>
    <path style="" d="m 166.80078,577.68071 h -10.39062 v 25.64453 h -3.86719 v -25.64453 h -10.39063 v -3.4375 h 24.64844 z" id="path2149"/>
   </g>
  </g>
 </g>
 <style type="text/css" id="style2">
	.st0{fill:#464646;}
	.st1{fill:#D1D1D1;}
</style>
 <style type="text/css" id="style1115">
	.st0{fill:#464646;}
	.st1{fill:#D1D1D1;}
</style>
 <style type="text/css" id="style1133">
	.st0{fill:#D1D1D1;}
	.st1{fill:#454545;}
</style>
</svg>
