<?xml version='1.0' encoding='UTF-8' standalone='no'?>
<!-- Created with Inkscape (http://www.inkscape.org/) -->
<svg xmlns:svg="http://www.w3.org/2000/svg" id="svg1643" inkscape:export-filename="C:\Users\max-k\Desktop\SENSO-Trail\Karten\+Transekten.png" xmlns:dc="http://purl.org/dc/elements/1.1/" height="456.05142mm" inkscape:version="0.92.4 (5da689c313, 2019-01-14)" inkscape:export-ydpi="96" xmlns:inkscape="http://www.inkscape.org/namespaces/inkscape" width="298.74887mm" version="1.1" xmlns:rdf="http://www.w3.org/1999/02/22-rdf-syntax-ns#" xmlns:cc="http://creativecommons.org/ns#" xmlns="http://www.w3.org/2000/svg" xmlns:sodipodi="http://sodipodi.sourceforge.net/DTD/sodipodi-0.dtd" viewBox="0 0 298.74888 456.05142" inkscape:export-xdpi="96" sodipodi:docname="+TT.svg">
 <defs id="defs1637">
  <marker id="Arrow1Lend" refY="0" refX="0" orient="auto" inkscape:isstock="true" inkscape:stockid="Arrow1Lend" style="overflow:visible">
   <path id="path1781" inkscape:connector-curvature="0" d="M 0,0 5,-5 -12.5,0 5,5 Z" transform="matrix(-0.8,0,0,-0.8,-10,0)" style="fill:#4d4d4d;fill-opacity:1;fill-rule:evenodd;stroke:#4d4d4d;stroke-width:1.00000003pt;stroke-opacity:1"/>
  </marker>
  <marker id="Arrow1Lstart" refY="0" refX="0" orient="auto" inkscape:isstock="true" inkscape:stockid="Arrow1Lstart" style="overflow:visible">
   <path id="path1778" inkscape:connector-curvature="0" d="M 0,0 5,-5 -12.5,0 5,5 Z" transform="matrix(0.8,0,0,0.8,10,0)" style="fill:#000000;fill-opacity:1;fill-rule:evenodd;stroke:#000000;stroke-width:1.00000003pt;stroke-opacity:1"/>
  </marker>
  <inkscape:path-effect spacing="0" id="path-effect1370" normal_offset="0" tang_offset="0" prop_scale="0.26458333" fuse_tolerance="0" vertical_pattern="false" copytype="single_stretched" is_visible="true" effect="skeletal" scale_y_rel="false" prop_units="false" pattern="M 0,5 C 0,2.24 2.24,0 5,0 7.76,0 10,2.24 10,5 10,7.76 7.76,10 5,10 2.24,10 0,7.76 0,5 Z"/>
  <clipPath id="clipPath1445" clipPathUnits="userSpaceOnUse">
   <rect id="rect1447" height="4.192791" rx="0" width="6.9323034" ry="0" x="-4.4099469" y="286.94397" style="fill:#000000;fill-opacity:1;stroke:none;stroke-width:0.33813748;stroke-miterlimit:4;stroke-dasharray:none;stroke-opacity:0.99305558"/>
  </clipPath>
  <clipPath id="clipPath3321" clipPathUnits="userSpaceOnUse">
   <rect id="rect3323" height="20.326616" rx="2.6286676" width="20.003973" ry="1.5809379" x="753.90729" y="386.0423" style="opacity:0.51099997;fill:none;fill-opacity:1;stroke:#000000;stroke-width:0.42558613;stroke-miterlimit:4;stroke-dasharray:none;stroke-dashoffset:0;stroke-opacity:1"/>
  </clipPath>
  <clipPath id="clipPath1097" clipPathUnits="userSpaceOnUse">
   <rect id="rect1099" height="20.326616" rx="2.6286676" width="20.003973" ry="1.5809379" x="536.27081" y="-122.35031" style="opacity:0.51099997;fill:none;fill-opacity:1;stroke:#000000;stroke-width:0.42558613;stroke-miterlimit:4;stroke-dasharray:none;stroke-dashoffset:0;stroke-opacity:1"/>
  </clipPath>
  <clipPath id="clipPath1119" clipPathUnits="userSpaceOnUse">
   <rect id="rect1121" height="20.326616" rx="2.6286676" width="20.003973" ry="1.5809379" x="330.99872" y="74.346153" style="opacity:0.51099997;fill:none;fill-opacity:1;stroke:#000000;stroke-width:0.42558613;stroke-miterlimit:4;stroke-dasharray:none;stroke-dashoffset:0;stroke-opacity:1"/>
  </clipPath>
  <clipPath id="clipPath1411" clipPathUnits="userSpaceOnUse">
   <rect id="rect1413" height="67.351921" width="94.666862" x="799.48285" y="565.86609" style="opacity:0.99199997;fill:#0088aa;fill-opacity:1;stroke:#447821;stroke-width:3.68700004;stroke-miterlimit:4;stroke-dasharray:1.84350005, 1.84350005;stroke-dashoffset:0;stroke-opacity:0"/>
  </clipPath>
 </defs>
 <sodipodi:namedview showgrid="false" inkscape:window-y="-9" inkscape:window-x="-9" inkscape:document-units="mm" inkscape:snap-others="true" inkscape:pageshadow="2" fit-margin-right="0" id="base" inkscape:window-maximized="1" inkscape:zoom="0.3535534" inkscape:cx="112.72146" pagecolor="#ffffff" borderopacity="1.0" inkscape:window-width="1920" bordercolor="#666666" fit-margin-top="0" inkscape:guide-bbox="true" showguides="true" inkscape:snap-global="false" inkscape:current-layer="layer1" inkscape:snap-nodes="true" fit-margin-bottom="0" inkscape:window-height="1001" inkscape:pageopacity="0.0" inkscape:snap-bbox="true" inkscape:cy="927.44122" fit-margin-left="0"/>
 <metadata id="metadata1640">
  <rdf:RDF>
   <cc:Work rdf:about="">
    <dc:format>image/svg+xml</dc:format>
    <dc:type rdf:resource="http://purl.org/dc/dcmitype/StillImage"/>
    <dc:title/>
   </cc:Work>
  </rdf:RDF>
 </metadata>
 <g id="layer1" inkscape:label="Ebene 1" transform="translate(19.319937,75.10423)" inkscape:groupmode="layer">
  <flowRoot id="flowRoot2344" xml:space="preserve" transform="matrix(0.26458333,0,0,0.26458333,0,149)" style="font-style:normal;font-weight:normal;font-size:40px;line-height:1.25;font-family:sans-serif;letter-spacing:0px;word-spacing:0px;fill:#000000;fill-opacity:1;stroke:none">
   <flowRegion id="flowRegion2346">
    <rect id="rect2348" height="45.714287" width="132.85715" x="52.142857" y="335.79861"/>
   </flowRegion>
   <flowPara id="flowPara2350"/>
  </flowRoot>
  <flowRoot id="flowRoot2422-4-1-6-1" xml:space="preserve" transform="matrix(0.5290602,0,0,0.5290602,0.90877694,103.34547)" style="font-style:normal;font-variant:normal;font-weight:normal;font-stretch:normal;font-size:16px;line-height:1.25;font-family:sans-serif;-inkscape-font-specification:'sans-serif, Normal';font-variant-ligatures:normal;font-variant-caps:normal;font-variant-numeric:normal;font-feature-settings:normal;text-align:start;letter-spacing:0px;word-spacing:0px;writing-mode:lr-tb;text-anchor:start;fill:#000000;fill-opacity:1;stroke:none">
   <flowRegion id="flowRegion2418-7-7-2-8" style="font-style:normal;font-variant:normal;font-weight:normal;font-stretch:normal;font-size:16px;font-family:sans-serif;-inkscape-font-specification:'sans-serif, Normal';font-variant-ligatures:normal;font-variant-caps:normal;font-variant-numeric:normal;font-feature-settings:normal;text-align:start;writing-mode:lr-tb;text-anchor:start">
    <rect id="rect2416-6-5-1-5" height="24.999996" width="172.14285" x="50.714287" y="27.227198" style="font-style:normal;font-variant:normal;font-weight:normal;font-stretch:normal;font-size:16px;font-family:sans-serif;-inkscape-font-specification:'sans-serif, Normal';font-variant-ligatures:normal;font-variant-caps:normal;font-variant-numeric:normal;font-feature-settings:normal;text-align:start;writing-mode:lr-tb;text-anchor:start"/>
   </flowRegion>
   <flowPara id="flowPara2438-3-9-7-9"/>
  </flowRoot>
  <g id="g1279">
   <g id="flowRoot924" aria-label="TT" transform="matrix(0,0.26458333,-0.26458333,0,399.23973,52.93846)" style="font-style:normal;font-weight:normal;font-size:40px;line-height:1.25;font-family:sans-serif;letter-spacing:0px;word-spacing:0px;fill:#000000;fill-opacity:1;stroke:none">
    <path id="path2082" d="m 143.44141,577.68071 h -10.39063 v 25.64453 h -3.86719 v -25.64453 h -10.39062 v -3.4375 h 24.64844 z" style=""/>
    <path id="path2084" d="m 166.80078,577.68071 h -10.39062 v 25.64453 h -3.86719 v -25.64453 h -10.39063 v -3.4375 h 24.64844 z" style=""/>
   </g>
   <g id="flowRoot924-2" aria-label="TT" transform="matrix(0,0.26458333,-0.26458333,0,368.37847,97.475799)" style="font-style:normal;font-weight:normal;font-size:40px;line-height:1.25;font-family:sans-serif;letter-spacing:0px;word-spacing:0px;fill:#000000;fill-opacity:1;stroke:none">
    <path id="path2087" d="m 143.44141,577.68071 h -10.39063 v 25.64453 h -3.86719 v -25.64453 h -10.39062 v -3.4375 h 24.64844 z" style=""/>
    <path id="path2089" d="m 166.80078,577.68071 h -10.39062 v 25.64453 h -3.86719 v -25.64453 h -10.39063 v -3.4375 h 24.64844 z" style=""/>
   </g>
   <g id="flowRoot924-0" aria-label="TT" transform="matrix(0,0.26458333,-0.26458333,0,395.31924,122.1715)" style="font-style:normal;font-weight:normal;font-size:40px;line-height:1.25;font-family:sans-serif;letter-spacing:0px;word-spacing:0px;fill:#000000;fill-opacity:1;stroke:none">
    <path id="path2092" d="m 143.44141,577.68071 h -10.39063 v 25.64453 h -3.86719 v -25.64453 h -10.39062 v -3.4375 h 24.64844 z" style=""/>
    <path id="path2094" d="m 166.80078,577.68071 h -10.39062 v 25.64453 h -3.86719 v -25.64453 h -10.39063 v -3.4375 h 24.64844 z" style=""/>
   </g>
   <g id="flowRoot924-06" aria-label="TT" transform="matrix(0,0.26458333,-0.26458333,0,360.14657,171.56291)" style="font-style:normal;font-weight:normal;font-size:40px;line-height:1.25;font-family:sans-serif;letter-spacing:0px;word-spacing:0px;fill:#000000;fill-opacity:1;stroke:none">
    <path id="path2097" d="m 143.44141,577.68071 h -10.39063 v 25.64453 h -3.86719 v -25.64453 h -10.39062 v -3.4375 h 24.64844 z" style=""/>
    <path id="path2099" d="m 166.80078,577.68071 h -10.39062 v 25.64453 h -3.86719 v -25.64453 h -10.39063 v -3.4375 h 24.64844 z" style=""/>
   </g>
   <g id="flowRoot924-5" aria-label="TT" transform="matrix(0,0.26458333,-0.26458333,0,308.5101,178.2981)" style="font-style:normal;font-weight:normal;font-size:40px;line-height:1.25;font-family:sans-serif;letter-spacing:0px;word-spacing:0px;fill:#000000;fill-opacity:1;stroke:none">
    <path id="path2102" d="m 143.44141,577.68071 h -10.39063 v 25.64453 h -3.86719 v -25.64453 h -10.39062 v -3.4375 h 24.64844 z" style=""/>
    <path id="path2104" d="m 166.80078,577.68071 h -10.39062 v 25.64453 h -3.86719 v -25.64453 h -10.39063 v -3.4375 h 24.64844 z" style=""/>
   </g>
   <g id="flowRoot924-3" aria-label="TT" transform="matrix(0,0.26458333,-0.26458333,0,328.71567,149.11227)" style="font-style:normal;font-weight:normal;font-size:40px;line-height:1.25;font-family:sans-serif;letter-spacing:0px;word-spacing:0px;fill:#000000;fill-opacity:1;stroke:none">
    <path id="path2107" d="m 143.44141,577.68071 h -10.39063 v 25.64453 h -3.86719 v -25.64453 h -10.39062 v -3.4375 h 24.64844 z" style=""/>
    <path id="path2109" d="m 166.80078,577.68071 h -10.39062 v 25.64453 h -3.86719 v -25.64453 h -10.39063 v -3.4375 h 24.64844 z" style=""/>
   </g>
   <g id="flowRoot924-02" aria-label="TT" transform="matrix(0,0.26458333,-0.26458333,0,317.49035,253.88192)" style="font-style:normal;font-weight:normal;font-size:40px;line-height:1.25;font-family:sans-serif;letter-spacing:0px;word-spacing:0px;fill:#000000;fill-opacity:1;stroke:none">
    <path id="path2112" d="m 143.44141,577.68071 h -10.39063 v 25.64453 h -3.86719 v -25.64453 h -10.39062 v -3.4375 h 24.64844 z" style=""/>
    <path id="path2114" d="m 166.80078,577.68071 h -10.39062 v 25.64453 h -3.86719 v -25.64453 h -10.39063 v -3.4375 h 24.64844 z" style=""/>
   </g>
   <g id="flowRoot924-9" aria-label="TT" transform="matrix(0,0.26458333,-0.26458333,0,249.39008,206.73558)" style="font-style:normal;font-weight:normal;font-size:40px;line-height:1.25;font-family:sans-serif;letter-spacing:0px;word-spacing:0px;fill:#000000;fill-opacity:1;stroke:none">
    <path id="path2117" d="m 143.44141,577.68071 h -10.39063 v 25.64453 h -3.86719 v -25.64453 h -10.39062 v -3.4375 h 24.64844 z" style=""/>
    <path id="path2119" d="m 166.80078,577.68071 h -10.39062 v 25.64453 h -3.86719 v -25.64453 h -10.39063 v -3.4375 h 24.64844 z" style=""/>
   </g>
   <g id="flowRoot924-8" aria-label="TT" transform="matrix(0,0.26458333,-0.26458333,0,204.4888,168.56949)" style="font-style:normal;font-weight:normal;font-size:40px;line-height:1.25;font-family:sans-serif;letter-spacing:0px;word-spacing:0px;fill:#000000;fill-opacity:1;stroke:none">
    <path id="path2122" d="m 143.44141,577.68071 h -10.39063 v 25.64453 h -3.86719 v -25.64453 h -10.39062 v -3.4375 h 24.64844 z" style=""/>
    <path id="path2124" d="m 166.80078,577.68071 h -10.39062 v 25.64453 h -3.86719 v -25.64453 h -10.39063 v -3.4375 h 24.64844 z" style=""/>
   </g>
   <g id="flowRoot924-7" aria-label="TT" transform="matrix(0,0.26458333,-0.26458333,0,228.43615,116.18467)" style="font-style:normal;font-weight:normal;font-size:40px;line-height:1.25;font-family:sans-serif;letter-spacing:0px;word-spacing:0px;fill:#000000;fill-opacity:1;stroke:none">
    <path id="path2127" d="m 143.44141,577.68071 h -10.39063 v 25.64453 h -3.86719 v -25.64453 h -10.39062 v -3.4375 h 24.64844 z" style=""/>
    <path id="path2129" d="m 166.80078,577.68071 h -10.39062 v 25.64453 h -3.86719 v -25.64453 h -10.39063 v -3.4375 h 24.64844 z" style=""/>
   </g>
   <g id="flowRoot924-89" aria-label="TT" transform="matrix(0,0.26458333,-0.26458333,0,183.53487,138.6353)" style="font-style:normal;font-weight:normal;font-size:40px;line-height:1.25;font-family:sans-serif;letter-spacing:0px;word-spacing:0px;fill:#000000;fill-opacity:1;stroke:none">
    <path id="path2132" d="m 143.44141,577.68071 h -10.39063 v 25.64453 h -3.86719 v -25.64453 h -10.39062 v -3.4375 h 24.64844 z" style=""/>
    <path id="path2134" d="m 166.80078,577.68071 h -10.39062 v 25.64453 h -3.86719 v -25.64453 h -10.39063 v -3.4375 h 24.64844 z" style=""/>
   </g>
   <g id="flowRoot924-25" aria-label="TT" transform="matrix(0,0.26458333,-0.26458333,0,185.03158,21.891979)" style="font-style:normal;font-weight:normal;font-size:40px;line-height:1.25;font-family:sans-serif;letter-spacing:0px;word-spacing:0px;fill:#000000;fill-opacity:1;stroke:none">
    <path id="path2137" d="m 143.44141,577.68071 h -10.39063 v 25.64453 h -3.86719 v -25.64453 h -10.39062 v -3.4375 h 24.64844 z" style=""/>
    <path id="path2139" d="m 166.80078,577.68071 h -10.39062 v 25.64453 h -3.86719 v -25.64453 h -10.39063 v -3.4375 h 24.64844 z" style=""/>
   </g>
   <g id="flowRoot924-1" aria-label="TT" transform="matrix(0,0.26458333,-0.26458333,0,231.42957,4.679822)" style="font-style:normal;font-weight:normal;font-size:40px;line-height:1.25;font-family:sans-serif;letter-spacing:0px;word-spacing:0px;fill:#000000;fill-opacity:1;stroke:none">
    <path id="path2142" d="m 143.44141,577.68071 h -10.39063 v 25.64453 h -3.86719 v -25.64453 h -10.39062 v -3.4375 h 24.64844 z" style=""/>
    <path id="path2144" d="m 166.80078,577.68071 h -10.39062 v 25.64453 h -3.86719 v -25.64453 h -10.39063 v -3.4375 h 24.64844 z" style=""/>
   </g>
   <g id="flowRoot924-91" aria-label="TT" transform="matrix(0,0.26458333,-0.26458333,0,165.57436,-43.214875)" style="font-style:normal;font-weight:normal;font-size:40px;line-height:1.25;font-family:sans-serif;letter-spacing:0px;word-spacing:0px;fill:#000000;fill-opacity:1;stroke:none">
    <path id="path2147" d="m 143.44141,577.68071 h -10.39063 v 25.64453 h -3.86719 v -25.64453 h -10.39062 v -3.4375 h 24.64844 z" style=""/>
    <path id="path2149" d="m 166.80078,577.68071 h -10.39062 v 25.64453 h -3.86719 v -25.64453 h -10.39063 v -3.4375 h 24.64844 z" style=""/>
   </g>
  </g>
 </g>
 <style id="style2" type="text/css">
	.st0{fill:#464646;}
	.st1{fill:#D1D1D1;}
</style>
 <style id="style1115" type="text/css">
	.st0{fill:#464646;}
	.st1{fill:#D1D1D1;}
</style>
 <style id="style1133" type="text/css">
	.st0{fill:#D1D1D1;}
	.st1{fill:#454545;}
</style>
</svg>
