<?xml version='1.0' encoding='UTF-8' standalone='no'?>
<!-- Created with Inkscape (http://www.inkscape.org/) -->
<svg height="456.05142mm" xmlns:sodipodi="http://sodipodi.sourceforge.net/DTD/sodipodi-0.dtd" inkscape:export-ydpi="96" inkscape:version="0.92.4 (5da689c313, 2019-01-14)" inkscape:export-filename="C:\Users\max-k\Desktop\SENSO-Trail\Karten\+Transekten.png" xmlns="http://www.w3.org/2000/svg" xmlns:cc="http://creativecommons.org/ns#" inkscape:export-xdpi="96" sodipodi:docname="+TT.svg" xmlns:svg="http://www.w3.org/2000/svg" xmlns:rdf="http://www.w3.org/1999/02/22-rdf-syntax-ns#" xmlns:inkscape="http://www.inkscape.org/namespaces/inkscape" width="298.74887mm" xmlns:dc="http://purl.org/dc/elements/1.1/" viewBox="0 0 298.74888 456.05142" id="svg1643" version="1.1">
 <defs id="defs1637">
  <marker refY="0" refX="0" orient="auto" id="Arrow1Lend" inkscape:isstock="true" inkscape:stockid="Arrow1Lend" style="overflow:visible">
   <path inkscape:connector-curvature="0" d="M 0,0 5,-5 -12.5,0 5,5 Z" id="path1781" transform="matrix(-0.8,0,0,-0.8,-10,0)" style="fill:#4d4d4d;fill-opacity:1;fill-rule:evenodd;stroke:#4d4d4d;stroke-width:1.00000003pt;stroke-opacity:1"/>
  </marker>
  <marker refY="0" refX="0" orient="auto" id="Arrow1Lstart" inkscape:isstock="true" inkscape:stockid="Arrow1Lstart" style="overflow:visible">
   <path inkscape:connector-curvature="0" d="M 0,0 5,-5 -12.5,0 5,5 Z" id="path1778" transform="matrix(0.8,0,0,0.8,10,0)" style="fill:#000000;fill-opacity:1;fill-rule:evenodd;stroke:#000000;stroke-width:1.00000003pt;stroke-opacity:1"/>
  </marker>
  <inkscape:path-effect spacing="0" scale_y_rel="false" fuse_tolerance="0" prop_units="false" effect="skeletal" vertical_pattern="false" copytype="single_stretched" id="path-effect1370" normal_offset="0" tang_offset="0" is_visible="true" prop_scale="0.26458333" pattern="M 0,5 C 0,2.24 2.24,0 5,0 7.76,0 10,2.24 10,5 10,7.76 7.76,10 5,10 2.24,10 0,7.76 0,5 Z"/>
  <clipPath clipPathUnits="userSpaceOnUse" id="clipPath1445">
   <rect height="4.192791" ry="0" rx="0" y="286.94397" width="6.9323034" id="rect1447" x="-4.4099469" style="fill:#000000;fill-opacity:1;stroke:none;stroke-width:0.33813748;stroke-miterlimit:4;stroke-dasharray:none;stroke-opacity:0.99305558"/>
  </clipPath>
  <clipPath clipPathUnits="userSpaceOnUse" id="clipPath3321">
   <rect height="20.326616" ry="1.5809379" y="386.0423" rx="2.6286676" width="20.003973" id="rect3323" x="753.90729" style="opacity:0.51099997;fill:none;fill-opacity:1;stroke:#000000;stroke-width:0.42558613;stroke-miterlimit:4;stroke-dasharray:none;stroke-dashoffset:0;stroke-opacity:1"/>
  </clipPath>
  <clipPath clipPathUnits="userSpaceOnUse" id="clipPath1097">
   <rect height="20.326616" ry="1.5809379" y="-122.35031" rx="2.6286676" width="20.003973" id="rect1099" x="536.27081" style="opacity:0.51099997;fill:none;fill-opacity:1;stroke:#000000;stroke-width:0.42558613;stroke-miterlimit:4;stroke-dasharray:none;stroke-dashoffset:0;stroke-opacity:1"/>
  </clipPath>
  <clipPath clipPathUnits="userSpaceOnUse" id="clipPath1119">
   <rect height="20.326616" ry="1.5809379" rx="2.6286676" y="74.346153" width="20.003973" id="rect1121" x="330.99872" style="opacity:0.51099997;fill:none;fill-opacity:1;stroke:#000000;stroke-width:0.42558613;stroke-miterlimit:4;stroke-dasharray:none;stroke-dashoffset:0;stroke-opacity:1"/>
  </clipPath>
  <clipPath clipPathUnits="userSpaceOnUse" id="clipPath1411">
   <rect height="67.351921" y="565.86609" width="94.666862" id="rect1413" x="799.48285" style="opacity:0.99199997;fill:#0088aa;fill-opacity:1;stroke:#447821;stroke-width:3.68700004;stroke-miterlimit:4;stroke-dasharray:1.84350005, 1.84350005;stroke-dashoffset:0;stroke-opacity:0"/>
  </clipPath>
 </defs>
 <sodipodi:namedview pagecolor="#ffffff" fit-margin-left="0" inkscape:guide-bbox="true" inkscape:window-maximized="1" inkscape:snap-global="false" id="base" inkscape:pageopacity="0.0" showgrid="false" bordercolor="#666666" showguides="true" borderopacity="1.0" inkscape:document-units="mm" inkscape:snap-others="true" inkscape:current-layer="layer1" fit-margin-top="0" inkscape:window-y="-9" inkscape:snap-nodes="true" inkscape:zoom="0.3535534" inkscape:window-width="1920" fit-margin-right="0" inkscape:cx="112.72146" inkscape:window-x="-9" inkscape:cy="927.44122" inkscape:window-height="1001" inkscape:pageshadow="2" fit-margin-bottom="0" inkscape:snap-bbox="true"/>
 <metadata id="metadata1640">
  <rdf:RDF>
   <cc:Work rdf:about="">
    <dc:format>image/svg+xml</dc:format>
    <dc:type rdf:resource="http://purl.org/dc/dcmitype/StillImage"/>
    <dc:title/>
   </cc:Work>
  </rdf:RDF>
 </metadata>
 <g inkscape:groupmode="layer" inkscape:label="Ebene 1" id="layer1" transform="translate(19.319937,75.10423)">
  <flowRoot xml:space="preserve" id="flowRoot2344" transform="matrix(0.26458333,0,0,0.26458333,0,149)" style="font-style:normal;font-weight:normal;font-size:40px;line-height:1.25;font-family:sans-serif;letter-spacing:0px;word-spacing:0px;fill:#000000;fill-opacity:1;stroke:none">
   <flowRegion id="flowRegion2346">
    <rect height="45.714287" y="335.79861" width="132.85715" id="rect2348" x="52.142857"/>
   </flowRegion>
   <flowPara id="flowPara2350"/>
  </flowRoot>
  <flowRoot xml:space="preserve" id="flowRoot2422-4-1-6-1" transform="matrix(0.5290602,0,0,0.5290602,0.90877694,103.34547)" style="font-style:normal;font-variant:normal;font-weight:normal;font-stretch:normal;font-size:16px;line-height:1.25;font-family:sans-serif;-inkscape-font-specification:'sans-serif, Normal';font-variant-ligatures:normal;font-variant-caps:normal;font-variant-numeric:normal;font-feature-settings:normal;text-align:start;letter-spacing:0px;word-spacing:0px;writing-mode:lr-tb;text-anchor:start;fill:#000000;fill-opacity:1;stroke:none">
   <flowRegion id="flowRegion2418-7-7-2-8" style="font-style:normal;font-variant:normal;font-weight:normal;font-stretch:normal;font-size:16px;font-family:sans-serif;-inkscape-font-specification:'sans-serif, Normal';font-variant-ligatures:normal;font-variant-caps:normal;font-variant-numeric:normal;font-feature-settings:normal;text-align:start;writing-mode:lr-tb;text-anchor:start">
    <rect height="24.999996" y="27.227198" width="172.14285" id="rect2416-6-5-1-5" x="50.714287" style="font-style:normal;font-variant:normal;font-weight:normal;font-stretch:normal;font-size:16px;font-family:sans-serif;-inkscape-font-specification:'sans-serif, Normal';font-variant-ligatures:normal;font-variant-caps:normal;font-variant-numeric:normal;font-feature-settings:normal;text-align:start;writing-mode:lr-tb;text-anchor:start"/>
   </flowRegion>
   <flowPara id="flowPara2438-3-9-7-9"/>
  </flowRoot>
  <g id="g1279">
   <g aria-label="TT" id="flowRoot924" transform="matrix(0,0.26458333,-0.26458333,0,399.23973,52.93846)" style="font-style:normal;font-weight:normal;font-size:40px;line-height:1.25;font-family:sans-serif;letter-spacing:0px;word-spacing:0px;fill:#000000;fill-opacity:1;stroke:none">
    <path d="m 143.44141,577.68071 h -10.39063 v 25.64453 h -3.86719 v -25.64453 h -10.39062 v -3.4375 h 24.64844 z" id="path2082" style=""/>
    <path d="m 166.80078,577.68071 h -10.39062 v 25.64453 h -3.86719 v -25.64453 h -10.39063 v -3.4375 h 24.64844 z" id="path2084" style=""/>
   </g>
   <g aria-label="TT" id="flowRoot924-2" transform="matrix(0,0.26458333,-0.26458333,0,368.37847,97.475799)" style="font-style:normal;font-weight:normal;font-size:40px;line-height:1.25;font-family:sans-serif;letter-spacing:0px;word-spacing:0px;fill:#000000;fill-opacity:1;stroke:none">
    <path d="m 143.44141,577.68071 h -10.39063 v 25.64453 h -3.86719 v -25.64453 h -10.39062 v -3.4375 h 24.64844 z" id="path2087" style=""/>
    <path d="m 166.80078,577.68071 h -10.39062 v 25.64453 h -3.86719 v -25.64453 h -10.39063 v -3.4375 h 24.64844 z" id="path2089" style=""/>
   </g>
   <g aria-label="TT" id="flowRoot924-0" transform="matrix(0,0.26458333,-0.26458333,0,395.31924,122.1715)" style="font-style:normal;font-weight:normal;font-size:40px;line-height:1.25;font-family:sans-serif;letter-spacing:0px;word-spacing:0px;fill:#000000;fill-opacity:1;stroke:none">
    <path d="m 143.44141,577.68071 h -10.39063 v 25.64453 h -3.86719 v -25.64453 h -10.39062 v -3.4375 h 24.64844 z" id="path2092" style=""/>
    <path d="m 166.80078,577.68071 h -10.39062 v 25.64453 h -3.86719 v -25.64453 h -10.39063 v -3.4375 h 24.64844 z" id="path2094" style=""/>
   </g>
   <g aria-label="TT" id="flowRoot924-06" transform="matrix(0,0.26458333,-0.26458333,0,360.14657,171.56291)" style="font-style:normal;font-weight:normal;font-size:40px;line-height:1.25;font-family:sans-serif;letter-spacing:0px;word-spacing:0px;fill:#000000;fill-opacity:1;stroke:none">
    <path d="m 143.44141,577.68071 h -10.39063 v 25.64453 h -3.86719 v -25.64453 h -10.39062 v -3.4375 h 24.64844 z" id="path2097" style=""/>
    <path d="m 166.80078,577.68071 h -10.39062 v 25.64453 h -3.86719 v -25.64453 h -10.39063 v -3.4375 h 24.64844 z" id="path2099" style=""/>
   </g>
   <g aria-label="TT" id="flowRoot924-5" transform="matrix(0,0.26458333,-0.26458333,0,308.5101,178.2981)" style="font-style:normal;font-weight:normal;font-size:40px;line-height:1.25;font-family:sans-serif;letter-spacing:0px;word-spacing:0px;fill:#000000;fill-opacity:1;stroke:none">
    <path d="m 143.44141,577.68071 h -10.39063 v 25.64453 h -3.86719 v -25.64453 h -10.39062 v -3.4375 h 24.64844 z" id="path2102" style=""/>
    <path d="m 166.80078,577.68071 h -10.39062 v 25.64453 h -3.86719 v -25.64453 h -10.39063 v -3.4375 h 24.64844 z" id="path2104" style=""/>
   </g>
   <g aria-label="TT" id="flowRoot924-3" transform="matrix(0,0.26458333,-0.26458333,0,328.71567,149.11227)" style="font-style:normal;font-weight:normal;font-size:40px;line-height:1.25;font-family:sans-serif;letter-spacing:0px;word-spacing:0px;fill:#000000;fill-opacity:1;stroke:none">
    <path d="m 143.44141,577.68071 h -10.39063 v 25.64453 h -3.86719 v -25.64453 h -10.39062 v -3.4375 h 24.64844 z" id="path2107" style=""/>
    <path d="m 166.80078,577.68071 h -10.39062 v 25.64453 h -3.86719 v -25.64453 h -10.39063 v -3.4375 h 24.64844 z" id="path2109" style=""/>
   </g>
   <g aria-label="TT" id="flowRoot924-02" transform="matrix(0,0.26458333,-0.26458333,0,317.49035,253.88192)" style="font-style:normal;font-weight:normal;font-size:40px;line-height:1.25;font-family:sans-serif;letter-spacing:0px;word-spacing:0px;fill:#000000;fill-opacity:1;stroke:none">
    <path d="m 143.44141,577.68071 h -10.39063 v 25.64453 h -3.86719 v -25.64453 h -10.39062 v -3.4375 h 24.64844 z" id="path2112" style=""/>
    <path d="m 166.80078,577.68071 h -10.39062 v 25.64453 h -3.86719 v -25.64453 h -10.39063 v -3.4375 h 24.64844 z" id="path2114" style=""/>
   </g>
   <g aria-label="TT" id="flowRoot924-9" transform="matrix(0,0.26458333,-0.26458333,0,249.39008,206.73558)" style="font-style:normal;font-weight:normal;font-size:40px;line-height:1.25;font-family:sans-serif;letter-spacing:0px;word-spacing:0px;fill:#000000;fill-opacity:1;stroke:none">
    <path d="m 143.44141,577.68071 h -10.39063 v 25.64453 h -3.86719 v -25.64453 h -10.39062 v -3.4375 h 24.64844 z" id="path2117" style=""/>
    <path d="m 166.80078,577.68071 h -10.39062 v 25.64453 h -3.86719 v -25.64453 h -10.39063 v -3.4375 h 24.64844 z" id="path2119" style=""/>
   </g>
   <g aria-label="TT" id="flowRoot924-8" transform="matrix(0,0.26458333,-0.26458333,0,204.4888,168.56949)" style="font-style:normal;font-weight:normal;font-size:40px;line-height:1.25;font-family:sans-serif;letter-spacing:0px;word-spacing:0px;fill:#000000;fill-opacity:1;stroke:none">
    <path d="m 143.44141,577.68071 h -10.39063 v 25.64453 h -3.86719 v -25.64453 h -10.39062 v -3.4375 h 24.64844 z" id="path2122" style=""/>
    <path d="m 166.80078,577.68071 h -10.39062 v 25.64453 h -3.86719 v -25.64453 h -10.39063 v -3.4375 h 24.64844 z" id="path2124" style=""/>
   </g>
   <g aria-label="TT" id="flowRoot924-7" transform="matrix(0,0.26458333,-0.26458333,0,228.43615,116.18467)" style="font-style:normal;font-weight:normal;font-size:40px;line-height:1.25;font-family:sans-serif;letter-spacing:0px;word-spacing:0px;fill:#000000;fill-opacity:1;stroke:none">
    <path d="m 143.44141,577.68071 h -10.39063 v 25.64453 h -3.86719 v -25.64453 h -10.39062 v -3.4375 h 24.64844 z" id="path2127" style=""/>
    <path d="m 166.80078,577.68071 h -10.39062 v 25.64453 h -3.86719 v -25.64453 h -10.39063 v -3.4375 h 24.64844 z" id="path2129" style=""/>
   </g>
   <g aria-label="TT" id="flowRoot924-89" transform="matrix(0,0.26458333,-0.26458333,0,183.53487,138.6353)" style="font-style:normal;font-weight:normal;font-size:40px;line-height:1.25;font-family:sans-serif;letter-spacing:0px;word-spacing:0px;fill:#000000;fill-opacity:1;stroke:none">
    <path d="m 143.44141,577.68071 h -10.39063 v 25.64453 h -3.86719 v -25.64453 h -10.39062 v -3.4375 h 24.64844 z" id="path2132" style=""/>
    <path d="m 166.80078,577.68071 h -10.39062 v 25.64453 h -3.86719 v -25.64453 h -10.39063 v -3.4375 h 24.64844 z" id="path2134" style=""/>
   </g>
   <g aria-label="TT" id="flowRoot924-25" transform="matrix(0,0.26458333,-0.26458333,0,185.03158,21.891979)" style="font-style:normal;font-weight:normal;font-size:40px;line-height:1.25;font-family:sans-serif;letter-spacing:0px;word-spacing:0px;fill:#000000;fill-opacity:1;stroke:none">
    <path d="m 143.44141,577.68071 h -10.39063 v 25.64453 h -3.86719 v -25.64453 h -10.39062 v -3.4375 h 24.64844 z" id="path2137" style=""/>
    <path d="m 166.80078,577.68071 h -10.39062 v 25.64453 h -3.86719 v -25.64453 h -10.39063 v -3.4375 h 24.64844 z" id="path2139" style=""/>
   </g>
   <g aria-label="TT" id="flowRoot924-1" transform="matrix(0,0.26458333,-0.26458333,0,231.42957,4.679822)" style="font-style:normal;font-weight:normal;font-size:40px;line-height:1.25;font-family:sans-serif;letter-spacing:0px;word-spacing:0px;fill:#000000;fill-opacity:1;stroke:none">
    <path d="m 143.44141,577.68071 h -10.39063 v 25.64453 h -3.86719 v -25.64453 h -10.39062 v -3.4375 h 24.64844 z" id="path2142" style=""/>
    <path d="m 166.80078,577.68071 h -10.39062 v 25.64453 h -3.86719 v -25.64453 h -10.39063 v -3.4375 h 24.64844 z" id="path2144" style=""/>
   </g>
   <g aria-label="TT" id="flowRoot924-91" transform="matrix(0,0.26458333,-0.26458333,0,165.57436,-43.214875)" style="font-style:normal;font-weight:normal;font-size:40px;line-height:1.25;font-family:sans-serif;letter-spacing:0px;word-spacing:0px;fill:#000000;fill-opacity:1;stroke:none">
    <path d="m 143.44141,577.68071 h -10.39063 v 25.64453 h -3.86719 v -25.64453 h -10.39062 v -3.4375 h 24.64844 z" id="path2147" style=""/>
    <path d="m 166.80078,577.68071 h -10.39062 v 25.64453 h -3.86719 v -25.64453 h -10.39063 v -3.4375 h 24.64844 z" id="path2149" style=""/>
   </g>
  </g>
 </g>
 <style id="style2" type="text/css">
	.st0{fill:#464646;}
	.st1{fill:#D1D1D1;}
</style>
 <style id="style1115" type="text/css">
	.st0{fill:#464646;}
	.st1{fill:#D1D1D1;}
</style>
 <style id="style1133" type="text/css">
	.st0{fill:#D1D1D1;}
	.st1{fill:#454545;}
</style>
</svg>
