<?xml version='1.0' encoding='UTF-8' standalone='no'?>
<!-- Created with Inkscape (http://www.inkscape.org/) -->
<svg height="456.05142mm" sodipodi:docname="+TT.svg" width="298.74887mm" inkscape:export-filename="C:\Users\max-k\Desktop\SENSO-Trail\Karten\+Transekten.png" xmlns:svg="http://www.w3.org/2000/svg" version="1.1" id="svg1643" inkscape:export-ydpi="96" xmlns:dc="http://purl.org/dc/elements/1.1/" xmlns:rdf="http://www.w3.org/1999/02/22-rdf-syntax-ns#" xmlns:sodipodi="http://sodipodi.sourceforge.net/DTD/sodipodi-0.dtd" xmlns:cc="http://creativecommons.org/ns#" xmlns="http://www.w3.org/2000/svg" viewBox="0 0 298.74888 456.05142" xmlns:inkscape="http://www.inkscape.org/namespaces/inkscape" inkscape:version="0.92.4 (5da689c313, 2019-01-14)" inkscape:export-xdpi="96">
 <defs id="defs1637">
  <marker inkscape:isstock="true" orient="auto" refY="0" id="Arrow1Lend" style="overflow:visible" refX="0" inkscape:stockid="Arrow1Lend">
   <path transform="matrix(-0.8,0,0,-0.8,-10,0)" inkscape:connector-curvature="0" id="path1781" style="fill:#4d4d4d;fill-opacity:1;fill-rule:evenodd;stroke:#4d4d4d;stroke-width:1.00000003pt;stroke-opacity:1" d="M 0,0 5,-5 -12.5,0 5,5 Z"/>
  </marker>
  <marker inkscape:isstock="true" orient="auto" refY="0" id="Arrow1Lstart" style="overflow:visible" refX="0" inkscape:stockid="Arrow1Lstart">
   <path transform="matrix(0.8,0,0,0.8,10,0)" inkscape:connector-curvature="0" id="path1778" style="fill:#000000;fill-opacity:1;fill-rule:evenodd;stroke:#000000;stroke-width:1.00000003pt;stroke-opacity:1" d="M 0,0 5,-5 -12.5,0 5,5 Z"/>
  </marker>
  <inkscape:path-effect prop_scale="0.26458333" spacing="0" fuse_tolerance="0" prop_units="false" id="path-effect1370" vertical_pattern="false" is_visible="true" normal_offset="0" effect="skeletal" tang_offset="0" copytype="single_stretched" scale_y_rel="false" pattern="M 0,5 C 0,2.24 2.24,0 5,0 7.76,0 10,2.24 10,5 10,7.76 7.76,10 5,10 2.24,10 0,7.76 0,5 Z"/>
  <clipPath id="clipPath1445" clipPathUnits="userSpaceOnUse">
   <rect height="4.192791" width="6.9323034" ry="0" y="286.94397" id="rect1447" style="fill:#000000;fill-opacity:1;stroke:none;stroke-width:0.33813748;stroke-miterlimit:4;stroke-dasharray:none;stroke-opacity:0.99305558" x="-4.4099469" rx="0"/>
  </clipPath>
  <clipPath id="clipPath3321" clipPathUnits="userSpaceOnUse">
   <rect height="20.326616" width="20.003973" id="rect3323" y="386.0423" ry="1.5809379" style="opacity:0.51099997;fill:none;fill-opacity:1;stroke:#000000;stroke-width:0.42558613;stroke-miterlimit:4;stroke-dasharray:none;stroke-dashoffset:0;stroke-opacity:1" x="753.90729" rx="2.6286676"/>
  </clipPath>
  <clipPath id="clipPath1097" clipPathUnits="userSpaceOnUse">
   <rect height="20.326616" width="20.003973" id="rect1099" y="-122.35031" ry="1.5809379" style="opacity:0.51099997;fill:none;fill-opacity:1;stroke:#000000;stroke-width:0.42558613;stroke-miterlimit:4;stroke-dasharray:none;stroke-dashoffset:0;stroke-opacity:1" x="536.27081" rx="2.6286676"/>
  </clipPath>
  <clipPath id="clipPath1119" clipPathUnits="userSpaceOnUse">
   <rect height="20.326616" width="20.003973" ry="1.5809379" y="74.346153" id="rect1121" style="opacity:0.51099997;fill:none;fill-opacity:1;stroke:#000000;stroke-width:0.42558613;stroke-miterlimit:4;stroke-dasharray:none;stroke-dashoffset:0;stroke-opacity:1" x="330.99872" rx="2.6286676"/>
  </clipPath>
  <clipPath id="clipPath1411" clipPathUnits="userSpaceOnUse">
   <rect height="67.351921" width="94.666862" y="565.86609" id="rect1413" style="opacity:0.99199997;fill:#0088aa;fill-opacity:1;stroke:#447821;stroke-width:3.68700004;stroke-miterlimit:4;stroke-dasharray:1.84350005, 1.84350005;stroke-dashoffset:0;stroke-opacity:0" x="799.48285"/>
  </clipPath>
 </defs>
 <sodipodi:namedview fit-margin-right="0" inkscape:window-height="1001" inkscape:pageopacity="0.0" inkscape:window-x="-9" fit-margin-bottom="0" bordercolor="#666666" fit-margin-left="0" showgrid="false" pagecolor="#ffffff" borderopacity="1.0" inkscape:current-layer="layer1" inkscape:snap-bbox="true" showguides="true" inkscape:cy="927.44122" inkscape:snap-nodes="true" inkscape:pageshadow="2" id="base" inkscape:window-y="-9" inkscape:window-maximized="1" inkscape:document-units="mm" fit-margin-top="0" inkscape:window-width="1920" inkscape:snap-global="false" inkscape:zoom="0.3535534" inkscape:guide-bbox="true" inkscape:snap-others="true" inkscape:cx="112.72146"/>
 <metadata id="metadata1640">
  <rdf:RDF>
   <cc:Work rdf:about="">
    <dc:format>image/svg+xml</dc:format>
    <dc:type rdf:resource="http://purl.org/dc/dcmitype/StillImage"/>
    <dc:title/>
   </cc:Work>
  </rdf:RDF>
 </metadata>
 <g inkscape:groupmode="layer" transform="translate(19.319937,75.10423)" inkscape:label="Ebene 1" id="layer1">
  <flowRoot transform="matrix(0.26458333,0,0,0.26458333,0,149)" id="flowRoot2344" style="font-style:normal;font-weight:normal;font-size:40px;line-height:1.25;font-family:sans-serif;letter-spacing:0px;word-spacing:0px;fill:#000000;fill-opacity:1;stroke:none" xml:space="preserve">
   <flowRegion id="flowRegion2346">
    <rect height="45.714287" width="132.85715" id="rect2348" y="335.79861" x="52.142857"/>
   </flowRegion>
   <flowPara id="flowPara2350"/>
  </flowRoot>
  <flowRoot transform="matrix(0.5290602,0,0,0.5290602,0.90877694,103.34547)" id="flowRoot2422-4-1-6-1" style="font-style:normal;font-variant:normal;font-weight:normal;font-stretch:normal;font-size:16px;line-height:1.25;font-family:sans-serif;-inkscape-font-specification:'sans-serif, Normal';font-variant-ligatures:normal;font-variant-caps:normal;font-variant-numeric:normal;font-feature-settings:normal;text-align:start;letter-spacing:0px;word-spacing:0px;writing-mode:lr-tb;text-anchor:start;fill:#000000;fill-opacity:1;stroke:none" xml:space="preserve">
   <flowRegion id="flowRegion2418-7-7-2-8" style="font-style:normal;font-variant:normal;font-weight:normal;font-stretch:normal;font-size:16px;font-family:sans-serif;-inkscape-font-specification:'sans-serif, Normal';font-variant-ligatures:normal;font-variant-caps:normal;font-variant-numeric:normal;font-feature-settings:normal;text-align:start;writing-mode:lr-tb;text-anchor:start">
    <rect height="24.999996" width="172.14285" y="27.227198" id="rect2416-6-5-1-5" style="font-style:normal;font-variant:normal;font-weight:normal;font-stretch:normal;font-size:16px;font-family:sans-serif;-inkscape-font-specification:'sans-serif, Normal';font-variant-ligatures:normal;font-variant-caps:normal;font-variant-numeric:normal;font-feature-settings:normal;text-align:start;writing-mode:lr-tb;text-anchor:start" x="50.714287"/>
   </flowRegion>
   <flowPara id="flowPara2438-3-9-7-9"/>
  </flowRoot>
  <g id="g1279">
   <g transform="matrix(0,0.26458333,-0.26458333,0,399.23973,52.93846)" id="flowRoot924" style="font-style:normal;font-weight:normal;font-size:40px;line-height:1.25;font-family:sans-serif;letter-spacing:0px;word-spacing:0px;fill:#000000;fill-opacity:1;stroke:none" aria-label="TT">
    <path id="path2082" style="" d="m 143.44141,577.68071 h -10.39063 v 25.64453 h -3.86719 v -25.64453 h -10.39062 v -3.4375 h 24.64844 z"/>
    <path id="path2084" style="" d="m 166.80078,577.68071 h -10.39062 v 25.64453 h -3.86719 v -25.64453 h -10.39063 v -3.4375 h 24.64844 z"/>
   </g>
   <g transform="matrix(0,0.26458333,-0.26458333,0,368.37847,97.475799)" id="flowRoot924-2" style="font-style:normal;font-weight:normal;font-size:40px;line-height:1.25;font-family:sans-serif;letter-spacing:0px;word-spacing:0px;fill:#000000;fill-opacity:1;stroke:none" aria-label="TT">
    <path id="path2087" style="" d="m 143.44141,577.68071 h -10.39063 v 25.64453 h -3.86719 v -25.64453 h -10.39062 v -3.4375 h 24.64844 z"/>
    <path id="path2089" style="" d="m 166.80078,577.68071 h -10.39062 v 25.64453 h -3.86719 v -25.64453 h -10.39063 v -3.4375 h 24.64844 z"/>
   </g>
   <g transform="matrix(0,0.26458333,-0.26458333,0,395.31924,122.1715)" id="flowRoot924-0" style="font-style:normal;font-weight:normal;font-size:40px;line-height:1.25;font-family:sans-serif;letter-spacing:0px;word-spacing:0px;fill:#000000;fill-opacity:1;stroke:none" aria-label="TT">
    <path id="path2092" style="" d="m 143.44141,577.68071 h -10.39063 v 25.64453 h -3.86719 v -25.64453 h -10.39062 v -3.4375 h 24.64844 z"/>
    <path id="path2094" style="" d="m 166.80078,577.68071 h -10.39062 v 25.64453 h -3.86719 v -25.64453 h -10.39063 v -3.4375 h 24.64844 z"/>
   </g>
   <g transform="matrix(0,0.26458333,-0.26458333,0,360.14657,171.56291)" id="flowRoot924-06" style="font-style:normal;font-weight:normal;font-size:40px;line-height:1.25;font-family:sans-serif;letter-spacing:0px;word-spacing:0px;fill:#000000;fill-opacity:1;stroke:none" aria-label="TT">
    <path id="path2097" style="" d="m 143.44141,577.68071 h -10.39063 v 25.64453 h -3.86719 v -25.64453 h -10.39062 v -3.4375 h 24.64844 z"/>
    <path id="path2099" style="" d="m 166.80078,577.68071 h -10.39062 v 25.64453 h -3.86719 v -25.64453 h -10.39063 v -3.4375 h 24.64844 z"/>
   </g>
   <g transform="matrix(0,0.26458333,-0.26458333,0,308.5101,178.2981)" id="flowRoot924-5" style="font-style:normal;font-weight:normal;font-size:40px;line-height:1.25;font-family:sans-serif;letter-spacing:0px;word-spacing:0px;fill:#000000;fill-opacity:1;stroke:none" aria-label="TT">
    <path id="path2102" style="" d="m 143.44141,577.68071 h -10.39063 v 25.64453 h -3.86719 v -25.64453 h -10.39062 v -3.4375 h 24.64844 z"/>
    <path id="path2104" style="" d="m 166.80078,577.68071 h -10.39062 v 25.64453 h -3.86719 v -25.64453 h -10.39063 v -3.4375 h 24.64844 z"/>
   </g>
   <g transform="matrix(0,0.26458333,-0.26458333,0,328.71567,149.11227)" id="flowRoot924-3" style="font-style:normal;font-weight:normal;font-size:40px;line-height:1.25;font-family:sans-serif;letter-spacing:0px;word-spacing:0px;fill:#000000;fill-opacity:1;stroke:none" aria-label="TT">
    <path id="path2107" style="" d="m 143.44141,577.68071 h -10.39063 v 25.64453 h -3.86719 v -25.64453 h -10.39062 v -3.4375 h 24.64844 z"/>
    <path id="path2109" style="" d="m 166.80078,577.68071 h -10.39062 v 25.64453 h -3.86719 v -25.64453 h -10.39063 v -3.4375 h 24.64844 z"/>
   </g>
   <g transform="matrix(0,0.26458333,-0.26458333,0,317.49035,253.88192)" id="flowRoot924-02" style="font-style:normal;font-weight:normal;font-size:40px;line-height:1.25;font-family:sans-serif;letter-spacing:0px;word-spacing:0px;fill:#000000;fill-opacity:1;stroke:none" aria-label="TT">
    <path id="path2112" style="" d="m 143.44141,577.68071 h -10.39063 v 25.64453 h -3.86719 v -25.64453 h -10.39062 v -3.4375 h 24.64844 z"/>
    <path id="path2114" style="" d="m 166.80078,577.68071 h -10.39062 v 25.64453 h -3.86719 v -25.64453 h -10.39063 v -3.4375 h 24.64844 z"/>
   </g>
   <g transform="matrix(0,0.26458333,-0.26458333,0,249.39008,206.73558)" id="flowRoot924-9" style="font-style:normal;font-weight:normal;font-size:40px;line-height:1.25;font-family:sans-serif;letter-spacing:0px;word-spacing:0px;fill:#000000;fill-opacity:1;stroke:none" aria-label="TT">
    <path id="path2117" style="" d="m 143.44141,577.68071 h -10.39063 v 25.64453 h -3.86719 v -25.64453 h -10.39062 v -3.4375 h 24.64844 z"/>
    <path id="path2119" style="" d="m 166.80078,577.68071 h -10.39062 v 25.64453 h -3.86719 v -25.64453 h -10.39063 v -3.4375 h 24.64844 z"/>
   </g>
   <g transform="matrix(0,0.26458333,-0.26458333,0,204.4888,168.56949)" id="flowRoot924-8" style="font-style:normal;font-weight:normal;font-size:40px;line-height:1.25;font-family:sans-serif;letter-spacing:0px;word-spacing:0px;fill:#000000;fill-opacity:1;stroke:none" aria-label="TT">
    <path id="path2122" style="" d="m 143.44141,577.68071 h -10.39063 v 25.64453 h -3.86719 v -25.64453 h -10.39062 v -3.4375 h 24.64844 z"/>
    <path id="path2124" style="" d="m 166.80078,577.68071 h -10.39062 v 25.64453 h -3.86719 v -25.64453 h -10.39063 v -3.4375 h 24.64844 z"/>
   </g>
   <g transform="matrix(0,0.26458333,-0.26458333,0,228.43615,116.18467)" id="flowRoot924-7" style="font-style:normal;font-weight:normal;font-size:40px;line-height:1.25;font-family:sans-serif;letter-spacing:0px;word-spacing:0px;fill:#000000;fill-opacity:1;stroke:none" aria-label="TT">
    <path id="path2127" style="" d="m 143.44141,577.68071 h -10.39063 v 25.64453 h -3.86719 v -25.64453 h -10.39062 v -3.4375 h 24.64844 z"/>
    <path id="path2129" style="" d="m 166.80078,577.68071 h -10.39062 v 25.64453 h -3.86719 v -25.64453 h -10.39063 v -3.4375 h 24.64844 z"/>
   </g>
   <g transform="matrix(0,0.26458333,-0.26458333,0,183.53487,138.6353)" id="flowRoot924-89" style="font-style:normal;font-weight:normal;font-size:40px;line-height:1.25;font-family:sans-serif;letter-spacing:0px;word-spacing:0px;fill:#000000;fill-opacity:1;stroke:none" aria-label="TT">
    <path id="path2132" style="" d="m 143.44141,577.68071 h -10.39063 v 25.64453 h -3.86719 v -25.64453 h -10.39062 v -3.4375 h 24.64844 z"/>
    <path id="path2134" style="" d="m 166.80078,577.68071 h -10.39062 v 25.64453 h -3.86719 v -25.64453 h -10.39063 v -3.4375 h 24.64844 z"/>
   </g>
   <g transform="matrix(0,0.26458333,-0.26458333,0,185.03158,21.891979)" id="flowRoot924-25" style="font-style:normal;font-weight:normal;font-size:40px;line-height:1.25;font-family:sans-serif;letter-spacing:0px;word-spacing:0px;fill:#000000;fill-opacity:1;stroke:none" aria-label="TT">
    <path id="path2137" style="" d="m 143.44141,577.68071 h -10.39063 v 25.64453 h -3.86719 v -25.64453 h -10.39062 v -3.4375 h 24.64844 z"/>
    <path id="path2139" style="" d="m 166.80078,577.68071 h -10.39062 v 25.64453 h -3.86719 v -25.64453 h -10.39063 v -3.4375 h 24.64844 z"/>
   </g>
   <g transform="matrix(0,0.26458333,-0.26458333,0,231.42957,4.679822)" id="flowRoot924-1" style="font-style:normal;font-weight:normal;font-size:40px;line-height:1.25;font-family:sans-serif;letter-spacing:0px;word-spacing:0px;fill:#000000;fill-opacity:1;stroke:none" aria-label="TT">
    <path id="path2142" style="" d="m 143.44141,577.68071 h -10.39063 v 25.64453 h -3.86719 v -25.64453 h -10.39062 v -3.4375 h 24.64844 z"/>
    <path id="path2144" style="" d="m 166.80078,577.68071 h -10.39062 v 25.64453 h -3.86719 v -25.64453 h -10.39063 v -3.4375 h 24.64844 z"/>
   </g>
   <g transform="matrix(0,0.26458333,-0.26458333,0,165.57436,-43.214875)" id="flowRoot924-91" style="font-style:normal;font-weight:normal;font-size:40px;line-height:1.25;font-family:sans-serif;letter-spacing:0px;word-spacing:0px;fill:#000000;fill-opacity:1;stroke:none" aria-label="TT">
    <path id="path2147" style="" d="m 143.44141,577.68071 h -10.39063 v 25.64453 h -3.86719 v -25.64453 h -10.39062 v -3.4375 h 24.64844 z"/>
    <path id="path2149" style="" d="m 166.80078,577.68071 h -10.39062 v 25.64453 h -3.86719 v -25.64453 h -10.39063 v -3.4375 h 24.64844 z"/>
   </g>
  </g>
 </g>
 <style id="style2" type="text/css">
	.st0{fill:#464646;}
	.st1{fill:#D1D1D1;}
</style>
 <style id="style1115" type="text/css">
	.st0{fill:#464646;}
	.st1{fill:#D1D1D1;}
</style>
 <style id="style1133" type="text/css">
	.st0{fill:#D1D1D1;}
	.st1{fill:#454545;}
</style>
</svg>
