<?xml version='1.0' encoding='UTF-8' standalone='no'?>
<!-- Created with Inkscape (http://www.inkscape.org/) -->
<svg xmlns:sodipodi="http://sodipodi.sourceforge.net/DTD/sodipodi-0.dtd" width="90.894058mm" sodipodi:docname="SENSO-Trail Logo.svg" version="1.1" inkscape:export-ydpi="500" xmlns:dc="http://purl.org/dc/elements/1.1/" viewBox="0 0 90.89406 100" xmlns:svg="http://www.w3.org/2000/svg" xmlns:rdf="http://www.w3.org/1999/02/22-rdf-syntax-ns#" height="100mm" inkscape:export-xdpi="500" xmlns:cc="http://creativecommons.org/ns#" xmlns:inkscape="http://www.inkscape.org/namespaces/inkscape" inkscape:version="0.92.4 (5da689c313, 2019-01-14)" xmlns="http://www.w3.org/2000/svg" id="svg8" inkscape:export-filename="C:\Users\max-k\Desktop\SENSO-Trail Logo.png">
 <defs id="defs2">
  <pattern width="6" x="0" height="6" patternUnits="userSpaceOnUse" y="0" id="WMFhbasepattern"/>
  <clipPath clipPathUnits="userSpaceOnUse" id="clipPath1742">
   <rect width="50.387119" x="703.46558" style="opacity:0.431;fill:#203864;fill-opacity:1;stroke:#203864;stroke-width:0.44680217;stroke-miterlimit:4;stroke-dasharray:none;stroke-opacity:1" height="48.358841" y="-38.351192" id="rect1744"/>
  </clipPath>
  <clipPath clipPathUnits="userSpaceOnUse" id="clipPath1781">
   <rect width="104.21924" x="623.88123" style="opacity:0.431;fill:#203864;fill-opacity:1;stroke:#203864;stroke-width:0.46499997;stroke-miterlimit:4;stroke-dasharray:none;stroke-opacity:1" height="104.21924" y="210.94745" id="rect1783"/>
  </clipPath>
  <clipPath clipPathUnits="userSpaceOnUse" id="clipPath1802">
   <rect width="175.41483" x="666.9259" style="opacity:0.431;fill:#203864;fill-opacity:1;stroke:#203864;stroke-width:0.5018211;stroke-miterlimit:4;stroke-dasharray:none;stroke-opacity:1" height="175.41483" y="-39.064716" id="rect1804"/>
  </clipPath>
  <clipPath clipPathUnits="userSpaceOnUse" id="clipPath1806">
   <rect width="201.63367" x="677.48096" style="opacity:0.431;fill:#203864;fill-opacity:1;stroke:#203864;stroke-width:0.57682711;stroke-miterlimit:4;stroke-dasharray:none;stroke-opacity:1" height="201.63367" y="-290.01392" id="rect1808"/>
  </clipPath>
  <pattern width="6" x="0" height="6" patternUnits="userSpaceOnUse" y="0" id="WMFhbasepattern-7"/>
  <clipPath clipPathUnits="userSpaceOnUse" id="clipPath1742-0">
   <rect width="50.387119" x="703.46558" style="opacity:0.431;fill:#203864;fill-opacity:1;stroke:#203864;stroke-width:0.44680217;stroke-miterlimit:4;stroke-dasharray:none;stroke-opacity:1" height="48.358841" y="-38.351192" id="rect1744-6"/>
  </clipPath>
  <clipPath clipPathUnits="userSpaceOnUse" id="clipPath1781-7">
   <rect width="104.21924" x="623.88123" style="opacity:0.431;fill:#203864;fill-opacity:1;stroke:#203864;stroke-width:0.46499997;stroke-miterlimit:4;stroke-dasharray:none;stroke-opacity:1" height="104.21924" y="210.94745" id="rect1783-2"/>
  </clipPath>
  <clipPath clipPathUnits="userSpaceOnUse" id="clipPath1802-7">
   <rect width="175.41483" x="666.9259" style="opacity:0.431;fill:#203864;fill-opacity:1;stroke:#203864;stroke-width:0.5018211;stroke-miterlimit:4;stroke-dasharray:none;stroke-opacity:1" height="175.41483" y="-39.064716" id="rect1804-2"/>
  </clipPath>
  <clipPath clipPathUnits="userSpaceOnUse" id="clipPath1806-0">
   <rect width="201.63367" x="677.48096" style="opacity:0.431;fill:#203864;fill-opacity:1;stroke:#203864;stroke-width:0.57682711;stroke-miterlimit:4;stroke-dasharray:none;stroke-opacity:1" height="201.63367" y="-290.01392" id="rect1808-3"/>
  </clipPath>
 </defs>
 <sodipodi:namedview inkscape:window-height="1001" inkscape:snap-page="false" fit-margin-right="0" units="mm" inkscape:snap-grids="false" fit-margin-top="0" inkscape:cy="210.55306" inkscape:snap-global="true" inkscape:document-units="mm" bordercolor="#666666" inkscape:snap-text-baseline="false" inkscape:window-x="-9" inkscape:snap-others="false" inkscape:snap-nodes="false" inkscape:zoom="1.5653667" inkscape:window-width="1920" inkscape:snap-to-guides="false" id="base" showguides="false" fit-margin-bottom="0" pagecolor="#ffffff" inkscape:pageopacity="0.0" inkscape:current-layer="layer1" inkscape:pageshadow="2" borderopacity="1.0" inkscape:window-maximized="1" inkscape:window-y="1071" inkscape:cx="194.88813" showgrid="false" fit-margin-left="0"/>
 <metadata id="metadata5">
  <rdf:RDF>
   <cc:Work rdf:about="">
    <dc:format>image/svg+xml</dc:format>
    <dc:type rdf:resource="http://purl.org/dc/dcmitype/StillImage"/>
    <dc:title/>
   </cc:Work>
  </rdf:RDF>
 </metadata>
 <g inkscape:groupmode="layer" transform="translate(506.16129,133.28624)" inkscape:label="Ebene 1" id="layer1">
  <g transform="matrix(0.35277777,0,0,0.35277777,0,79.327084)" id="surface954865"/>
  <flowRoot xml:space="preserve" style="font-style:normal;font-weight:normal;font-size:40px;line-height:1.25;font-family:sans-serif;letter-spacing:0px;word-spacing:0px;fill:#000000;fill-opacity:1;stroke:none" id="flowRoot5013">
   <flowRegion id="flowRegion5015">
    <rect width="685.34662" x="9.375001" height="988.47095" y="356.15161" id="rect5017"/>
   </flowRegion>
   <flowPara id="flowPara5019"/>
  </flowRoot>
  <flowRoot xml:space="preserve" style="font-style:normal;font-weight:normal;font-size:40px;line-height:1.25;font-family:sans-serif;letter-spacing:0px;word-spacing:0px;fill:#000000;fill-opacity:1;stroke:none" id="flowRoot5021">
   <flowRegion id="flowRegion5023">
    <rect width="662.93628" x="9.375001" height="932.44501" y="356.15161" id="rect5025"/>
   </flowRegion>
   <flowPara id="flowPara5027"/>
  </flowRoot>
  <flowRoot xml:space="preserve" style="font-style:normal;font-variant:normal;font-weight:normal;font-stretch:normal;font-size:27.59069824px;line-height:1.25;font-family:Arial;-inkscape-font-specification:'Arial, Normal';font-variant-ligatures:normal;font-variant-caps:normal;font-variant-numeric:normal;font-feature-settings:normal;text-align:justify;letter-spacing:0px;word-spacing:0px;writing-mode:lr-tb;text-anchor:start;fill:#000000;fill-opacity:1;stroke:none" transform="matrix(0.28132582,0,0,0.28126314,-15.738327,-154.22208)" id="flowRoot5040">
   <flowRegion style="font-style:normal;font-variant:normal;font-weight:normal;font-stretch:normal;font-size:27.59069824px;font-family:Arial;-inkscape-font-specification:'Arial, Normal';font-variant-ligatures:normal;font-variant-caps:normal;font-variant-numeric:normal;font-feature-settings:normal;text-align:justify;writing-mode:lr-tb;text-anchor:start" id="flowRegion5042">
    <rect width="590.13989" x="82.171379" style="font-style:normal;font-variant:normal;font-weight:normal;font-stretch:normal;font-size:27.59069824px;font-family:Arial;-inkscape-font-specification:'Arial, Normal';font-variant-ligatures:normal;font-variant-caps:normal;font-variant-numeric:normal;font-feature-settings:normal;text-align:justify;writing-mode:lr-tb;text-anchor:start" height="903.88513" y="377.24136" id="rect5044"/>
   </flowRegion>
   <flowPara id="flowPara1212"/>
  </flowRoot>
  <flowRoot xml:space="preserve" style="font-style:normal;font-variant:normal;font-weight:normal;font-stretch:normal;font-size:26.66666794px;line-height:1.25;font-family:sans-serif;-inkscape-font-specification:'sans-serif, Normal';font-variant-ligatures:normal;font-variant-caps:normal;font-variant-numeric:normal;font-feature-settings:normal;text-align:start;letter-spacing:0px;word-spacing:0px;writing-mode:lr-tb;text-anchor:start;fill:#000000;fill-opacity:1;stroke:none" transform="matrix(0.26458333,0,0,0.26458333,358.2384,-159.72574)" id="flowRoot5054">
   <flowRegion style="font-style:normal;font-variant:normal;font-weight:normal;font-stretch:normal;font-size:26.66666794px;font-family:sans-serif;-inkscape-font-specification:'sans-serif, Normal';font-variant-ligatures:normal;font-variant-caps:normal;font-variant-numeric:normal;font-feature-settings:normal;text-align:start;writing-mode:lr-tb;text-anchor:start" id="flowRegion5056">
    <rect width="625.0166" x="59.761002" style="font-style:normal;font-variant:normal;font-weight:normal;font-stretch:normal;font-size:26.66666794px;font-family:sans-serif;-inkscape-font-specification:'sans-serif, Normal';font-variant-ligatures:normal;font-variant-caps:normal;font-variant-numeric:normal;font-feature-settings:normal;text-align:start;writing-mode:lr-tb;text-anchor:start" height="140.53827" y="1292.3317" id="rect5058"/>
   </flowRegion>
   <flowPara id="flowPara5270"/>
  </flowRoot>
  <flowRoot xml:space="preserve" style="font-style:normal;font-weight:normal;font-size:40px;line-height:1.25;font-family:sans-serif;letter-spacing:0px;word-spacing:0px;fill:#000000;fill-opacity:1;stroke:none" id="flowRoot5106">
   <flowRegion id="flowRegion5108">
    <rect width="218.05064" x="723.18512" height="364.08939" y="984.26825" id="rect5110"/>
   </flowRegion>
   <flowPara id="flowPara5112"/>
  </flowRoot>
  <flowRoot xml:space="preserve" style="font-style:normal;font-weight:normal;font-size:40px;line-height:1.25;font-family:sans-serif;letter-spacing:0px;word-spacing:0px;fill:#000000;fill-opacity:1;stroke:none" id="flowRoot5114">
   <flowRegion id="flowRegion5116">
    <rect width="218.05064" x="723.18512" height="323.00369" y="984.26825" id="rect5118"/>
   </flowRegion>
   <flowPara id="flowPara5120"/>
  </flowRoot>
  <flowRoot xml:space="preserve" style="font-style:normal;font-variant:normal;font-weight:normal;font-stretch:normal;font-size:40px;line-height:1.25;font-family:sans-serif;-inkscape-font-specification:'sans-serif, Normal';font-variant-ligatures:normal;font-variant-caps:normal;font-variant-numeric:normal;font-feature-settings:normal;text-align:start;letter-spacing:0px;word-spacing:0px;writing-mode:lr-tb;text-anchor:start;fill:#000000;fill-opacity:1;stroke:none" id="flowRoot5133">
   <flowRegion style="font-style:normal;font-variant:normal;font-weight:normal;font-stretch:normal;font-size:40px;font-family:sans-serif;-inkscape-font-specification:'sans-serif, Normal';font-variant-ligatures:normal;font-variant-caps:normal;font-variant-numeric:normal;font-feature-settings:normal;text-align:start;writing-mode:lr-tb;text-anchor:start" id="flowRegion5135">
    <rect width="154.55458" x="723.18512" style="font-style:normal;font-variant:normal;font-weight:normal;font-stretch:normal;font-size:40px;font-family:sans-serif;-inkscape-font-specification:'sans-serif, Normal';font-variant-ligatures:normal;font-variant-caps:normal;font-variant-numeric:normal;font-feature-settings:normal;text-align:start;writing-mode:lr-tb;text-anchor:start" height="240.83232" y="984.26825" id="rect5137"/>
   </flowRegion>
   <flowPara id="flowPara5141">Autonome Drohnen fahren in regelmäßigen Abständen in die Baumkrone, um Video- und Audioaufnahmen zu erfassen. </flowPara>
   <flowPara id="flowPara5143"/>
  </flowRoot>
  <flowRoot xml:space="preserve" style="font-style:normal;font-variant:normal;font-weight:normal;font-stretch:normal;font-size:40px;line-height:1.25;font-family:sans-serif;-inkscape-font-specification:'sans-serif, Normal';font-variant-ligatures:normal;font-variant-caps:normal;font-variant-numeric:normal;font-feature-settings:normal;text-align:start;letter-spacing:0px;word-spacing:0px;writing-mode:lr-tb;text-anchor:start;fill:#000000;fill-opacity:1;stroke:none" id="flowRoot5145">
   <flowRegion style="font-style:normal;font-variant:normal;font-weight:normal;font-stretch:normal;font-size:40px;font-family:sans-serif;-inkscape-font-specification:'sans-serif, Normal';font-variant-ligatures:normal;font-variant-caps:normal;font-variant-numeric:normal;font-feature-settings:normal;text-align:start;writing-mode:lr-tb;text-anchor:start" id="flowRegion5147">
    <rect width="140.92822" x="773.15796" style="font-style:normal;font-variant:normal;font-weight:normal;font-stretch:normal;font-size:40px;font-family:sans-serif;-inkscape-font-specification:'sans-serif, Normal';font-variant-ligatures:normal;font-variant-caps:normal;font-variant-numeric:normal;font-feature-settings:normal;text-align:start;writing-mode:lr-tb;text-anchor:start" height="333.99677" y="1090.6383" id="rect5149"/>
   </flowRegion>
   <flowPara id="flowPara5153">Autonome Drohnen fahren in regelmäßigen Abständen in die Baumkrone, um Video- und Audioaufnahmen zu erfassen. </flowPara>
   <flowPara id="flowPara5155"/>
  </flowRoot>
  <flowRoot xml:space="preserve" style="font-style:normal;font-weight:normal;font-size:40px;line-height:1.25;font-family:sans-serif;letter-spacing:0px;word-spacing:0px;fill:#000000;fill-opacity:1;stroke:none" id="flowRoot1214">
   <flowRegion id="flowRegion1216">
    <rect width="699.88824" x="5.2822514" height="1077.564" y="293.26843" id="rect1218"/>
   </flowRegion>
   <flowPara id="flowPara1220"/>
  </flowRoot>
  <flowRoot xml:space="preserve" style="font-style:normal;font-weight:normal;font-size:40px;line-height:1.25;font-family:sans-serif;letter-spacing:0px;word-spacing:0px;fill:#000000;fill-opacity:1;stroke:none" id="flowRoot1222">
   <flowRegion id="flowRegion1224">
    <rect width="318.1199" x="9.375001" height="254.04738" y="356.15161" id="rect1226"/>
   </flowRegion>
   <flowPara id="flowPara1228"/>
  </flowRoot>
  <flowRoot xml:space="preserve" style="font-style:normal;font-weight:normal;font-size:40px;line-height:1.25;font-family:sans-serif;letter-spacing:0px;word-spacing:0px;fill:#000000;fill-opacity:1;stroke:none" id="flowRoot1230">
   <flowRegion id="flowRegion1232">
    <rect width="320.76102" x="9.375001" height="219.71324" y="356.15161" id="rect1234"/>
   </flowRegion>
   <flowPara id="flowPara1236"/>
  </flowRoot>
  <flowRoot xml:space="preserve" style="font-style:normal;font-weight:normal;font-size:40px;line-height:1.25;font-family:sans-serif;letter-spacing:0px;word-spacing:0px;fill:#000000;fill-opacity:1;stroke:none" id="flowRoot1238">
   <flowRegion id="flowRegion1240">
    <rect width="283.78577" x="9.375001" height="359.69092" y="356.15161" id="rect1242"/>
   </flowRegion>
   <flowPara id="flowPara1244"/>
  </flowRoot>
  <flowRoot xml:space="preserve" style="font-style:normal;font-variant:normal;font-weight:normal;font-stretch:normal;font-size:39.99942017px;line-height:1.25;font-family:sans-serif;-inkscape-font-specification:'sans-serif, Normal';font-variant-ligatures:normal;font-variant-caps:normal;font-variant-numeric:normal;font-feature-settings:normal;text-align:start;letter-spacing:0px;word-spacing:0px;writing-mode:lr-tb;text-anchor:start;fill:#000000;fill-opacity:1;stroke:none" transform="matrix(0.27833157,0,0,0.31415783,-9.5498046,-150.56984)" id="flowRoot1246">
   <flowRegion style="font-style:normal;font-variant:normal;font-weight:normal;font-stretch:normal;font-size:39.99942017px;font-family:sans-serif;-inkscape-font-specification:'sans-serif, Normal';font-variant-ligatures:normal;font-variant-caps:normal;font-variant-numeric:normal;font-feature-settings:normal;text-align:start;writing-mode:lr-tb;text-anchor:start" id="flowRegion1248">
    <rect width="618.01459" x="66.027199" style="font-style:normal;font-variant:normal;font-weight:normal;font-stretch:normal;font-size:39.99942017px;font-family:sans-serif;-inkscape-font-specification:'sans-serif, Normal';font-variant-ligatures:normal;font-variant-caps:normal;font-variant-numeric:normal;font-feature-settings:normal;text-align:start;writing-mode:lr-tb;text-anchor:start" height="934.94519" y="322.3204" id="rect1250"/>
   </flowRegion>
   <flowPara id="flowPara1266"/>
   <flowPara id="flowPara1268"/>
   <flowPara id="flowPara1270"/>
  </flowRoot>
  <flowRoot xml:space="preserve" style="font-style:normal;font-weight:normal;font-size:40px;line-height:1.25;font-family:sans-serif;letter-spacing:0px;word-spacing:0px;fill:#000000;fill-opacity:1;stroke:none" id="flowRoot1272">
   <flowRegion id="flowRegion1274">
    <rect width="666.74353" x="9.375001" height="993.55206" y="356.15161" id="rect1276"/>
   </flowRegion>
   <flowPara id="flowPara1278"/>
  </flowRoot>
  <flowRoot xml:space="preserve" style="font-style:normal;font-weight:normal;font-size:40px;line-height:1.25;font-family:sans-serif;letter-spacing:0px;word-spacing:0px;fill:#000000;fill-opacity:1;stroke:none" id="flowRoot1280">
   <flowRegion id="flowRegion1282">
    <rect width="642.97375" x="9.375001" height="1016.316" y="298.5506" id="rect1284"/>
   </flowRegion>
   <flowPara id="flowPara1286"/>
  </flowRoot>
  <flowRoot xml:space="preserve" style="font-style:normal;font-weight:normal;font-size:40px;line-height:1.25;font-family:sans-serif;letter-spacing:0px;word-spacing:0px;fill:#000000;fill-opacity:1;stroke:none" id="flowRoot5071">
   <flowRegion id="flowRegion5073">
    <rect width="475.39584" x="1732.5537" height="155.82419" y="359.29562" id="rect5075"/>
   </flowRegion>
   <flowPara id="flowPara5077"/>
  </flowRoot>
  <flowRoot xml:space="preserve" style="font-style:normal;font-weight:normal;font-size:40px;line-height:1.25;font-family:sans-serif;letter-spacing:0px;word-spacing:0px;fill:#000000;fill-opacity:1;stroke:none" id="flowRoot5121">
   <flowRegion id="flowRegion5123">
    <rect width="631.22003" x="76.591553" height="221.85139" y="309.11496" id="rect5125"/>
   </flowRegion>
   <flowPara id="flowPara5127"/>
  </flowRoot>
  <path d="m 137.48714,58.090969 c -1.63039,2.823914 -24.97836,16.303875 -28.23914,16.303875 -3.26077,0 -26.608751,-13.479961 -28.239139,-16.303875 -1.630387,-2.823914 -1.630387,-29.783836 0,-32.60775 C 82.639249,22.659305 105.98723,9.1793442 109.248,9.1793442 c 3.26078,0 26.60875,13.4799608 28.23914,16.3038748 1.63039,2.823914 1.63039,29.783836 0,32.60775 z" inkscape:randomized="0" sodipodi:sides="6" sodipodi:cx="109.248" style="opacity:1;fill:#f59e00;fill-opacity:1;fill-rule:evenodd;stroke:#333333;stroke-width:2.06621932;stroke-miterlimit:4;stroke-dasharray:none;stroke-dashoffset:0;stroke-opacity:1" sodipodi:type="star" transform="matrix(-1.4521482,0,0,-1.4517062,-302.06997,-22.623651)" sodipodi:r2="28.23914" sodipodi:cy="41.787094" sodipodi:arg2="1.0471976" sodipodi:r1="32.60775" inkscape:flatsided="true" sodipodi:arg1="0.52359878" inkscape:rounded="0.1" id="path816"/>
  <g transform="matrix(2.1517465,0,0,2.1517465,-346.95845,-623.95217)" id="g888">
   <g transform="matrix(0.17602273,0,0,0.17602273,-33.474677,197.19478)" id="g1489">
    <g transform="translate(8.9311742,77.12283)" id="g871">
     <path inkscape:connector-curvature="0" d="m -79.573772,168.59237 -0.779576,-11.50465 8.528086,-7.65401 0.715626,11.41015 z" style="fill:#a9d18e;fill-opacity:1;stroke:#2b3d5e;stroke-width:0.465;stroke-linecap:butt;stroke-linejoin:miter;stroke-miterlimit:4;stroke-dasharray:none;stroke-opacity:1" sodipodi:nodetypes="ccccc" id="path826"/>
     <path inkscape:connector-curvature="0" d="m -79.529387,175.1418 -10.958051,-3.65825 -3.758477,-10.89124 10.757599,3.75849 z" style="fill:#00693b;fill-opacity:1;stroke:#2b3d5e;stroke-width:0.465;stroke-linecap:butt;stroke-linejoin:miter;stroke-miterlimit:4;stroke-dasharray:none;stroke-opacity:1" sodipodi:nodetypes="ccccc" id="path828"/>
     <path inkscape:connector-curvature="0" d="m -73.958054,167.11875 -3.634762,10.65759 10.864477,-3.61519 3.623298,-10.81722 z" style="fill:#f5a000;fill-opacity:1;stroke:#2b3d5e;stroke-width:0.465;stroke-linecap:butt;stroke-linejoin:miter;stroke-miterlimit:4;stroke-dasharray:none;stroke-opacity:1" sodipodi:nodetypes="ccccc" id="path828-1"/>
     <path inkscape:connector-curvature="0" d="m -68.571893,185.75769 -6.823936,-0.4927 -3.923842,-5.67044 6.788849,0.47482 z" style="fill:#000e8c;fill-opacity:1;stroke:#2b3d5e;stroke-width:0.465;stroke-linecap:butt;stroke-linejoin:miter;stroke-miterlimit:4;stroke-dasharray:none;stroke-opacity:1" sodipodi:nodetypes="ccccc" id="path828-0"/>
     <path inkscape:connector-curvature="0" d="m -78.564639,176.87525 -5.123043,4.37375 -6.782286,-1.2056 5.206073,-4.50974 z" style="fill:#7c7c7c;fill-opacity:1;stroke:#2b3d5e;stroke-width:0.465;stroke-linecap:butt;stroke-linejoin:miter;stroke-miterlimit:4;stroke-dasharray:none;stroke-opacity:1" sodipodi:nodetypes="ccccc" id="path828-0-9"/>
    </g>
    <g aria-label="Natur 4.0" style="font-style:normal;font-variant:normal;font-weight:normal;font-stretch:normal;font-size:74.66706085px;line-height:1.25;font-family:Arial;-inkscape-font-specification:'Arial, Normal';font-variant-ligatures:normal;font-variant-caps:normal;font-variant-numeric:normal;font-feature-settings:normal;text-align:start;letter-spacing:0px;word-spacing:0px;writing-mode:lr-tb;text-anchor:start;fill:#203864;fill-opacity:1;stroke:none" transform="matrix(0.22556083,0,0,0.22556083,123.69534,122.62074)" id="flowRoot915">
     <path d="m -1279.2265,556.41098 v -53.4482 h 7.2552 l 28.0731,41.96377 v -41.96377 h 6.7813 v 53.4482 h -7.2553 l -28.073,-42.00022 v 42.00022 z" style="font-style:normal;font-variant:normal;font-weight:normal;font-stretch:normal;font-size:74.66706085px;font-family:Arial;-inkscape-font-specification:'Arial, Normal';font-variant-ligatures:normal;font-variant-caps:normal;font-variant-numeric:normal;font-feature-settings:normal;text-align:start;letter-spacing:4.53951836px;word-spacing:0px;writing-mode:lr-tb;text-anchor:start;fill:#203864;fill-opacity:1" id="path943"/>
     <path d="m -1196.2283,551.63492 q -3.6458,3.09897 -7.0365,4.37502 -3.3541,1.27605 -7.2187,1.27605 -6.3803,0 -9.8074,-3.09898 -3.4271,-3.13543 -3.4271,-7.98442 0,-2.84376 1.2761,-5.17711 1.3125,-2.3698 3.3906,-3.79168 2.1146,-1.42188 4.7396,-2.15106 1.9323,-0.51041 5.8334,-0.98438 7.9479,-0.94792 11.7032,-2.26042 0.036,-1.34897 0.036,-1.71355 0,-4.01044 -1.8594,-5.65108 -2.5156,-2.22397 -7.474,-2.22397 -4.6302,0 -6.8542,1.64064 -2.1875,1.60417 -3.2448,5.72399 l -6.4167,-0.87501 q 0.875,-4.11981 2.8802,-6.63545 2.0053,-2.5521 5.797,-3.90106 3.7916,-1.38543 8.7865,-1.38543 4.9583,0 8.0573,1.16668 3.099,1.16667 4.5573,2.95314 1.4583,1.75001 2.0417,4.44794 0.3281,1.67709 0.3281,6.05211 v 8.75005 q 0,9.15109 0.4011,11.59381 0.4375,2.40626 1.677,4.63023 h -6.8542 q -1.0208,-2.04168 -1.3125,-4.77606 z m -0.5468,-14.65633 q -3.573,1.45834 -10.7188,2.47918 -4.0469,0.58333 -5.724,1.3125 -1.6771,0.72918 -2.5886,2.15106 -0.9115,1.38542 -0.9115,3.09897 0,2.62502 1.9688,4.37503 2.0052,1.75 5.8334,1.75 3.7917,0 6.7448,-1.64063 2.9531,-1.67709 4.3386,-4.55731 1.0573,-2.22397 1.0573,-6.56254 z" style="font-style:normal;font-variant:normal;font-weight:normal;font-stretch:normal;font-size:74.66706085px;font-family:Arial;-inkscape-font-specification:'Arial, Normal';font-variant-ligatures:normal;font-variant-caps:normal;font-variant-numeric:normal;font-feature-settings:normal;text-align:start;letter-spacing:4.53951836px;word-spacing:0px;writing-mode:lr-tb;text-anchor:start;fill:#203864;fill-opacity:1" id="path945"/>
     <path d="m -1161.0636,550.54116 0.9479,5.79691 q -2.7708,0.58333 -4.9583,0.58333 -3.573,0 -5.5417,-1.13021 -1.9688,-1.13022 -2.7709,-2.95314 -0.8021,-1.85939 -0.8021,-7.76567 v -22.27616 h -4.8125 v -5.10419 h 4.8125 v -9.58859 l 6.5261,-3.93753 v 13.52612 h 6.599 v 5.10419 h -6.599 v 22.64075 q 0,2.8073 0.3281,3.60939 0.3646,0.80209 1.1303,1.27605 0.802,0.47396 2.2604,0.47396 1.0937,0 2.8802,-0.25521 z" style="font-style:normal;font-variant:normal;font-weight:normal;font-stretch:normal;font-size:74.66706085px;font-family:Arial;-inkscape-font-specification:'Arial, Normal';font-variant-ligatures:normal;font-variant-caps:normal;font-variant-numeric:normal;font-feature-settings:normal;text-align:start;letter-spacing:4.53951836px;word-spacing:0px;writing-mode:lr-tb;text-anchor:start;fill:#203864;fill-opacity:1" id="path947"/>
     <path d="m -1124.7687,556.41098 v -5.68753 q -4.5208,6.56254 -12.2865,6.56254 -3.4271,0 -6.4167,-1.31251 -2.9531,-1.31251 -4.4115,-3.28127 -1.4219,-2.00522 -2.0052,-4.88544 -0.4011,-1.9323 -0.4011,-6.12503 v -23.98971 h 6.5626 v 21.47407 q 0,5.14065 0.401,6.92712 0.6198,2.58855 2.625,4.08335 2.0053,1.45835 4.9584,1.45835 2.9531,0 5.5417,-1.4948 2.5886,-1.53126 3.6458,-4.11982 1.0938,-2.62501 1.0938,-7.58337 v -20.7449 h 6.5625 v 38.71895 z" style="font-style:normal;font-variant:normal;font-weight:normal;font-stretch:normal;font-size:74.66706085px;font-family:Arial;-inkscape-font-specification:'Arial, Normal';font-variant-ligatures:normal;font-variant-caps:normal;font-variant-numeric:normal;font-feature-settings:normal;text-align:start;letter-spacing:4.53951836px;word-spacing:0px;writing-mode:lr-tb;text-anchor:start;fill:#203864;fill-opacity:1" id="path949"/>
     <path d="m -1104.1145,556.41098 v -38.71895 h 5.9063 v 5.86982 q 2.2604,-4.11981 4.1563,-5.43232 1.9323,-1.31251 4.2291,-1.31251 3.3178,0 6.7449,2.1146 l -2.2605,6.08857 q -2.4062,-1.42188 -4.8125,-1.42188 -2.151,0 -3.8646,1.31251 -1.7135,1.27604 -2.4427,3.57293 -1.0938,3.50002 -1.0938,7.65629 v 20.27094 z" style="font-style:normal;font-variant:normal;font-weight:normal;font-stretch:normal;font-size:74.66706085px;font-family:Arial;-inkscape-font-specification:'Arial, Normal';font-variant-ligatures:normal;font-variant-caps:normal;font-variant-numeric:normal;font-feature-settings:normal;text-align:start;letter-spacing:4.53951836px;word-spacing:0px;writing-mode:lr-tb;text-anchor:start;fill:#203864;fill-opacity:1" id="path951"/>
     <path d="m -1030.1028,556.41098 v -12.79694 h -23.1877 v -6.01566 l 24.3908,-34.6356 h 5.3594 v 34.6356 h 7.2188 v 6.01566 h -7.2188 v 12.79694 z m 0,-18.8126 V 513.4993 l -16.7345,24.09908 z" style="font-style:normal;font-variant:normal;font-weight:normal;font-stretch:normal;font-size:74.66706085px;font-family:Arial;-inkscape-font-specification:'Arial, Normal';font-variant-ligatures:normal;font-variant-caps:normal;font-variant-numeric:normal;font-feature-settings:normal;text-align:start;letter-spacing:4.53951836px;word-spacing:0px;writing-mode:lr-tb;text-anchor:start;fill:#203864;fill-opacity:1" id="path953"/>
     <path d="m -1001.3549,556.41098 v -7.474 h 7.47404 v 7.474 z" style="font-style:normal;font-variant:normal;font-weight:normal;font-stretch:normal;font-size:74.66706085px;font-family:Arial;-inkscape-font-specification:'Arial, Normal';font-variant-ligatures:normal;font-variant-caps:normal;font-variant-numeric:normal;font-feature-settings:normal;text-align:start;letter-spacing:4.53951836px;word-spacing:0px;writing-mode:lr-tb;text-anchor:start;fill:#203864;fill-opacity:1" id="path955"/>
     <path d="m -979.78921,530.05147 q 0,-9.47922 1.9323,-15.23967 1.96876,-5.7969 5.79691,-8.93233 3.8646,-3.13544 9.69797,-3.13544 4.3021,0 7.54691,1.75001 3.24481,1.71355 5.3594,4.99482 2.1146,3.24481 3.31773,7.94796 1.20313,4.66669 1.20313,12.61465 0,9.4063 -1.9323,15.2032 -1.9323,5.76045 -5.79691,8.93234 -3.82814,3.13544 -9.69796,3.13544 -7.72921,0 -12.14069,-5.5417 -5.28649,-6.67191 -5.28649,-21.72928 z m 6.74483,0 q 0,13.16153 3.06251,17.53655 3.09898,4.33856 7.61984,4.33856 4.52085,0 7.58337,-4.37502 3.09897,-4.37502 3.09897,-17.50009 0,-13.19799 -3.09897,-17.53655 -3.06252,-4.33857 -7.65629,-4.33857 -4.52086,0 -7.21879,3.82815 -3.39064,4.88544 -3.39064,18.04697 z" style="font-style:normal;font-variant:normal;font-weight:normal;font-stretch:normal;font-size:74.66706085px;font-family:Arial;-inkscape-font-specification:'Arial, Normal';font-variant-ligatures:normal;font-variant-caps:normal;font-variant-numeric:normal;font-feature-settings:normal;text-align:start;letter-spacing:4.53951836px;word-spacing:0px;writing-mode:lr-tb;text-anchor:start;fill:#203864;fill-opacity:1" id="path957"/>
    </g>
    <g aria-label="Sensing Biodiversity" style="font-style:normal;font-variant:normal;font-weight:normal;font-stretch:normal;font-size:39.99937439px;line-height:1.25;font-family:sans-serif;-inkscape-font-specification:'sans-serif, Normal';font-variant-ligatures:normal;font-variant-caps:normal;font-variant-numeric:normal;font-feature-settings:normal;text-align:start;letter-spacing:-0.51232678px;word-spacing:0px;writing-mode:lr-tb;text-anchor:start;fill:#203864;fill-opacity:1;stroke:none" transform="matrix(0.20657388,0,0,0.20657388,98.352197,150.02491)" id="flowRoot915-2">
     <path d="m -1259.8754,517.34629 q 0,1.69919 -0.8008,3.35932 -0.7812,1.66013 -2.207,2.81246 -1.5624,1.24998 -3.6522,1.95309 -2.0703,0.70311 -5,0.70311 -3.1444,0 -5.6639,-0.58592 -2.5,-0.58593 -5.0976,-1.73826 v -4.84367 h 0.2734 q 2.207,1.83591 5.0976,2.83198 2.8906,0.99608 5.4296,0.99608 3.5937,0 5.5858,-1.34763 2.0117,-1.34764 2.0117,-3.5937 0,-1.93356 -0.957,-2.85151 -0.9375,-0.91796 -2.871,-1.42576 -1.4649,-0.39062 -3.1836,-0.64452 -1.6992,-0.25391 -3.6132,-0.64453 -3.8671,-0.8203 -5.7421,-2.79292 -1.8554,-1.99216 -1.8554,-5.1757 0,-3.65229 3.0859,-5.97647 3.0858,-2.34371 7.8319,-2.34371 3.0663,0 5.6249,0.58593 2.5585,0.58592 4.5312,1.44529 v 4.57024 h -0.2735 q -1.6601,-1.40623 -4.3749,-2.32419 -2.6953,-0.93748 -5.5273,-0.93748 -3.1054,0 -4.9999,1.28904 -1.875,1.28904 -1.875,3.32026 0,1.81638 0.9375,2.85152 0.9375,1.03514 3.3008,1.58201 1.2499,0.27343 3.5546,0.66405 2.3046,0.39062 3.9062,0.80077 3.2421,0.85936 4.8827,2.59761 1.6406,1.73826 1.6406,4.86321 z" style="" id="path960"/>
     <path d="m -1236.2084,515.11976 h -16.074 q 0,2.01169 0.6055,3.51557 0.6054,1.48435 1.6601,2.44137 1.0156,0.93748 2.4023,1.40623 1.4062,0.46874 3.0859,0.46874 2.2265,0 4.4726,-0.87889 2.2656,-0.89843 3.2226,-1.75779 h 0.1953 v 4.00384 q -1.8554,0.78124 -3.789,1.30858 -1.9336,0.52733 -4.0624,0.52733 -5.4296,0 -8.4765,-2.92964 -3.0468,-2.94917 -3.0468,-8.35924 0,-5.35148 2.9101,-8.49596 2.9297,-3.14449 7.6952,-3.14449 4.414,0 6.7968,2.57809 2.4023,2.57808 2.4023,7.3241 z m -3.5742,-2.81246 q -0.02,-2.89058 -1.4648,-4.47258 -1.4258,-1.58201 -4.3554,-1.58201 -2.9492,0 -4.707,1.73825 -1.7382,1.73826 -1.9726,4.31634 z" style="" id="path962"/>
     <path d="m -1212.9125,525.64694 h -3.6718 v -12.42168 q 0,-1.50388 -0.1758,-2.81246 -0.1758,-1.3281 -0.6445,-2.07028 -0.4883,-0.8203 -1.4063,-1.21092 -0.9179,-0.41015 -2.3827,-0.41015 -1.5039,0 -3.1445,0.74218 -1.6406,0.74218 -3.1445,1.8945 v 16.28881 h -3.6718 v -21.81607 h 3.6718 v 2.42184 q 1.7187,-1.42576 3.5546,-2.22653 1.8359,-0.80077 3.7695,-0.80077 3.5351,0 5.3905,2.12888 1.8555,2.12887 1.8555,6.13271 z" style="" id="path964"/>
     <path d="m -1190.7689,519.35797 q 0,2.98824 -2.4805,4.90227 -2.4609,1.91403 -6.7382,1.91403 -2.4218,0 -4.453,-0.56639 -2.0117,-0.58593 -3.3789,-1.26951 v -4.12103 h 0.1953 q 1.7383,1.30857 3.8672,2.08981 2.1288,0.7617 4.0819,0.7617 2.4219,0 3.789,-0.78123 1.3672,-0.78124 1.3672,-2.4609 0,-1.28905 -0.7422,-1.9531 -0.7421,-0.66405 -2.8515,-1.13279 -0.7812,-0.17578 -2.0507,-0.41015 -1.25,-0.23437 -2.2852,-0.50781 -2.871,-0.7617 -4.0819,-2.22652 -1.1914,-1.48436 -1.1914,-3.63276 0,-1.34763 0.5469,-2.53902 0.5664,-1.19139 1.6992,-2.12888 1.0937,-0.91795 2.7733,-1.44529 1.6992,-0.54686 3.789,-0.54686 1.9531,0 3.9453,0.48827 2.0117,0.46874 3.3398,1.15233 v 3.92572 h -0.1953 q -1.4062,-1.03514 -3.4179,-1.73826 -2.0117,-0.72264 -3.9453,-0.72264 -2.0117,0 -3.3984,0.78124 -1.3867,0.7617 -1.3867,2.28512 0,1.34763 0.8399,2.03121 0.8203,0.68359 2.6562,1.11327 1.0156,0.23437 2.2656,0.46874 1.2695,0.23437 2.1093,0.42968 2.5586,0.58593 3.9453,2.01169 1.3867,1.44529 1.3867,3.82806 z" style="" id="path966"/>
     <path d="m -1182.0627,500.17859 h -4.1405 v -3.80854 h 4.1405 z m -0.2343,25.46835 h -3.6719 v -21.81607 h 3.6719 z" style="" id="path968"/>
     <path d="m -1157.2629,525.64694 h -3.6718 v -12.42168 q 0,-1.50388 -0.1758,-2.81246 -0.1758,-1.3281 -0.6445,-2.07028 -0.4883,-0.8203 -1.4062,-1.21092 -0.918,-0.41015 -2.3828,-0.41015 -1.5039,0 -3.1445,0.74218 -1.6406,0.74218 -3.1445,1.8945 v 16.28881 h -3.6718 v -21.81607 h 3.6718 v 2.42184 q 1.7187,-1.42576 3.5547,-2.22653 1.8359,-0.80077 3.7694,-0.80077 3.5351,0 5.3906,2.12888 1.8554,2.12887 1.8554,6.13271 z" style="" id="path970"/>
     <path d="m -1133.01,523.16651 q 0,5.54679 -2.5195,8.1444 -2.5195,2.59762 -7.7538,2.59762 -1.7382,0 -3.3983,-0.2539 -1.6406,-0.23438 -3.2422,-0.68359 v -3.74994 h 0.1953 q 0.8985,0.35156 2.8516,0.85936 1.953,0.52734 3.9061,0.52734 1.875,0 3.1055,-0.44921 1.2304,-0.44921 1.914,-1.24998 0.6836,-0.76171 0.9765,-1.83591 0.293,-1.0742 0.293,-2.40231 v -1.99215 q -1.6601,1.3281 -3.1835,1.99215 -1.5039,0.64452 -3.8476,0.64452 -3.9062,0 -6.2109,-2.81245 -2.2851,-2.83199 -2.2851,-7.96863 0,-2.81245 0.7812,-4.84367 0.8008,-2.05075 2.168,-3.5351 1.2695,-1.3867 3.0859,-2.14841 1.8163,-0.78124 3.6132,-0.78124 1.8945,0 3.164,0.39062 1.289,0.37109 2.7148,1.15233 l 0.2344,-0.93749 h 3.4374 z m -3.6718,-3.51557 v -11.89435 q -1.4648,-0.66405 -2.7343,-0.93748 -1.25,-0.29297 -2.5,-0.29297 -3.0273,0 -4.7655,2.03122 -1.7383,2.03122 -1.7383,5.89835 0,3.67182 1.2891,5.56632 1.289,1.8945 4.2772,1.8945 1.6016,0 3.2031,-0.60546 1.6211,-0.62499 2.9687,-1.66013 z" style="" id="path972"/>
     <path d="m -1090.5197,516.70177 q 0,2.16793 -0.8203,3.82806 -0.8203,1.66013 -2.207,2.73433 -1.6406,1.28905 -3.6132,1.83591 -1.9531,0.54687 -4.9804,0.54687 h -10.3123 v -29.08158 h 8.6131 q 3.1835,0 4.7656,0.23437 1.582,0.23438 3.0273,0.97655 1.6015,0.83983 2.3241,2.16794 0.7227,1.30857 0.7227,3.14448 0,2.07028 -1.0547,3.5351 -1.0547,1.44529 -2.8124,2.32418 v 0.15625 q 2.9491,0.60546 4.6483,2.59761 1.6992,1.97263 1.6992,4.99993 z m -6.5038,-13.10527 q 0,-1.05467 -0.3516,-1.77731 -0.3515,-0.72265 -1.1327,-1.17186 -0.918,-0.52734 -2.2266,-0.64452 -1.3085,-0.13672 -3.2421,-0.13672 h -4.6093 v 8.39831 h 4.9999 q 1.8164,0 2.8906,-0.17578 1.0742,-0.19531 1.9921,-0.78124 0.918,-0.58593 1.2891,-1.50388 0.3906,-0.93749 0.3906,-2.207 z m 2.4804,13.26151 q 0,-1.75778 -0.5273,-2.79292 -0.5273,-1.03514 -1.914,-1.75779 -0.9375,-0.48827 -2.2852,-0.62499 -1.3281,-0.15624 -3.2421,-0.15624 h -6.0741 v 10.82014 h 5.1171 q 2.539,0 4.1601,-0.2539 1.6211,-0.27344 2.6562,-0.97655 1.0937,-0.76171 1.6015,-1.73825 0.5078,-0.97655 0.5078,-2.5195 z" style="" id="path974"/>
     <path d="m -1081.8915,500.17859 h -4.1406 v -3.80854 h 4.1406 z m -0.2344,25.46835 h -3.6718 v -21.81607 h 3.6718 z" style="" id="path976"/>
     <path d="m -1056.7402,514.74867 q 0,5.33195 -2.7343,8.41784 -2.7344,3.08589 -7.3241,3.08589 -4.6289,0 -7.3632,-3.08589 -2.7148,-3.08589 -2.7148,-8.41784 0,-5.33195 2.7148,-8.41784 2.7343,-3.10542 7.3632,-3.10542 4.5897,0 7.3241,3.10542 2.7343,3.08589 2.7343,8.41784 z m -3.789,0 q 0,-4.23821 -1.6601,-6.28896 -1.6602,-2.07028 -4.6093,-2.07028 -2.9883,0 -4.6484,2.07028 -1.6406,2.05075 -1.6406,6.28896 0,4.1015 1.6601,6.23037 1.6602,2.10935 4.6289,2.10935 2.9296,0 4.5897,-2.08982 1.6797,-2.10934 1.6797,-6.2499 z" style="" id="path978"/>
     <path d="m -1033.8545,525.64694 h -3.6718 v -2.28512 q -1.582,1.36716 -3.3007,2.12887 -1.7187,0.76171 -3.7304,0.76171 -3.9062,0 -6.2109,-3.00777 -2.2851,-3.00776 -2.2851,-8.33971 0,-2.77339 0.7813,-4.94133 0.8007,-2.16793 2.1484,-3.69135 1.3281,-1.48435 3.0859,-2.26559 1.7773,-0.78124 3.6718,-0.78124 1.7187,0 3.0468,0.37109 1.3281,0.35156 2.7929,1.11327 v -9.45298 h 3.6718 z m -3.6718,-5.37101 v -12.51934 q -1.4843,-0.66405 -2.6562,-0.91795 -1.1718,-0.2539 -2.5585,-0.2539 -3.0859,0 -4.8047,2.1484 -1.7187,2.1484 -1.7187,6.09366 0,3.88665 1.3281,5.91787 1.3281,2.01169 4.2578,2.01169 1.5625,0 3.164,-0.68358 1.6015,-0.70312 2.9882,-1.79685 z" style="" id="path980"/>
     <path d="m -1023.1951,500.17859 h -4.1405 v -3.80854 h 4.1405 z m -0.2344,25.46835 h -3.6718 v -21.81607 h 3.6718 z" style="" id="path982"/>
     <path d="m -997.77031,503.83087 -8.82799,21.81607 h -3.6913 l -8.7694,-21.81607 h 3.9843 l 6.7577,17.36301 6.6991,-17.36301 z" style="" id="path984"/>
     <path d="m -975.52909,515.11976 h -16.07397 q 0,2.01169 0.60546,3.51557 0.60546,1.48435 1.66013,2.44137 1.01561,0.93748 2.40231,1.40623 1.40623,0.46874 3.08589,0.46874 2.22653,0 4.47258,-0.87889 2.26559,-0.89843 3.22261,-1.75779 h 0.19531 v 4.00384 q -1.85544,0.78124 -3.789,1.30858 -1.93357,0.52733 -4.06244,0.52733 -5.4296,0 -8.47643,-2.92964 -3.04683,-2.94917 -3.04683,-8.35924 0,-5.35148 2.91011,-8.49596 2.92964,-3.14449 7.6952,-3.14449 4.41399,0 6.79676,2.57809 2.40231,2.57808 2.40231,7.3241 z m -3.57416,-2.81246 q -0.0195,-2.89058 -1.46482,-4.47258 -1.42576,-1.58201 -4.3554,-1.58201 -2.94918,0 -4.70696,1.73825 -1.73826,1.73826 -1.97263,4.31634 z" style="" id="path986"/>
     <path d="m -956.86202,507.83472 h -0.19531 q -0.8203,-0.19531 -1.60154,-0.27344 -0.76171,-0.0976 -1.81638,-0.0976 -1.69919,0 -3.2812,0.76171 -1.582,0.74217 -3.04683,1.93356 v 15.48804 h -3.67181 v -21.81607 h 3.67181 v 3.22261 q 2.18747,-1.75779 3.8476,-2.48043 1.67966,-0.74218 3.41792,-0.74218 0.95701,0 1.38669,0.0586 0.42968,0.0391 1.28905,0.17578 z" style="" id="path988"/>
     <path d="m -938.29263,519.35797 q 0,2.98824 -2.48043,4.90227 -2.4609,1.91403 -6.73817,1.91403 -2.42184,0 -4.45306,-0.56639 -2.01169,-0.58593 -3.37885,-1.26951 v -4.12103 h 0.19531 q 1.73825,1.30857 3.86712,2.08981 2.12888,0.7617 4.08197,0.7617 2.42184,0 3.789,-0.78123 1.36717,-0.78124 1.36717,-2.4609 0,-1.28905 -0.74218,-1.9531 -0.74217,-0.66405 -2.85151,-1.13279 -0.78124,-0.17578 -2.05075,-0.41015 -1.24998,-0.23437 -2.28512,-0.50781 -2.87105,-0.7617 -4.08197,-2.22652 -1.19139,-1.48436 -1.19139,-3.63276 0,-1.34763 0.54687,-2.53902 0.5664,-1.19139 1.69919,-2.12888 1.09373,-0.91795 2.77339,-1.44529 1.6992,-0.54686 3.78901,-0.54686 1.95309,0 3.94525,0.48827 2.01169,0.46874 3.33979,1.15233 v 3.92572 h -0.19531 q -1.40623,-1.03514 -3.41791,-1.73826 -2.01169,-0.72264 -3.94526,-0.72264 -2.01168,0 -3.39838,0.78124 -1.3867,0.7617 -1.3867,2.28512 0,1.34763 0.83983,2.03121 0.8203,0.68359 2.65621,1.11327 1.01561,0.23437 2.26559,0.46874 1.26951,0.23437 2.10934,0.42968 2.55856,0.58593 3.94525,2.01169 1.3867,1.44529 1.3867,3.82806 z" style="" id="path990"/>
     <path d="m -929.58633,500.17859 h -4.14056 v -3.80854 h 4.14056 z m -0.23437,25.46835 h -3.67182 v -21.81607 h 3.67182 z" style="" id="path992"/>
     <path d="m -911.70052,525.45163 q -1.03514,0.27343 -2.26559,0.44921 -1.21092,0.17578 -2.16793,0.17578 -3.3398,0 -5.07805,-1.79685 -1.73825,-1.79684 -1.73825,-5.76163 v -11.60138 h -2.48043 v -3.08589 h 2.48043 v -6.26943 h 3.67181 v 6.26943 h 7.57801 v 3.08589 h -7.57801 v 9.94125 q 0,1.71873 0.0781,2.69527 0.0781,0.95702 0.54686,1.79685 0.42968,0.78124 1.17186,1.15233 0.76171,0.35155 2.30465,0.35155 0.89842,0 1.87497,-0.2539 0.97655,-0.27343 1.40623,-0.44921 h 0.19531 z" style="" id="path994"/>
     <path d="m -889.04915,503.83087 -12.73418,29.86282 h -3.92571 l 4.06243,-9.10142 -8.69127,-20.7614 h 3.98431 l 6.69912,16.17163 6.7577,-16.17163 z" style="" id="path996"/>
    </g>
   </g>
  </g>
  <g transform="matrix(1.0917587,0,0,1.0917587,42.011495,5.964492)" id="g1641">
   <g style="fill:#333333;fill-opacity:1;stroke-width:6.13394785" transform="matrix(0.1032363,0,0,0.1032363,-496.69556,-79.407424)" id="use5541-1">
    <path inkscape:connector-curvature="0" d="M 69.234375,-11.734375 C 69.234375,-3.910156 65.351563,0 57.59375,0 H 18.953125 c -7.710937,0 -11.5625,-3.910156 -11.5625,-11.734375 v -30.59375 h 19.1875 v 26.171875 h 23.46875 v -25.1875 L 11.5625,-77.765625 c -2.78125,-2.675781 -4.171875,-6.09375 -4.171875,-10.25 V -116.5625 c 0,-7.875 3.851563,-11.8125 11.5625,-11.8125 H 57.59375 c 7.757813,0 11.640625,3.88281 11.640625,11.64062 v 28.718755 h -19.1875 V -112.21875 H 26.578125 V -89 l 38.46875,36.25 c 2.789063,2.625 4.1875,6.101562 4.1875,10.421875 z m 0,0" style="fill:#333333;fill-opacity:1;stroke:none;stroke-width:6.13394785" id="path368-7"/>
   </g>
   <g style="fill:#333333;fill-opacity:1;stroke-width:6.13394785" transform="matrix(0.1032363,0,0,0.1032363,-488.76949,-79.407424)" id="use5543-7">
    <path inkscape:connector-curvature="0" d="M 60.953125,0 H 7.71875 v -128.375 h 52.734375 v 16.96875 H 26.90625 v 37.5 h 28.875 v 16.640625 h -28.875 v 40.28125 h 34.046875 z m 0,0" style="fill:#333333;fill-opacity:1;stroke:none;stroke-width:6.13394785" id="path408-5"/>
   </g>
   <g style="fill:#333333;fill-opacity:1;stroke-width:6.13394785" transform="matrix(0.1032363,0,0,0.1032363,-481.91873,-79.407424)" id="use5545-7">
    <path inkscape:connector-curvature="0" d="m 72.765625,0 h -16.8125 L 25.1875,-80.796875 c 0.820313,3.9375 1.234375,7.027344 1.234375,9.265625 V 0 H 7.71875 v -128.375 h 16.8125 l 30.765625,79.15625 C 54.472656,-53.15625 54.0625,-56.242188 54.0625,-58.484375 V -128.375 h 18.703125 z m 0,0" style="fill:#333333;fill-opacity:1;stroke:none;stroke-width:6.13394785" id="path420-4"/>
   </g>
   <g style="fill:#333333;fill-opacity:1;stroke-width:6.13394785" transform="matrix(0.1032363,0,0,0.1032363,-473.6111,-79.407424)" id="use5547-6">
    <path inkscape:connector-curvature="0" d="M 69.234375,-11.734375 C 69.234375,-3.910156 65.351563,0 57.59375,0 H 18.953125 c -7.710937,0 -11.5625,-3.910156 -11.5625,-11.734375 v -30.59375 h 19.1875 v 26.171875 h 23.46875 v -25.1875 L 11.5625,-77.765625 c -2.78125,-2.675781 -4.171875,-6.09375 -4.171875,-10.25 V -116.5625 c 0,-7.875 3.851563,-11.8125 11.5625,-11.8125 H 57.59375 c 7.757813,0 11.640625,3.88281 11.640625,11.64062 v 28.718755 h -19.1875 V -112.21875 H 26.578125 V -89 l 38.46875,36.25 c 2.789063,2.625 4.1875,6.101562 4.1875,10.421875 z m 0,0" style="fill:#333333;fill-opacity:1;stroke:none;stroke-width:6.13394785" id="path372-1"/>
   </g>
   <g style="fill:#333333;fill-opacity:1;stroke-width:6.13394785" transform="matrix(0.1032363,0,0,0.1032363,-457.39701,-79.407424)" id="use5553-8">
    <path inkscape:connector-curvature="0" d="m 45.359375,-40.859375 h -39.125 V -58 h 39.125 z m 0,0" style="fill:#333333;fill-opacity:1;stroke:none;stroke-width:6.13394785" id="path284-9"/>
   </g>
   <g style="fill:#333333;fill-opacity:1;stroke-width:6.13394785" transform="matrix(0.1032363,0,0,0.1032363,-452.05763,-79.407424)" id="use5557-8">
    <path inkscape:connector-curvature="0" d="M 63.5,-111.40625 H 42.328125 V 0 H 23.21875 V -111.40625 H 2.046875 V -128.375 H 63.5 Z m 0,0" style="fill:#333333;fill-opacity:1;stroke:none;stroke-width:6.13394785" id="path376-3"/>
   </g>
   <g style="fill:#333333;fill-opacity:1;stroke-width:6.13394785" transform="matrix(0.1032363,0,0,0.1032363,-445.29359,-79.407424)" id="use5559-3">
    <path inkscape:connector-curvature="0" d="m 58.984375,-48.234375 h -18.625 V -67.1875 l -14.84375,0.328125 V 0 H 6.734375 v -82.859375 h 18.78125 v 3.046875 c 3.882813,-0.71875 7.738281,-1.429688 11.5625,-2.140625 4.644531,-0.820313 8.53125,-1.234375 11.65625,-1.234375 6.832031,0 10.25,3.367187 10.25,10.09375 z m 0,0" style="fill:#333333;fill-opacity:1;stroke:none;stroke-width:6.13394785" id="path324-0"/>
   </g>
   <g style="fill:#333333;fill-opacity:1;stroke-width:6.13394785" transform="matrix(0.1032363,0,0,0.1032363,-439.08723,-79.407424)" id="use5561-5">
    <path inkscape:connector-curvature="0" d="M 60.125,0 H 42.171875 v -2.875 c -4.273437,0.65625 -8.539062,1.3125 -12.796875,1.96875 -5.585937,0.8242187 -9.824219,1.234375 -12.71875,1.234375 -6.835937,0 -10.25,-3.363281 -10.25,-10.09375 V -39.625 c 0,-6.832031 3.523438,-10.25 10.578125,-10.25 h 25.34375 v -19.03125 h -17.96875 v 11.8125 H 7.390625 v -15.5 c 0,-6.84375 3.523438,-10.265625 10.578125,-10.265625 h 31.75 c 6.9375,0 10.40625,3.421875 10.40625,10.265625 z M 42.328125,-14.9375 v -22.21875 h -17.96875 v 22.875 z m 0,0" style="fill:#333333;fill-opacity:1;stroke:none;stroke-width:6.13394785" id="path380-4"/>
   </g>
   <g style="fill:#333333;fill-opacity:1;stroke-width:6.13394785" transform="matrix(0.1032363,0,0,0.1032363,-427.66433,-79.407424)" id="use5565-4">
    <path inkscape:connector-curvature="0" d="M 25.671875,0 H 7.21875 v -128.375 h 18.453125 z m 0,0" style="fill:#333333;fill-opacity:1;stroke:none;stroke-width:6.13394785" id="path280-6"/>
   </g>
   <path inkscape:connector-curvature="0" d="m -429.41852,-79.457605 c 0.10512,-0.03752 0.18022,-0.105135 0.22528,-0.21027 0.03,-0.06009 0.0376,-0.255333 0.0376,-1.554523 0,-0.818566 0,-1.494445 0.008,-1.50946 0.015,-0.03004 0.12767,-0.03004 0.62331,-0.0225 0.41304,0 0.60076,0 0.60076,-0.02257 0,-0.0075 -0.0451,-0.165219 -0.11262,-0.337943 -0.0601,-0.180234 -0.17273,-0.510666 -0.25534,-0.735956 -0.0751,-0.232802 -0.24031,-0.698411 -0.36047,-1.036347 -0.21028,-0.600779 -0.52569,-1.50946 -0.66839,-1.930012 l -0.0676,-0.202759 0.0525,-0.06009 c 0.12768,-0.135177 0.18024,-0.06009 0.41306,0.585759 0.11263,0.292878 0.29288,0.796034 0.40554,1.111445 0.11262,0.315411 0.23278,0.638333 0.26282,0.713431 0.12016,0.345447 0.32291,0.465603 0.56325,0.337936 0.10514,-0.06009 0.19523,-0.202765 0.19523,-0.315411 0,-0.03004 -0.0976,-0.337935 -0.22528,-0.675878 -0.12768,-0.337943 -0.24032,-0.653347 -0.25534,-0.69841 -0.0601,-0.187745 -0.57073,-1.554517 -0.61579,-1.659658 -0.0601,-0.127667 -0.2178,-0.270348 -0.34545,-0.330426 -0.25534,-0.105135 -0.37551,-0.120155 -1.36678,-0.105135 -0.86361,0.0075 -0.94623,0.0075 -1.10394,0.05254 -0.40553,0.112646 -0.6083,0.307901 -0.69839,0.660858 -0.0224,0.09762 -0.0301,0.420546 -0.0301,1.644637 0,1.501955 0,1.516977 0.0451,1.584565 0.17275,0.225291 0.50316,0.21778 0.62332,-0.0225 0.0376,-0.06756 0.0376,-0.180233 0.0376,-1.411842 0,-1.028829 0.007,-1.351751 0.03,-1.389304 0.0375,-0.0826 0.15771,-0.09011 0.21779,-0.03004 l 0.0451,0.04507 v 3.612202 3.612195 l 0.0525,0.09763 c 0.0901,0.187745 0.38302,0.285369 0.56323,0.187745 0.15021,-0.0751 0.15021,-0.120156 0.15021,-1.794835 0,-1.689701 -0.0224,-1.516977 0.22528,-1.50946 0.0976,0.0075 0.13519,0.01502 0.15021,0.04506 0.007,0.01502 0.007,0.698403 0.007,1.51697 -0.007,1.314211 0,1.494445 0.03,1.554523 0.0976,0.195256 0.32294,0.277865 0.54071,0.202766 z m -0.49565,-8.981679 c 0.23279,-0.0751 0.47312,-0.30039 0.55571,-0.51817 0.0676,-0.17273 0.0676,-0.413034 0,-0.593276 -0.0676,-0.180235 -0.25532,-0.375489 -0.45059,-0.465603 -0.12764,-0.06756 -0.17271,-0.07509 -0.35295,-0.08261 -0.1652,-0.0075 -0.21026,0 -0.2403,0.03004 -0.015,0.01502 -0.0376,0.03752 -0.0525,0.03752 -0.0451,0 -0.30038,0.187745 -0.36797,0.277866 -0.21029,0.30039 -0.21029,0.720936 0.015,1.021325 0.0451,0.06009 0.0901,0.112652 0.0976,0.112652 0.015,0 0.0676,0.03752 0.12767,0.0826 0.0525,0.03759 0.11266,0.0751 0.13519,0.0751 0.015,0 0.03,0.01502 0.0375,0.03004 0.015,0.04507 0.34545,0.04507 0.49566,-0.0075 z" style="display:inline;fill:#333333;fill-opacity:1;fill-rule:nonzero;stroke:none;stroke-width:0.57581079" id="path10864-1-0"/>
   <path inkscape:connector-curvature="0" d="m -465.14483,-85.958517 c 0,-3.339116 0.0217,-6.155066 0.0482,-6.253914 0.0241,-0.09885 0.17118,-0.243499 0.32547,-0.323057 0.42915,-0.216985 5.89469,-0.130188 6.30455,0.09885 0.42673,0.238681 0.40021,-0.262789 0.38333,7.297832 -0.01,4.235975 -0.0578,5.238914 -0.27002,5.46795 -0.21216,0.229036 -0.72569,0.27726 -2.78702,0.260383 -3.0498,-0.02651 -3.70557,-0.07715 -3.87675,-0.301368 -0.0699,-0.09643 -0.12777,-2.905146 -0.12777,-6.246673 z m 3.50306,4.894154 c 1.57915,0.01448 2.3496,-0.0047 2.393,-0.04343 0.082,-0.06992 0.094,-0.995707 0.0916,-7.206221 v -2.873806 l -2.35684,-0.03378 c -1.60566,-0.0193 -2.40264,0.0047 -2.45809,0.05302 -0.10608,0.0892 -0.14465,9.855811 -0.041,9.995643 0.0338,0.04337 0.79215,0.09162 2.3713,0.108493 z m 0.0627,-10.709279 c 0.56415,-0.0028 0.98847,-0.05547 0.94267,-0.115725 -0.094,-0.125362 -1.79613,-0.154296 -1.93597,-0.03378 -0.16394,0.139834 -0.0458,0.15671 0.9933,0.149478 z" style="fill:#333333;fill-opacity:1;fill-rule:nonzero;stroke:none;stroke-width:0.18485655" sodipodi:nodetypes="sccccsccscccccccccccc" id="path10848-7-8"/>
   <ellipse cy="-80.212349" ry="0.52038908" style="opacity:1;fill:#333333;fill-opacity:1;fill-rule:evenodd;stroke:none;stroke-width:0.20436808;stroke-miterlimit:4;stroke-dasharray:0.81747227, 0.20436806;stroke-dashoffset:0;stroke-opacity:1" rx="0.52529842" cx="-461.6319" id="path2414"/>
   <circle cy="-80.245026" style="opacity:1;fill:#333333;fill-opacity:1;fill-rule:evenodd;stroke:#f59e00;stroke-width:0.14965759;stroke-miterlimit:4;stroke-dasharray:none;stroke-dashoffset:0;stroke-opacity:1" r="0.58079875" cx="-461.57291" id="path1361-7"/>
  </g>
 </g>
</svg>
